<svg width="310" height="296" viewBox="0 0 310 296" fill="none" xmlns="http://www.w3.org/2000/svg">
<rect width="310" height="250" rx="10" fill="#76913C"/>
<g clip-path="url(#clip0_211_629)">
<path d="M247.217 248.273H63.2754C68.0743 232.749 85.1658 204.501 104.746 199.094C114.451 196.426 121.363 192.889 126.037 189.818C126.547 194.035 130.307 210.652 158.125 210.652C169.54 210.652 177.992 207.805 183.229 202.174C187.276 197.822 188.243 193.238 188.44 190.687C193.096 193.561 199.596 196.694 208.307 199.094C228.461 204.654 245.095 233.545 247.217 248.273Z" fill="#E78751"/>
<path d="M175.665 197.133C178.691 193.587 180.302 188.905 180.052 184.249C181.243 185.44 183.32 187.284 186.4 189.37C186.265 191.591 185.495 196.47 181.565 200.678C176.757 205.808 168.878 208.413 158.126 208.413C128.732 208.413 128.204 189.137 128.195 188.341C130.389 186.738 131.92 185.341 132.869 184.401C133.505 188.806 134.418 193.292 137.533 196.667C139.217 198.484 141.249 200.177 143.38 201.448C145.582 202.773 148.071 203.436 150.605 203.785C159.2 204.967 169.63 204.179 175.665 197.133Z" fill="#E78751"/>
<path d="M104.155 196.936C124.407 191.349 132.223 181.805 132.303 181.706L132.635 181.295H132.742C132.787 181.832 132.939 182.396 133.217 182.969C133.396 182.96 133.566 183.049 133.602 183.291C133.96 185.825 134.327 188.377 135.151 190.812C136.001 193.337 137.425 195.441 139.385 197.24C141.167 198.879 143.119 200.463 145.339 201.466C147.595 202.487 150.084 202.89 152.529 203.104C156.844 203.489 161.285 203.418 165.493 202.272C169.62 201.153 173.398 198.888 175.905 195.369C178.34 191.967 179.513 187.75 179.137 183.587C179.092 183.166 179.549 183.058 179.827 183.246C180.185 182.584 180.319 181.868 180.274 181.151L180.534 181.483C180.641 181.617 188.762 191.385 208.897 196.936C229.884 202.728 248.049 232.686 249.589 249.285L249.706 250.511H60.3203L60.7053 249.097C64.7252 234.413 82.1301 203.015 104.155 196.936ZM126.036 189.818C121.363 192.889 114.451 196.425 104.746 199.093C85.1652 204.501 68.0737 232.748 63.2748 248.273H247.217C245.095 233.545 228.46 204.653 208.306 199.093C199.595 196.694 193.095 193.56 188.44 190.686C188.243 193.238 187.276 197.822 183.229 202.173C177.991 207.805 169.539 210.652 158.124 210.652C130.307 210.652 126.547 194.035 126.036 189.818ZM132.867 184.401C131.918 185.341 130.387 186.738 128.194 188.341C128.203 189.138 128.731 208.414 158.124 208.414C168.877 208.414 176.756 205.808 181.564 200.678C185.494 196.47 186.264 191.591 186.398 189.37C183.318 187.284 181.241 185.44 180.05 184.249C180.301 188.905 178.69 193.587 175.663 197.133C169.629 204.179 159.199 204.967 150.604 203.785C148.07 203.436 145.581 202.773 143.378 201.448C141.248 200.177 139.215 198.485 137.532 196.667C134.416 193.292 133.503 188.806 132.867 184.401Z" fill="#2D2D2D"/>
</g>
<path d="M203.105 122.956C203.159 123.323 203.186 123.69 203.186 124.067C203.186 129.134 198.673 133.243 193.113 133.243C192.442 133.243 191.779 133.163 191.135 133.046V123.807C191.242 123.762 191.35 123.708 191.439 123.628C191.502 123.583 192.03 123.153 192.899 122.795C192.845 124.398 193.489 126.403 195.952 127.934C196.14 128.042 196.337 128.095 196.542 128.095C196.918 128.095 197.286 127.907 197.491 127.567C197.823 127.039 197.653 126.35 197.133 126.027C195.02 124.72 195.029 123.135 195.208 122.312C196.614 122.285 198.324 122.724 200.186 124.219C200.392 124.389 200.643 124.469 200.885 124.469C201.216 124.469 201.538 124.326 201.762 124.049C201.986 123.771 202.058 123.422 201.986 123.109L203.105 122.956Z" fill="#F8DBC7"/>
<path d="M203.105 122.956L201.986 123.108C201.932 122.866 201.798 122.643 201.592 122.472C197.402 119.106 193.409 119.885 191.135 121.147V115.095C191.788 114.97 192.442 114.889 193.113 114.889C198.261 114.889 202.514 118.417 203.105 122.956Z" fill="#F8DBC7"/>
<path d="M193.114 112.651C199.901 112.651 205.425 117.772 205.425 124.066C205.425 130.36 199.901 135.481 193.114 135.481C192.452 135.481 191.789 135.428 191.135 135.329V136.153C191.135 145.813 187.106 154.542 180.651 160.774H180.795V182.87C180.795 194.975 170.946 204.823 158.841 204.823H153.953C141.848 204.823 132 194.975 132 182.87V159.664C131.391 159.019 130.8 158.365 130.245 157.676C125.339 151.606 122.644 143.969 122.644 136.153V135.32C121.964 135.428 121.283 135.481 120.594 135.481C113.807 135.481 108.283 130.36 108.283 124.066C108.283 117.772 113.807 112.651 120.594 112.651C121.283 112.651 121.964 112.713 122.644 112.821V103.921C122.644 85.0393 138.008 69.6758 156.89 69.6758C175.772 69.6758 191.135 85.0393 191.135 103.921V112.803C191.789 112.713 192.452 112.651 193.114 112.651ZM203.186 124.066C203.186 123.69 203.159 123.323 203.106 122.956C202.515 118.417 198.262 114.889 193.114 114.889C192.443 114.889 191.789 114.97 191.135 115.095V121.147C193.41 119.885 197.403 119.106 201.593 122.472C201.799 122.642 201.933 122.866 201.987 123.108C202.058 123.421 201.987 123.771 201.763 124.048C201.539 124.326 201.217 124.469 200.885 124.469C200.644 124.469 200.393 124.388 200.187 124.218C198.325 122.723 196.615 122.284 195.209 122.311C195.03 123.135 195.021 124.72 197.134 126.027C197.653 126.349 197.823 127.038 197.492 127.567C197.286 127.907 196.919 128.095 196.543 128.095C196.337 128.095 196.14 128.041 195.952 127.934C193.49 126.403 192.845 124.397 192.899 122.795C192.031 123.153 191.502 123.583 191.44 123.627C191.35 123.708 191.243 123.762 191.135 123.806V133.046C191.78 133.162 192.443 133.243 193.114 133.243C198.674 133.243 203.186 129.133 203.186 124.066ZM188.897 136.153V103.921C188.897 86.2749 174.536 71.9141 156.89 71.9141C139.243 71.9141 124.882 86.2749 124.882 103.921V136.153C124.882 143.458 127.398 150.594 131.982 156.261C138.097 163.827 147.176 168.16 156.89 168.16C174.536 168.16 188.897 153.808 188.897 136.153ZM178.556 182.87V162.654C172.647 167.489 165.1 170.398 156.89 170.398C148.68 170.398 140.443 167.336 134.238 161.848V182.87C134.238 193.739 143.084 202.585 153.953 202.585H158.841C169.711 202.585 178.556 193.739 178.556 182.87ZM122.644 133.037V123.359C122.25 123.135 121.614 122.822 120.8 122.589C120.925 124.227 120.334 126.34 117.756 127.934C117.577 128.041 117.371 128.095 117.174 128.095C116.798 128.095 116.431 127.907 116.216 127.567C115.893 127.038 116.055 126.349 116.583 126.027C118.714 124.711 118.687 123.099 118.49 122.284C117.012 122.32 115.293 122.795 113.521 124.218C113.315 124.388 113.073 124.469 112.822 124.469C112.5 124.469 112.169 124.326 111.954 124.048C111.73 123.771 111.659 123.421 111.73 123.108C111.784 122.866 111.918 122.642 112.124 122.472C116.028 119.33 120.074 119.786 122.644 120.861V115.104C121.973 114.979 121.283 114.889 120.594 114.889C115.455 114.889 111.202 118.417 110.602 122.956C110.548 123.323 110.521 123.69 110.521 124.066C110.521 129.133 115.043 133.243 120.594 133.243C121.292 133.243 121.973 133.162 122.644 133.037Z" fill="#2D2D2D"/>
<path d="M188.896 103.921V136.153C188.896 153.808 174.535 168.16 156.888 168.16C147.174 168.16 138.096 163.827 131.981 156.261C127.397 150.594 124.881 143.458 124.881 136.153V103.921C124.881 86.2749 139.233 71.9141 156.888 71.9141C174.544 71.9141 188.896 86.2749 188.896 103.921Z" fill="#F8DBC7"/>
<path d="M178.556 162.654V182.87C178.556 193.739 169.711 202.585 158.841 202.585H153.953C143.084 202.585 134.238 193.739 134.238 182.87V161.848C140.443 167.336 148.438 170.398 156.89 170.398C165.341 170.398 172.647 167.489 178.556 162.654Z" fill="#F8DBC7"/>
<path d="M122.644 123.359V133.037C121.973 133.163 121.292 133.243 120.594 133.243C115.043 133.243 110.521 129.134 110.521 124.066C110.521 123.69 110.548 123.323 110.602 122.956L111.73 123.108C111.659 123.422 111.73 123.771 111.954 124.048C112.169 124.326 112.5 124.469 112.822 124.469C113.073 124.469 113.315 124.389 113.521 124.219C115.293 122.795 117.013 122.32 118.49 122.285C118.687 123.099 118.714 124.711 116.583 126.027C116.055 126.349 115.893 127.039 116.216 127.567C116.431 127.907 116.798 128.095 117.174 128.095C117.371 128.095 117.577 128.042 117.756 127.934C120.334 126.34 120.925 124.227 120.8 122.589C121.614 122.822 122.25 123.135 122.644 123.359Z" fill="#F8DBC7"/>
<path d="M122.644 115.104V120.861C120.074 119.787 116.027 119.33 112.124 122.472C111.918 122.643 111.783 122.866 111.73 123.108L110.602 122.956C111.201 118.417 115.454 114.889 120.593 114.889C121.283 114.889 121.972 114.979 122.644 115.104Z" fill="#F8DBC7"/>
<g opacity="0.6">
<path d="M172.782 165.931C172.513 166.092 172.227 166.244 171.904 166.36C165.789 168.626 157.364 170.121 150.873 168.885C145.108 167.793 137.309 164.534 133.164 160.093L134.104 180.676C134.104 180.676 159.253 181.232 176.014 164.597C174.993 165.143 173.901 165.582 172.773 165.931H172.782Z" fill="#2D2D2D"/>
</g>
<g clip-path="url(#clip1_211_629)">
<path d="M156.594 137.299C155.976 137.299 155.475 136.797 155.475 136.18V111.935C155.475 111.317 155.976 110.815 156.594 110.815C157.212 110.815 157.713 111.317 157.713 111.935V136.18C157.713 136.797 157.212 137.299 156.594 137.299Z" fill="#2D2D2D"/>
<g opacity="0.1">
<path d="M153.21 136.1L155.475 111.935L156.595 137.29H154.303C153.658 137.29 153.148 136.735 153.21 136.091V136.1Z" fill="#2D2D2D"/>
</g>
</g>
<path d="M157.553 140.298C157.553 140.298 157.588 140.343 157.606 140.37C157.705 140.495 157.794 140.62 157.884 140.755C158.072 141.014 158.251 141.274 158.421 141.542C158.77 142.071 159.084 142.617 159.379 143.181C159.594 143.593 160.212 143.754 160.606 143.503C161.026 143.235 161.161 142.724 160.928 142.277C160.292 141.068 159.54 139.94 158.69 138.874C158.555 138.704 158.26 138.615 158.054 138.615C157.83 138.615 157.571 138.713 157.418 138.874C157.266 139.044 157.15 139.268 157.159 139.51C157.168 139.761 157.266 139.949 157.418 140.146C157.463 140.199 157.508 140.262 157.553 140.316V140.298Z" fill="#2D2D2D"/>
<path d="M153.953 142.787C154.759 141.963 155.493 141.077 156.192 140.164C156.326 139.994 156.335 139.671 156.281 139.474C156.227 139.268 156.066 139.045 155.869 138.937C155.663 138.83 155.413 138.776 155.18 138.848C155.108 138.874 155.037 138.91 154.965 138.937C154.831 139.018 154.723 139.125 154.643 139.259C154.616 139.295 154.589 139.331 154.562 139.367C153.98 140.119 153.353 140.844 152.691 141.525C152.369 141.865 152.333 142.465 152.691 142.787C153.04 143.109 153.604 143.145 153.953 142.787Z" fill="#2D2D2D"/>
<path d="M162.985 141.963C163.317 142.295 163.926 142.321 164.248 141.963C164.57 141.605 164.606 141.05 164.248 140.701C163.926 140.388 163.63 140.047 163.353 139.689C163.021 139.242 162.717 138.776 162.457 138.284C162.242 137.872 161.625 137.711 161.231 137.961C160.81 138.23 160.676 138.74 160.908 139.188C161.446 140.208 162.153 141.158 162.985 141.972V141.963Z" fill="#2D2D2D"/>
<path d="M166.397 141.928C166.639 142.33 167.212 142.51 167.624 142.25C168.026 141.99 168.206 141.453 167.946 141.023C167.391 140.11 166.845 139.197 166.29 138.284C166.048 137.881 165.475 137.702 165.063 137.961C164.66 138.221 164.481 138.758 164.741 139.188C165.296 140.101 165.842 141.014 166.397 141.928Z" fill="#2D2D2D"/>
<path d="M149.708 142.107C149.914 142.214 150.165 142.268 150.398 142.196C150.469 142.169 150.541 142.134 150.612 142.107C150.747 142.026 150.854 141.919 150.935 141.784C151.391 141.185 151.848 140.594 152.305 139.994C152.439 139.824 152.448 139.501 152.394 139.304C152.34 139.098 152.179 138.875 151.982 138.767C151.776 138.66 151.526 138.606 151.293 138.678C151.221 138.704 151.15 138.74 151.078 138.767C150.944 138.848 150.836 138.955 150.756 139.089C150.299 139.689 149.842 140.28 149.386 140.88C149.252 141.05 149.243 141.373 149.296 141.569C149.35 141.775 149.511 141.999 149.708 142.107Z" fill="#2D2D2D"/>
<path d="M145.84 143.056C146.932 142.062 147.872 140.88 148.597 139.591C148.83 139.179 148.705 138.597 148.275 138.364C147.854 138.141 147.299 138.248 147.049 138.687C146.878 138.982 146.699 139.278 146.511 139.564C146.413 139.707 146.314 139.851 146.216 139.985C146.171 140.048 146.126 140.11 146.082 140.164C146.108 140.128 146.135 140.101 146.082 140.164C146.082 140.173 146.064 140.182 146.064 140.191C146.064 140.191 146.055 140.2 146.046 140.209C146.046 140.209 146.046 140.2 146.055 140.191C146.037 140.218 146.01 140.245 145.992 140.271C145.562 140.809 145.079 141.319 144.569 141.784C144.219 142.098 144.219 142.734 144.569 143.047C144.936 143.387 145.464 143.387 145.831 143.047L145.84 143.056Z" fill="#2D2D2D"/>
<path d="M146.082 140.164C146.082 140.164 146.064 140.181 146.055 140.19C146.055 140.19 146.064 140.173 146.073 140.164H146.082Z" fill="#2D2D2D"/>
<path d="M168.027 144.408C168.053 144.515 168.107 144.605 168.17 144.694C168.734 145.428 169.235 146.198 169.674 147.013C169.898 147.425 170.498 147.586 170.9 147.335C171.321 147.067 171.456 146.547 171.223 146.109C170.73 145.195 170.157 144.345 169.522 143.53C169.387 143.36 169.092 143.271 168.886 143.271C168.662 143.271 168.403 143.369 168.25 143.53C168.098 143.7 167.982 143.924 167.991 144.166L168.027 144.408Z" fill="#2D2D2D"/>
<path d="M174.568 147.209C174.819 147.54 175.051 147.881 175.284 148.23C175.544 148.624 176.09 148.821 176.511 148.552C176.896 148.301 177.111 147.746 176.833 147.325C175.875 145.875 174.765 144.523 173.529 143.305C173.198 142.974 172.589 142.947 172.267 143.305C171.945 143.664 171.909 144.219 172.267 144.568C172.849 145.141 173.404 145.741 173.932 146.376C174.058 146.529 174.183 146.681 174.299 146.833C174.317 146.851 174.434 147.012 174.353 146.905C174.282 146.815 174.38 146.932 174.389 146.949C174.452 147.03 174.514 147.12 174.577 147.2L174.568 147.209Z" fill="#2D2D2D"/>
<path d="M177.929 144.417C177.813 144.345 177.875 144.381 177.929 144.417V144.417Z" fill="#2D2D2D"/>
<path d="M185.202 142.125C186.259 142.537 187.306 142.949 188.363 143.361C188.569 143.441 188.873 143.379 189.052 143.271C189.24 143.164 189.419 142.949 189.464 142.734C189.518 142.501 189.509 142.251 189.375 142.045C189.24 141.839 189.07 141.722 188.837 141.633C187.781 141.221 186.733 140.809 185.677 140.397C185.471 140.317 185.167 140.38 184.987 140.487C184.799 140.594 184.62 140.809 184.576 141.024C184.522 141.257 184.531 141.508 184.665 141.714C184.799 141.919 184.97 142.036 185.202 142.125Z" fill="#2D2D2D"/>
<path d="M188.834 135.66C188.243 135.517 187.643 135.383 187.052 135.239C186.819 135.186 186.568 135.204 186.362 135.329C186.174 135.436 185.995 135.651 185.951 135.866C185.897 136.099 185.906 136.35 186.04 136.556C186.166 136.744 186.345 136.914 186.577 136.967C187.168 137.111 187.768 137.245 188.359 137.388C188.592 137.442 188.843 137.424 189.048 137.299C189.236 137.191 189.416 136.976 189.46 136.762C189.514 136.529 189.505 136.278 189.371 136.072C189.245 135.884 189.066 135.714 188.834 135.66Z" fill="#2D2D2D"/>
<path d="M190.473 132.75C190.357 132.562 190.16 132.374 189.936 132.339C189.435 132.249 188.924 132.168 188.423 132.079C188.307 132.043 188.181 132.034 188.065 132.061C187.948 132.061 187.832 132.106 187.734 132.168C187.546 132.276 187.367 132.491 187.322 132.706C187.268 132.938 187.277 133.189 187.411 133.395C187.528 133.583 187.725 133.771 187.948 133.807C188.45 133.896 188.96 133.977 189.462 134.067C189.578 134.102 189.703 134.111 189.82 134.084C189.936 134.084 190.052 134.04 190.151 133.977C190.339 133.87 190.518 133.655 190.563 133.44C190.616 133.207 190.608 132.956 190.473 132.75Z" fill="#2D2D2D"/>
<path d="M129.634 143.171C128.39 143.976 127.146 144.791 125.901 145.597C125.507 145.847 125.31 146.403 125.579 146.823C125.829 147.217 126.384 147.414 126.805 147.146C128.05 146.34 129.294 145.525 130.539 144.719C130.933 144.469 131.13 143.914 130.861 143.493C130.61 143.099 130.055 142.902 129.634 143.171Z" fill="#2D2D2D"/>
<path d="M125.907 142.925C126.731 142.325 127.555 141.734 128.369 141.134C128.566 140.991 128.719 140.839 128.781 140.597C128.844 140.382 128.817 140.096 128.692 139.908C128.566 139.72 128.387 139.55 128.154 139.496C127.931 139.442 127.653 139.451 127.465 139.586L125.003 141.376C124.806 141.519 124.654 141.672 124.591 141.913C124.528 142.128 124.555 142.415 124.681 142.603C124.806 142.791 124.985 142.961 125.218 143.015C125.442 143.068 125.719 143.059 125.907 142.925Z" fill="#2D2D2D"/>
<path d="M127.738 138.624C127.855 138.436 127.899 138.15 127.828 137.935C127.756 137.72 127.622 137.505 127.416 137.398C127.21 137.29 126.95 137.227 126.726 137.308C125.948 137.586 125.169 137.854 124.39 138.132C124.166 138.212 123.978 138.338 123.853 138.544C123.736 138.732 123.691 139.018 123.763 139.233C123.835 139.448 123.969 139.663 124.175 139.77C124.381 139.878 124.64 139.94 124.864 139.86C125.643 139.582 126.422 139.314 127.201 139.036C127.425 138.955 127.613 138.83 127.738 138.624Z" fill="#2D2D2D"/>
<path d="M126.412 135.535C126.878 135.509 127.334 135.141 127.307 134.64C127.289 134.175 126.913 133.718 126.412 133.745C125.544 133.79 124.675 133.834 123.807 133.879C123.341 133.906 122.884 134.273 122.911 134.774C122.929 135.24 123.305 135.697 123.807 135.67C124.675 135.625 125.544 135.58 126.412 135.535Z" fill="#2D2D2D"/>
<path d="M123.761 131.417C123.905 131.497 124.048 131.542 124.209 131.542C124.666 131.587 125.122 131.631 125.579 131.676C125.704 131.676 125.821 131.658 125.928 131.596C126.036 131.56 126.134 131.497 126.215 131.408C126.367 131.255 126.483 130.996 126.474 130.772C126.465 130.539 126.385 130.297 126.215 130.136C126.152 130.092 126.098 130.047 126.036 129.993C125.892 129.912 125.749 129.868 125.588 129.868C125.131 129.823 124.675 129.778 124.218 129.733C124.093 129.733 123.976 129.751 123.869 129.814C123.761 129.85 123.663 129.912 123.582 130.002C123.43 130.154 123.314 130.414 123.323 130.638C123.332 130.87 123.412 131.112 123.582 131.273C123.645 131.318 123.699 131.363 123.761 131.417Z" fill="#2D2D2D"/>
<path d="M130.147 149.929C130.523 149.651 130.908 149.401 131.32 149.186C131.732 148.971 131.893 148.353 131.642 147.959C131.373 147.538 130.863 147.404 130.416 147.637C129.305 148.219 128.303 149.034 127.506 150C127.354 150.189 127.246 150.377 127.246 150.636C127.246 150.86 127.345 151.12 127.506 151.272C127.676 151.433 127.9 151.54 128.141 151.531C128.365 151.523 128.625 151.451 128.777 151.272C129.18 150.779 129.646 150.332 130.147 149.929Z" fill="#2D2D2D"/>
<path d="M143.612 149.332C143.558 149.126 143.397 148.902 143.2 148.795C142.806 148.589 142.188 148.66 141.973 149.117C141.687 149.744 141.364 150.353 140.997 150.943C140.818 151.23 140.63 151.516 140.442 151.794C140.344 151.937 140.245 152.072 140.147 152.206C140.12 152.242 140.093 152.277 140.066 152.304C140.066 152.304 140.057 152.313 140.048 152.331C140.03 152.349 140.021 152.367 140.012 152.376C139.977 152.421 139.95 152.457 139.914 152.501C139.762 152.689 139.654 152.877 139.654 153.137C139.654 153.361 139.753 153.62 139.914 153.773C140.236 154.068 140.872 154.167 141.176 153.773C142.098 152.618 142.895 151.373 143.522 150.03C143.629 149.806 143.683 149.583 143.612 149.341V149.332Z" fill="#2D2D2D"/>
<path d="M145.725 152.958C145.277 152.86 144.722 153.093 144.623 153.585C144.444 154.498 144.256 155.411 144.077 156.334C144.033 156.575 144.041 156.808 144.167 157.023C144.274 157.211 144.489 157.39 144.704 157.435C145.152 157.533 145.707 157.301 145.805 156.808C145.984 155.895 146.172 154.982 146.351 154.059C146.396 153.818 146.387 153.585 146.262 153.37C146.154 153.182 145.94 153.003 145.725 152.958Z" fill="#2D2D2D"/>
<path d="M147.479 156.987V159.87C147.479 160.335 147.89 160.783 148.374 160.765C148.857 160.747 149.269 160.371 149.269 159.87V156.987C149.269 156.521 148.857 156.073 148.374 156.091C147.89 156.109 147.479 156.485 147.479 156.987Z" fill="#2D2D2D"/>
<path d="M154.23 149.081L154.087 149.26C154.033 149.359 153.997 149.457 153.988 149.565C153.943 149.851 153.872 150.129 153.764 150.406C153.657 150.639 153.532 150.854 153.379 151.06C153.281 151.176 153.182 151.293 153.075 151.391C152.735 151.713 152.726 152.331 153.075 152.653C153.442 152.985 153.979 153.003 154.337 152.653C154.713 152.295 155.036 151.866 155.26 151.4C155.385 151.14 155.501 150.872 155.582 150.603C155.671 150.308 155.716 150.012 155.743 149.708C155.77 149.493 155.627 149.215 155.483 149.072C155.331 148.92 155.071 148.804 154.848 148.812C154.615 148.821 154.373 148.902 154.212 149.072L154.23 149.081Z" fill="#2D2D2D"/>
<path d="M159.458 149.385C159.333 149.188 159.145 149.036 158.921 148.973C158.706 148.911 158.419 148.938 158.231 149.063C158.043 149.188 157.873 149.367 157.82 149.6C157.766 149.833 157.784 150.084 157.909 150.29C158.384 151.042 158.93 151.758 159.539 152.402C159.691 152.564 159.95 152.662 160.174 152.662C160.398 152.662 160.658 152.564 160.81 152.402C161.15 152.035 161.15 151.498 160.81 151.14C160.55 150.863 160.309 150.576 160.085 150.281C159.87 149.994 159.655 149.69 159.458 149.385Z" fill="#2D2D2D"/>
<path d="M157.373 154.238V152.456C157.373 152.224 157.274 151.982 157.113 151.821C156.961 151.668 156.701 151.552 156.477 151.561C156.245 151.57 156.003 151.651 155.842 151.821C155.681 152 155.582 152.215 155.582 152.456V154.238C155.582 154.471 155.681 154.713 155.842 154.874C155.994 155.026 156.254 155.142 156.477 155.133C156.71 155.124 156.952 155.044 157.113 154.874C157.274 154.695 157.373 154.48 157.373 154.238Z" fill="#2D2D2D"/>
<path d="M154.229 156.942C154.122 156.754 153.907 156.575 153.692 156.53C153.459 156.477 153.208 156.485 153.002 156.62C152.805 156.745 152.653 156.924 152.591 157.157C152.519 157.443 152.42 157.721 152.313 157.99C152.179 158.294 152.035 158.589 151.856 158.867C151.731 159.064 151.704 159.342 151.767 159.556C151.821 159.762 151.982 159.986 152.179 160.094C152.617 160.326 153.137 160.201 153.405 159.771C153.817 159.118 154.131 158.384 154.319 157.631C154.381 157.408 154.345 157.148 154.229 156.942Z" fill="#2D2D2D"/>
<path d="M158.905 159.314L158.771 157.121C158.753 156.879 158.681 156.664 158.511 156.485C158.359 156.333 158.099 156.217 157.876 156.226C157.643 156.235 157.401 156.315 157.24 156.485C157.088 156.655 156.962 156.879 156.98 157.121L157.115 159.314C157.132 159.556 157.204 159.771 157.374 159.95C157.526 160.102 157.786 160.219 158.01 160.21C158.243 160.201 158.484 160.12 158.646 159.95C158.798 159.78 158.923 159.556 158.905 159.314Z" fill="#2D2D2D"/>
<path d="M162.279 158.536C162.494 158.598 162.78 158.571 162.968 158.446C163.38 158.178 163.541 157.658 163.291 157.22C162.861 156.468 162.351 155.769 161.778 155.116C161.634 154.945 161.357 154.856 161.142 154.856C160.927 154.856 160.658 154.954 160.506 155.116C160.354 155.286 160.238 155.51 160.247 155.751C160.256 155.993 160.345 156.199 160.506 156.387C160.632 156.53 160.757 156.682 160.873 156.835C161.187 157.246 161.482 157.676 161.742 158.133C161.849 158.33 162.064 158.482 162.279 158.545V158.536Z" fill="#2D2D2D"/>
<path d="M166.263 152.922C166.03 152.824 165.824 152.761 165.573 152.833C165.367 152.886 165.144 153.047 165.036 153.244C164.929 153.45 164.875 153.701 164.947 153.934C165.009 154.14 165.153 154.382 165.359 154.471C166.111 154.802 166.827 155.223 167.48 155.724C167.588 155.805 167.686 155.886 167.785 155.975C167.964 156.136 168.17 156.235 168.42 156.235C168.644 156.235 168.904 156.136 169.056 155.975C169.361 155.635 169.432 155.035 169.056 154.713C168.215 153.988 167.283 153.379 166.263 152.931V152.922Z" fill="#2D2D2D"/>
<path d="M173.721 153.737C173.945 153.316 173.838 152.761 173.399 152.51C172.486 152 171.581 151.489 170.668 150.979C170.256 150.746 169.674 150.872 169.442 151.301C169.218 151.722 169.325 152.277 169.764 152.528C170.677 153.038 171.581 153.549 172.495 154.059C172.906 154.292 173.488 154.166 173.721 153.737Z" fill="#2D2D2D"/>
<path d="M174.009 150.889C175.03 151.337 175.988 151.883 176.892 152.537C177.071 152.662 177.375 152.68 177.581 152.626C177.787 152.573 178.011 152.412 178.118 152.215C178.226 152.009 178.28 151.758 178.208 151.525C178.136 151.292 177.993 151.131 177.796 150.988C176.901 150.334 175.934 149.779 174.913 149.341C174.68 149.242 174.474 149.179 174.224 149.251C174.018 149.305 173.794 149.466 173.687 149.663C173.579 149.869 173.525 150.12 173.597 150.352C173.66 150.558 173.803 150.8 174.009 150.889Z" fill="#2D2D2D"/>
<path d="M181.027 152.332C180.687 152.009 180.087 151.973 179.765 152.332C179.443 152.681 179.407 153.245 179.765 153.594C180.58 154.382 181.395 155.17 182.2 155.958C182.541 156.28 183.14 156.316 183.463 155.958C183.785 155.608 183.821 155.035 183.463 154.695C182.648 153.907 181.833 153.119 181.027 152.332Z" fill="#2D2D2D"/>
<path d="M176.469 155.939C176.146 155.599 175.529 155.59 175.206 155.939C174.875 156.306 174.857 156.843 175.206 157.202C175.985 158.025 176.773 158.84 177.552 159.664C177.874 160.004 178.492 160.013 178.814 159.664C179.146 159.297 179.164 158.759 178.814 158.401C178.036 157.578 177.248 156.763 176.469 155.939Z" fill="#2D2D2D"/>
<path d="M171.205 157.801C171.51 158.043 171.778 158.321 172.02 158.625C172.19 158.858 172.351 159.091 172.477 159.341C172.692 159.753 173.309 159.914 173.703 159.664C174.124 159.395 174.258 158.885 174.026 158.437C173.48 157.399 172.629 156.521 171.617 155.921C171.42 155.805 171.152 155.769 170.928 155.832C170.722 155.886 170.498 156.047 170.391 156.244C170.167 156.673 170.283 157.211 170.713 157.47C170.883 157.569 171.044 157.685 171.196 157.801H171.205Z" fill="#2D2D2D"/>
<path d="M172.021 159.789C171.842 159.664 171.528 159.646 171.331 159.699C171.125 159.753 170.901 159.914 170.794 160.111C170.687 160.317 170.633 160.568 170.704 160.801C170.776 161.033 170.919 161.195 171.116 161.338C171.215 161.41 171.304 161.481 171.394 161.553C172.056 162.072 172.692 162.636 173.283 163.245C173.614 163.585 174.223 163.594 174.545 163.245C174.877 162.887 174.895 162.341 174.545 161.983C173.766 161.186 172.916 160.46 172.012 159.798L172.021 159.789Z" fill="#2D2D2D"/>
<path d="M166.978 160.765C167.112 160.935 167.408 161.024 167.614 161.024C167.838 161.024 168.097 160.926 168.249 160.765C168.402 160.595 168.518 160.371 168.509 160.129L168.473 159.887C168.429 159.735 168.357 159.601 168.241 159.494L166.584 157.443C166.45 157.273 166.154 157.184 165.949 157.184C165.725 157.184 165.465 157.282 165.313 157.443C165.161 157.613 165.044 157.837 165.053 158.079L165.089 158.321C165.134 158.473 165.205 158.607 165.322 158.715C165.877 159.395 166.423 160.084 166.978 160.765Z" fill="#2D2D2D"/>
<path d="M167.543 162.162C167.454 161.974 167.203 161.804 167.006 161.75C166.791 161.687 166.505 161.714 166.317 161.839C166.129 161.965 165.959 162.144 165.905 162.377C165.896 162.457 165.887 162.538 165.869 162.618C165.869 162.779 165.914 162.932 165.994 163.066C166.362 163.89 166.729 164.713 167.096 165.537C167.185 165.725 167.436 165.895 167.633 165.949C167.848 166.012 168.134 165.985 168.322 165.859C168.51 165.734 168.68 165.555 168.734 165.322L168.77 165.08C168.77 164.919 168.725 164.767 168.645 164.633C168.278 163.809 167.91 162.985 167.543 162.162Z" fill="#2D2D2D"/>
<path d="M163.63 163.478C163.442 162.654 163.263 161.83 163.075 161.006C162.976 160.55 162.421 160.237 161.974 160.38C161.49 160.532 161.239 160.989 161.347 161.481C161.535 162.305 161.714 163.128 161.902 163.952C162 164.409 162.556 164.722 163.003 164.579C163.487 164.427 163.737 163.97 163.63 163.478Z" fill="#2D2D2D"/>
<path d="M159.567 163.12C159.334 163.066 159.084 163.075 158.878 163.209C158.699 163.326 158.502 163.522 158.466 163.746C158.349 164.57 158.233 165.403 158.117 166.226C158.081 166.477 158.072 166.692 158.206 166.916C158.314 167.104 158.528 167.283 158.743 167.328C158.976 167.381 159.227 167.372 159.433 167.238C159.612 167.122 159.809 166.925 159.845 166.701C159.961 165.877 160.077 165.045 160.194 164.221C160.23 163.97 160.238 163.755 160.104 163.531C159.997 163.343 159.782 163.164 159.567 163.12Z" fill="#2D2D2D"/>
<path d="M155.117 160.479C154.625 160.496 154.231 160.872 154.222 161.374C154.213 161.759 154.177 162.144 154.132 162.529C154.087 162.842 154.034 163.156 153.962 163.469C153.908 163.702 153.926 163.952 154.052 164.158C154.159 164.346 154.374 164.525 154.589 164.57C155.045 164.678 155.583 164.436 155.69 163.943C155.878 163.102 155.995 162.233 156.012 161.374C156.021 160.908 155.592 160.461 155.117 160.479Z" fill="#2D2D2D"/>
<path d="M149.422 161.607C149.189 161.553 148.939 161.562 148.733 161.696C148.536 161.822 148.375 162.001 148.321 162.234C148.249 162.529 148.151 162.807 148.035 163.093C147.873 163.442 147.694 163.783 147.479 164.096C147.354 164.284 147.336 164.579 147.39 164.785C147.444 164.991 147.605 165.215 147.802 165.322C148.008 165.43 148.258 165.484 148.491 165.412C148.724 165.34 148.885 165.206 149.028 165C149.494 164.311 149.843 163.523 150.049 162.717C150.103 162.484 150.076 162.234 149.959 162.028C149.852 161.84 149.637 161.661 149.422 161.616V161.607Z" fill="#2D2D2D"/>
<path d="M145.994 161.007C146.209 160.595 146.12 160.013 145.672 159.78C145.26 159.565 144.678 159.655 144.445 160.102C144.007 160.944 143.505 161.741 142.923 162.493C142.878 162.546 142.834 162.609 142.789 162.663C142.637 162.851 142.529 163.039 142.529 163.299C142.529 163.522 142.628 163.782 142.789 163.934C142.959 164.095 143.183 164.203 143.425 164.194C143.648 164.185 143.908 164.113 144.06 163.934C144.794 163.021 145.448 162.054 145.994 161.015V161.007Z" fill="#2D2D2D"/>
<path d="M143.38 159.404C143.738 159.1 143.72 158.446 143.38 158.142C142.995 157.792 142.493 157.819 142.117 158.142C141.07 159.037 140.174 160.138 139.512 161.347C139.288 161.759 139.395 162.341 139.834 162.573C140.255 162.797 140.819 162.69 141.061 162.251C141.213 161.973 141.383 161.696 141.553 161.436C141.643 161.302 141.741 161.168 141.84 161.033C141.858 161.007 141.875 160.98 141.902 160.953C141.947 160.899 141.992 160.845 142.037 160.783C142.448 160.281 142.896 159.825 143.389 159.404H143.38Z" fill="#2D2D2D"/>
<path d="M141.554 155.438C141.616 155.223 141.59 154.937 141.464 154.749C141.339 154.561 141.16 154.39 140.927 154.337C140.712 154.283 140.426 154.283 140.238 154.426C139.763 154.793 139.307 155.169 138.886 155.59C138.465 156.011 138.08 156.468 137.722 156.942C137.588 157.112 137.579 157.435 137.632 157.632C137.686 157.837 137.847 158.061 138.044 158.169C138.25 158.276 138.501 158.33 138.734 158.258C138.805 158.231 138.877 158.196 138.948 158.169C139.083 158.088 139.19 157.981 139.271 157.846C139.235 157.9 139.19 157.945 139.154 157.999C139.772 157.202 140.497 156.477 141.294 155.859C141.24 155.895 141.196 155.939 141.142 155.975C141.339 155.823 141.482 155.689 141.554 155.438Z" fill="#2D2D2D"/>
<path d="M133.629 157.336C133.835 157.121 134.059 156.924 134.292 156.745C134.694 156.45 135.124 156.199 135.572 155.993C135.751 155.921 135.939 155.85 136.127 155.796C136.575 155.662 136.906 155.16 136.754 154.695C136.61 154.247 136.136 153.925 135.652 154.068C134.408 154.444 133.271 155.134 132.367 156.065C132.044 156.405 132.009 156.996 132.367 157.327C132.716 157.649 133.289 157.685 133.629 157.327V157.336Z" fill="#2D2D2D"/>
<path d="M137.908 158.544C137.102 159.001 136.341 159.556 135.661 160.192C135.321 160.514 135.312 161.141 135.661 161.454C136.028 161.794 136.556 161.794 136.923 161.454C137.129 161.257 137.353 161.078 137.577 160.899C137.971 160.604 138.374 160.326 138.803 160.084C139 159.977 139.153 159.762 139.215 159.547C139.278 159.332 139.251 159.046 139.126 158.858C138.857 158.446 138.338 158.294 137.899 158.535L137.908 158.544Z" fill="#2D2D2D"/>
<path d="M155.358 165.044C155.125 164.991 154.874 165 154.669 165.134C154.481 165.259 154.301 165.438 154.257 165.671C154.122 166.361 153.979 167.041 153.845 167.73C153.8 167.972 153.809 168.205 153.934 168.42C154.042 168.608 154.257 168.787 154.472 168.832C154.704 168.885 154.955 168.876 155.161 168.742C155.349 168.617 155.528 168.438 155.573 168.205C155.707 167.515 155.85 166.835 155.985 166.146C156.029 165.904 156.021 165.671 155.895 165.456C155.788 165.268 155.573 165.089 155.358 165.044Z" fill="#2D2D2D"/>
<path d="M165.135 164.713C165.073 164.499 164.921 164.293 164.724 164.176C164.536 164.06 164.249 164.015 164.034 164.087C163.819 164.158 163.604 164.293 163.497 164.499C163.381 164.713 163.345 164.955 163.407 165.188C163.56 165.734 163.703 166.28 163.855 166.826C163.918 167.041 164.07 167.247 164.267 167.364C164.455 167.48 164.741 167.525 164.956 167.453C165.171 167.381 165.386 167.247 165.494 167.041C165.61 166.826 165.646 166.594 165.583 166.352C165.431 165.806 165.288 165.26 165.135 164.713Z" fill="#2D2D2D"/>
<path d="M146.316 162.538C146.074 162.547 145.85 162.627 145.68 162.797C145.089 163.388 144.489 163.988 143.898 164.579C143.737 164.74 143.639 164.982 143.639 165.215C143.639 165.447 143.737 165.698 143.898 165.85C144.068 166.011 144.292 166.119 144.534 166.11C144.776 166.101 145 166.02 145.17 165.85C145.761 165.259 146.36 164.66 146.951 164.069C147.112 163.907 147.211 163.666 147.211 163.433C147.211 163.2 147.112 162.949 146.951 162.797C146.781 162.636 146.557 162.529 146.316 162.538Z" fill="#2D2D2D"/>
<path d="M185.638 150.263C185.638 150.263 185.476 150.129 185.45 150.12C185.45 150.12 185.45 150.12 185.441 150.12C185.414 150.102 185.387 150.093 185.36 150.075C185.306 150.03 185.253 149.986 185.19 149.95C185.181 149.941 185.163 149.932 185.154 149.923C185.127 149.905 185.1 149.896 185.073 149.878C184.984 149.833 184.885 149.789 184.787 149.762C184.671 149.726 184.554 149.708 184.438 149.672C184.321 149.636 184.196 149.627 184.08 149.654C183.963 149.654 183.847 149.699 183.748 149.762C183.641 149.815 183.56 149.896 183.498 149.995C183.417 150.084 183.363 150.183 183.337 150.299C183.328 150.379 183.319 150.46 183.301 150.541C183.301 150.702 183.346 150.854 183.426 150.988C183.471 151.051 183.516 151.114 183.569 151.167C183.677 151.275 183.811 151.355 183.963 151.4C184.008 151.418 184.062 151.427 184.116 151.436C184.223 151.543 184.357 151.624 184.509 151.669C184.572 151.696 184.635 151.722 184.697 151.74C184.715 151.74 184.733 151.749 184.742 151.758C184.742 151.758 184.742 151.758 184.751 151.758C184.751 151.758 184.984 151.794 184.993 151.794C185.163 151.794 185.208 151.767 185.342 151.714C185.467 151.66 185.521 151.651 185.629 151.525C185.673 151.463 185.718 151.4 185.772 151.346C185.808 151.275 185.843 151.203 185.861 151.132C185.888 151.051 185.897 150.979 185.897 150.89L185.861 150.648C185.835 150.514 185.727 150.344 185.629 150.254L185.638 150.263Z" fill="#2D2D2D"/>
<path d="M146.7 144.775C146.646 144.569 146.485 144.345 146.288 144.237C146.082 144.13 145.831 144.076 145.598 144.148C145.384 144.219 145.169 144.354 145.061 144.56C144.936 144.819 144.775 145.07 144.596 145.303C144.372 145.571 144.121 145.822 143.844 146.046C143.879 146.019 143.915 145.992 143.951 145.965C143.853 146.019 143.763 146.1 143.709 146.189C143.629 146.279 143.575 146.377 143.548 146.494C143.485 146.708 143.512 146.995 143.638 147.183C143.763 147.371 143.942 147.541 144.175 147.595C144.39 147.649 144.676 147.649 144.864 147.505C145.231 147.228 145.572 146.941 145.858 146.592C146.145 146.243 146.404 145.876 146.61 145.464C146.718 145.249 146.762 145.016 146.7 144.775Z" fill="#2D2D2D"/>
<path d="M142.069 145.497C142.015 145.291 141.854 145.067 141.657 144.96C141.451 144.852 141.2 144.798 140.968 144.87C140.753 144.942 140.538 145.076 140.43 145.282C140.305 145.541 140.144 145.792 139.965 146.025C139.741 146.294 139.49 146.544 139.213 146.768C139.249 146.741 139.284 146.714 139.32 146.687C139.222 146.741 139.132 146.822 139.078 146.911C138.998 147.001 138.944 147.099 138.917 147.216C138.855 147.431 138.881 147.717 139.007 147.905C139.132 148.093 139.311 148.263 139.544 148.317C139.759 148.371 140.045 148.371 140.233 148.227C140.6 147.95 140.941 147.663 141.227 147.314C141.514 146.965 141.773 146.598 141.979 146.186C142.087 145.971 142.131 145.738 142.069 145.497Z" fill="#2D2D2D"/>
<path d="M169.086 139.868C169.222 139.976 169.349 140.081 169.484 140.188C170.056 140.673 170.592 141.185 171.1 141.726C171.416 142.067 172.018 142.121 172.367 141.779C172.707 141.434 172.765 140.881 172.42 140.512C171.688 139.724 170.896 139.012 170.051 138.348C169.878 138.211 169.569 138.181 169.366 138.231C169.155 138.278 168.921 138.431 168.814 138.623C168.695 138.83 168.629 139.072 168.697 139.308C168.765 139.544 168.893 139.706 169.089 139.86L169.086 139.868Z" fill="#2D2D2D"/>
<path d="M135.205 157.846C135.035 157.694 134.811 157.577 134.57 157.586C134.337 157.595 134.104 157.676 133.934 157.846C133.665 158.124 133.37 158.374 133.066 158.616C132.886 158.75 132.716 158.876 132.528 158.992C132.331 159.117 132.179 159.296 132.117 159.529C132.054 159.744 132.081 160.031 132.206 160.219C132.331 160.407 132.51 160.577 132.743 160.63C132.976 160.684 133.227 160.675 133.433 160.541C134.068 160.129 134.668 159.646 135.205 159.108C135.366 158.947 135.465 158.706 135.465 158.473C135.465 158.24 135.366 157.989 135.205 157.837V157.846Z" fill="#2D2D2D"/>
<path d="M162.297 147.407C163.04 147.407 163.64 146.807 163.64 146.064C163.64 145.321 163.04 144.721 162.297 144.721H151.052C150.309 144.721 149.709 145.321 149.709 146.064C149.709 146.807 150.309 147.407 151.052 147.407H162.297Z" fill="#2D2D2D"/>
<path d="M131.116 152.113C130.275 152.57 129.424 153.018 128.582 153.474C128.171 153.698 128.009 154.307 128.26 154.701C128.529 155.122 129.039 155.256 129.487 155.023C130.328 154.567 131.179 154.119 132.02 153.662C132.432 153.438 132.593 152.83 132.343 152.436C132.074 152.015 131.564 151.881 131.116 152.113Z" fill="#2D2D2D"/>
<path d="M151.463 163.379C150.962 163.406 150.595 163.773 150.568 164.275C150.523 165.081 150.487 165.877 150.443 166.683C150.416 167.149 150.872 167.596 151.338 167.578C151.839 167.552 152.206 167.185 152.233 166.683C152.278 165.877 152.314 165.081 152.359 164.275C152.385 163.809 151.929 163.362 151.463 163.379Z" fill="#2D2D2D"/>
<path d="M187.93 146.199C187.169 145.948 186.417 145.688 185.656 145.438C185.208 145.285 184.662 145.608 184.554 146.064C184.438 146.557 184.707 147.004 185.181 147.166C185.942 147.416 186.694 147.676 187.455 147.927C187.903 148.079 188.449 147.756 188.556 147.3C188.673 146.807 188.404 146.36 187.93 146.199Z" fill="#2D2D2D"/>
<path d="M150.523 115.74H130.826C129.931 118.873 131.721 126.483 141.122 126.483C148.643 126.483 150.523 119.321 150.523 115.74Z" fill="#2D2D2D"/>
<path d="M183.855 115.74H164.158C163.263 118.873 165.054 126.483 174.454 126.483C181.975 126.483 183.855 119.321 183.855 115.74Z" fill="#2D2D2D"/>
<path d="M140.487 127.719C134.059 127.719 128.83 122.491 128.83 116.053C128.83 115.435 129.331 114.934 129.949 114.934H151.034C151.652 114.934 152.153 115.435 152.153 116.053C152.153 122.482 146.924 127.719 140.496 127.719H140.487ZM131.131 117.172C131.686 121.846 135.67 125.481 140.487 125.481C145.304 125.481 149.288 121.846 149.843 117.172H131.131Z" fill="#2D2D2D"/>
<path d="M146.064 116.77H134.613C134.613 120.011 137.245 122.643 140.487 122.643C143.728 122.643 146.36 120.011 146.36 116.77" fill="#2D2D2D"/>
<path d="M152.474 113.224H129.939C129.322 113.224 128.82 112.723 128.82 112.105C128.82 111.487 129.322 110.986 129.939 110.986H152.474C153.092 110.986 153.594 111.487 153.594 112.105C153.594 112.723 153.092 113.224 152.474 113.224Z" fill="#2D2D2D"/>
<path d="M173.346 127.719C166.917 127.719 161.68 122.491 161.68 116.053C161.68 115.435 162.181 114.934 162.799 114.934H183.883C184.501 114.934 185.003 115.435 185.003 116.053C185.003 122.482 179.774 127.719 173.346 127.719ZM163.99 117.172C164.545 121.846 168.529 125.481 173.346 125.481C178.162 125.481 182.147 121.846 182.702 117.172H163.99Z" fill="#2D2D2D"/>
<path d="M167.766 116.77H179.217C179.217 120.011 176.585 122.643 173.344 122.643C170.103 122.643 167.471 120.011 167.471 116.77" fill="#2D2D2D"/>
<path d="M183.883 113.224H161.348C160.73 113.224 160.229 112.723 160.229 112.105C160.229 111.487 160.73 110.986 161.348 110.986H183.883C184.5 110.986 185.002 111.487 185.002 112.105C185.002 112.723 184.5 113.224 183.883 113.224Z" fill="#2D2D2D"/>
<g clip-path="url(#clip2_211_629)">
<path d="M119.94 114.522C119.94 114.522 117.845 107.834 118.731 104.199C118.731 104.199 115.544 96.4993 117.299 91.8705C117.299 91.8705 114.246 78.7363 125.437 71.8335C126.306 71.2963 126.753 70.2846 126.547 69.2818C126.341 68.2791 126.144 66.963 126.189 65.7991C126.234 64.5277 127.255 63.5339 128.526 63.3996C129.923 63.2564 132.331 62.7102 135.993 60.9644C142.484 57.8845 145.68 53.0408 156.684 56.5594C156.684 56.5594 164.715 50.3997 170.991 53.4796C177.267 56.5594 171.868 57.8845 179.684 62.5043C187.5 67.1241 187.939 68.7804 189.918 72.6303C191.896 76.4801 195.862 75.3789 197.179 79.4526C197.179 79.4526 193.803 80.5538 194.555 82.3176C194.555 82.3176 195.451 88.5937 195.979 94.9773C196.507 101.361 191.798 114.701 191.798 114.701L188.396 114.934C188.396 114.934 186.721 110.968 183.31 108.658C183.31 108.658 181.34 95.7293 181.34 90.447C181.34 90.447 171.716 80.7597 168.6 77.456C168.6 77.456 157.785 82.6309 145.895 77.6798C145.895 77.6798 136.539 84.0634 133.02 85.1647C129.502 86.2659 129.278 93.7507 127.514 95.2906C125.751 96.8306 127.693 105.067 126.726 108.541C125.759 112.015 123.011 118.354 123.011 118.354L119.922 114.531L119.94 114.522Z" fill="#2D2D2D"/>
</g>
<defs>
<clipPath id="clip0_211_629">
<rect width="189.842" height="197.21" fill="white" transform="translate(60.0977 53.5156)"/>
</clipPath>
<clipPath id="clip1_211_629">
<rect width="4.50342" height="26.4833" fill="white" transform="translate(153.209 110.815)"/>
</clipPath>
<clipPath id="clip2_211_629">
<rect width="186.431" height="199.234" fill="white" transform="translate(61.8867 52.6201)"/>
</clipPath>
</defs>
</svg>
