<svg width="310" height="297" viewBox="0 0 310 297" fill="none" xmlns="http://www.w3.org/2000/svg">
<rect width="310" height="250" rx="10" fill="#E896D1"/>
<g clip-path="url(#clip0_211_628)">
<path d="M193.597 193.897L187.365 221.643C185.243 221.937 178.28 222.793 163.32 223.765C155.572 224.273 150.615 224.79 147.004 225.174C141.967 225.7 139.88 225.922 136.84 225.396C132.57 224.656 127.131 224.113 124.982 223.908C125.027 223.604 125.063 223.301 125.063 222.989V190.42C128.896 187.986 131.339 185.811 132.641 184.518C132.766 186.399 132.98 188.281 133.488 190.099C134.094 192.302 135.173 194.29 136.635 196.037C139.604 199.595 143.821 202.314 148.199 203.812C150.463 204.587 152.924 204.694 155.305 204.694C157.712 204.703 160.119 204.498 162.491 204.052C164.809 203.624 167.082 202.947 169.249 202.002C171.353 201.092 173.091 199.862 174.402 197.963C175.855 195.85 177.068 193.505 178.022 191.116C178.887 188.958 179.466 186.694 179.591 184.375C181.561 186.337 185.983 190.171 193.597 193.897Z" fill="#FFF1E3"/>
<path d="M191.537 222.107C190.877 224.746 192.491 227.421 195.13 228.081C195.531 228.179 195.932 228.223 196.325 228.223C198.536 228.223 200.551 226.726 201.112 224.488C201.763 221.849 200.149 219.165 197.51 218.514C194.871 217.854 192.197 219.468 191.537 222.107ZM189.37 222.883L196.173 192.579C196.681 192.079 197.778 191.259 198.687 191.482C199.561 191.705 200.399 191.999 201.371 192.356C202.459 192.748 203.698 193.203 205.329 193.657C208.245 194.46 209.939 196.127 210.072 196.831C210.188 197.429 209.618 199.328 209.02 200.719L202.779 225.718C202.459 227.02 201.603 228.134 200.426 228.785L197.385 230.488C195.593 231.487 193.133 230.871 192.009 229.151L189.843 225.798C189.29 224.942 189.121 223.89 189.37 222.883Z" fill="#375399"/>
<path d="M196.976 220.672C198.42 221.037 199.303 222.5 198.946 223.953C198.589 225.397 197.118 226.271 195.674 225.914C194.221 225.558 193.338 224.087 193.704 222.642C194.06 221.198 195.531 220.315 196.976 220.672Z" fill="#B1C0E7"/>
<path d="M246.502 248.159H221.004C220.754 246.474 219.943 243.13 217.295 240.233C215.485 238.254 214.468 234.215 213.577 230.648C212.899 227.956 212.311 225.62 211.419 224.309C209.752 221.858 207.38 221.02 206.311 220.761L211.098 201.512C211.196 201.289 211.366 200.861 211.553 200.353C229.509 207.423 244.434 232.949 246.502 248.159Z" fill="#FFF1E3"/>
<path d="M168.624 234.482V241.49C168.624 242.194 168.044 242.774 167.34 242.774H143.526C142.813 242.774 142.242 242.194 142.242 241.49V234.482C142.242 233.778 142.813 233.198 143.526 233.198H167.34C168.044 233.198 168.624 233.778 168.624 234.482Z" fill="#375399"/>
<path d="M187.035 223.934C187.062 225.022 187.374 226.083 187.971 227.001L190.138 230.354C191.324 232.181 193.392 233.198 195.478 233.198C196.504 233.198 197.538 232.957 198.474 232.431L201.514 230.737C203.217 229.783 204.474 228.151 204.938 226.252L205.776 222.918C206.489 223.087 208.308 223.694 209.574 225.557C210.243 226.547 210.813 228.802 211.411 231.192C212.374 235.008 213.461 239.341 215.646 241.73C217.723 244.012 218.472 246.669 218.739 248.158H89.9258C90.5677 244.387 95.3019 237.245 98.253 232.814C99.9024 230.327 101.204 228.365 101.694 227.26C102.524 225.388 105.279 224.558 106.973 224.273C107.142 225.334 107.659 226.324 108.444 227.064L111.689 230.095C112.875 231.21 114.426 231.762 115.986 231.762C117.547 231.762 119.089 231.21 120.275 230.095L123.146 227.411C123.565 227.019 123.921 226.564 124.207 226.074C125.731 226.217 131.82 226.796 136.466 227.59C137.812 227.822 138.998 227.92 140.264 227.92C142.136 227.92 144.195 227.706 147.236 227.385C150.838 227.01 155.759 226.493 163.462 225.994C177.353 225.084 184.307 224.3 187.035 223.934ZM170.853 241.489V234.482C170.853 232.547 169.275 230.969 167.34 230.969H143.527C141.583 230.969 140.014 232.547 140.014 234.482V241.489C140.014 243.424 141.583 245.002 143.527 245.002H167.34C169.275 245.002 170.853 243.424 170.853 241.489Z" fill="#94BFD1"/>
<path d="M115.987 224.452C117.479 224.452 118.688 223.242 118.688 221.75C118.688 220.258 117.479 219.049 115.987 219.049C114.495 219.049 113.285 220.258 113.285 221.75C113.285 223.242 114.495 224.452 115.987 224.452Z" fill="#B1C0E7"/>
<path d="M106.899 198.516V222.036C105.169 222.294 101.05 223.221 99.6595 226.36C99.2405 227.287 97.921 229.275 96.3964 231.575C91.9118 238.325 88.1494 244.271 87.6679 248.159H65.8691C67.9911 233.492 84.5475 204.721 104.617 199.185C105.401 198.971 106.15 198.748 106.899 198.516Z" fill="#FFF1E3"/>
<path d="M121.62 225.789L118.749 228.473C117.251 229.882 114.71 229.882 113.213 228.473L109.967 225.433C109.441 224.933 109.129 224.238 109.129 223.507V196.778L109.085 196.617C109.085 196.617 108.781 195.628 109.156 194.798C109.611 193.8 111.795 190.884 114.398 190.813C116.422 190.76 117.911 189.922 119.097 189.244C119.908 188.789 120.604 188.397 121.21 188.397C122.146 188.397 122.681 189.601 122.833 189.993V222.99C122.833 224.051 122.387 225.067 121.62 225.789ZM111.055 221.75C111.055 224.47 113.266 226.681 115.985 226.681C118.705 226.681 120.916 224.47 120.916 221.75C120.916 219.031 118.705 216.82 115.985 216.82C113.266 216.82 111.055 219.031 111.055 221.75Z" fill="#375399"/>
<path d="M195.129 228.08C192.49 227.421 190.877 224.746 191.536 222.107C192.196 219.468 194.871 217.854 197.51 218.514C200.149 219.165 201.763 221.848 201.112 224.487C200.55 226.725 198.535 228.223 196.324 228.223C195.932 228.223 195.531 228.178 195.129 228.08ZM195.673 225.914C197.118 226.27 198.589 225.397 198.945 223.952C199.302 222.499 198.419 221.037 196.975 220.671C195.531 220.315 194.059 221.197 193.703 222.642C193.337 224.086 194.22 225.557 195.673 225.914Z" fill="#2D2D2D"/>
<path d="M168.624 234.482C168.624 233.778 168.045 233.198 167.34 233.198H143.526C142.813 233.198 142.243 233.778 142.243 234.482V241.49C142.243 242.194 142.813 242.774 143.526 242.774H167.34C168.045 242.774 168.624 242.194 168.624 241.49V234.482ZM143.526 245.002C141.583 245.002 140.014 243.424 140.014 241.49V234.482C140.014 232.547 141.583 230.969 143.526 230.969H167.34C169.275 230.969 170.853 232.547 170.853 234.482V241.49C170.853 243.424 169.275 245.002 167.34 245.002H143.526Z" fill="#2D2D2D"/>
<path d="M113.286 221.75C113.286 223.239 114.489 224.452 115.987 224.452C117.485 224.452 118.688 223.239 118.688 221.75C118.688 220.261 117.476 219.049 115.987 219.049C114.498 219.049 113.286 220.261 113.286 221.75ZM120.917 221.75C120.917 224.469 118.706 226.681 115.987 226.681C113.268 226.681 111.057 224.469 111.057 221.75C111.057 219.031 113.268 216.82 115.987 216.82C118.706 216.82 120.917 219.031 120.917 221.75Z" fill="#2D2D2D"/>
<path d="M113.213 228.473C114.711 229.881 117.252 229.881 118.75 228.473L121.621 225.789C122.388 225.067 122.833 224.05 122.833 222.989V189.993C122.682 189.6 122.147 188.397 121.211 188.397C120.604 188.397 119.909 188.789 119.098 189.244C117.912 189.921 116.423 190.759 114.399 190.813C111.796 190.884 109.611 193.8 109.157 194.798C108.782 195.627 109.076 196.608 109.085 196.617L109.13 196.777V223.507C109.13 224.238 109.442 224.933 109.968 225.432L113.213 228.473ZM206.311 220.76C207.381 221.019 209.752 221.857 211.419 224.309C212.311 225.62 212.899 227.955 213.577 230.648C214.468 234.214 215.485 238.253 217.295 240.232C219.943 243.13 220.754 246.473 221.004 248.158H246.502C244.434 232.948 229.509 207.423 211.553 200.353C211.366 200.861 211.196 201.289 211.098 201.512L206.311 220.76ZM65.8711 248.158H87.6699C88.1514 244.271 91.9138 238.324 96.3984 231.575C97.9229 229.275 99.2425 227.287 99.6615 226.36C101.052 223.221 105.171 222.294 106.901 222.035V198.516C106.152 198.748 105.403 198.971 104.619 199.185C84.5494 204.721 67.9931 233.492 65.8711 248.158ZM148.198 203.812C143.821 202.314 139.604 199.595 136.635 196.037C135.173 194.29 134.094 192.302 133.488 190.1C132.979 188.281 132.765 186.4 132.641 184.518C131.339 185.811 128.896 187.987 125.062 190.42V222.989C125.062 223.301 125.027 223.605 124.982 223.908C127.131 224.113 132.569 224.657 136.84 225.397C139.88 225.923 141.966 225.7 147.004 225.174C150.615 224.79 155.572 224.273 163.319 223.765C178.28 222.793 185.243 221.937 187.365 221.643L193.597 193.898C185.983 190.171 181.561 186.337 179.59 184.376C179.466 186.694 178.886 188.958 178.021 191.116C177.067 193.505 175.855 195.85 174.402 197.963C173.091 199.862 171.352 201.093 169.248 202.002C167.082 202.947 164.808 203.625 162.49 204.053C160.119 204.498 157.711 204.703 155.304 204.694C152.924 204.694 150.463 204.587 148.198 203.812ZM192.01 229.15C193.133 230.871 195.594 231.486 197.386 230.487L200.426 228.785C201.603 228.134 202.459 227.019 202.78 225.718L209.021 200.718C209.618 199.327 210.189 197.428 210.073 196.831C209.939 196.126 208.245 194.459 205.33 193.657C203.698 193.202 202.459 192.747 201.371 192.355C200.4 191.999 199.562 191.704 198.688 191.481C197.778 191.259 196.682 192.079 196.174 192.578L189.371 222.882C189.121 223.89 189.291 224.942 189.843 225.798L192.01 229.15ZM157.025 203.776C159.352 203.678 161.67 203.384 163.935 202.84C166.065 202.323 168.214 201.627 170.158 200.593C171.121 200.076 172.012 199.452 172.752 198.641C173.501 197.803 174.089 196.84 174.651 195.877C176.88 192.097 178.708 187.924 178.726 183.466C178.512 183.226 178.378 183.074 178.351 183.038L180.09 181.647C180.134 181.692 184.325 186.774 194.096 191.651L194.132 191.508L194.319 191.294C194.417 191.187 196.655 188.682 199.232 189.324C200.212 189.565 201.104 189.886 202.129 190.26C203.181 190.643 204.376 191.071 205.927 191.508C209.235 192.427 211.901 194.486 212.266 196.421C212.355 196.911 212.293 197.544 212.168 198.195C231.444 205.666 247.403 233.546 248.856 249.166L248.972 250.387H63.3926L63.5085 249.166C65.042 232.636 83.1408 202.804 104.03 197.036C104.966 196.777 105.876 196.51 106.758 196.233C106.705 195.592 106.741 194.727 107.133 193.871C107.873 192.257 110.708 188.682 114.337 188.584C115.808 188.548 116.922 187.915 118.001 187.309C118.991 186.747 120.016 186.168 121.211 186.168C122.753 186.168 123.796 187.157 124.42 188.183C129.707 184.741 132.034 181.906 132.061 181.87L133.051 182.664C133.211 182.682 133.363 182.78 133.416 182.967L133.8 183.27C133.8 183.27 133.675 183.422 133.479 183.636C133.603 185.998 133.835 188.37 134.575 190.617C135.342 192.97 136.742 194.985 138.471 196.733C140.049 198.32 141.841 199.684 143.794 200.789C145.755 201.895 147.877 202.956 150.097 203.411C152.353 203.856 154.742 203.865 157.025 203.776ZM115.986 231.762C114.426 231.762 112.875 231.21 111.689 230.095L108.443 227.064C107.659 226.324 107.142 225.334 106.972 224.273C105.278 224.559 102.523 225.388 101.694 227.26C101.204 228.366 99.9022 230.327 98.2528 232.814C95.3017 237.246 90.5675 244.387 89.9256 248.158H218.739C218.472 246.669 217.723 244.013 215.645 241.73C213.461 239.341 212.373 235.008 211.41 231.192C210.813 228.802 210.242 226.547 209.574 225.557C208.308 223.694 206.489 223.087 205.776 222.918L204.938 226.253C204.474 228.152 203.217 229.783 201.514 230.737L198.474 232.431C197.538 232.957 196.503 233.198 195.478 233.198C193.392 233.198 191.323 232.181 190.138 230.354L187.971 227.001C187.374 226.083 187.062 225.022 187.035 223.934C184.307 224.3 177.353 225.085 163.462 225.994C155.759 226.493 150.837 227.01 147.235 227.385C144.195 227.706 142.136 227.92 140.263 227.92C138.997 227.92 137.812 227.822 136.465 227.59C131.82 226.796 125.731 226.217 124.206 226.074C123.921 226.565 123.564 227.019 123.145 227.412L120.275 230.095C119.089 231.21 117.537 231.762 115.986 231.762Z" fill="#2D2D2D"/>
</g>
<path d="M202.905 125.078C202.958 125.444 202.985 125.809 202.985 126.184C202.985 131.23 198.491 135.322 192.955 135.322C192.286 135.322 191.626 135.242 190.984 135.126V125.925C191.091 125.881 191.198 125.827 191.288 125.747C191.35 125.702 191.876 125.274 192.741 124.918C192.687 126.514 193.329 128.511 195.781 130.035C195.968 130.142 196.164 130.196 196.369 130.196C196.744 130.196 197.109 130.008 197.315 129.67C197.644 129.144 197.475 128.457 196.958 128.136C194.854 126.835 194.863 125.256 195.041 124.436C196.441 124.409 198.144 124.846 199.998 126.335C200.203 126.505 200.453 126.585 200.694 126.585C201.023 126.585 201.344 126.442 201.567 126.166C201.79 125.889 201.861 125.542 201.79 125.23L202.905 125.078Z" fill="#F5C09B"/>
<path d="M202.905 125.077L201.79 125.229C201.737 124.988 201.603 124.765 201.398 124.596C197.225 121.244 193.249 122.019 190.984 123.276V117.249C191.635 117.125 192.286 117.044 192.955 117.044C198.081 117.044 202.316 120.557 202.905 125.077Z" fill="#F5C09B"/>
<path d="M192.954 114.816C199.713 114.816 205.213 119.915 205.213 126.183C205.213 132.451 199.713 137.551 192.954 137.551C192.295 137.551 191.635 137.497 190.984 137.399V138.219C190.984 147.839 186.972 156.532 180.544 162.737H180.686V184.741C180.686 196.795 170.879 206.602 158.825 206.602H153.957C141.903 206.602 132.096 196.795 132.096 184.741V161.632C131.49 160.99 130.901 160.339 130.349 159.653C125.463 153.608 122.779 146.003 122.779 138.219V137.39C122.102 137.497 121.424 137.551 120.738 137.551C113.979 137.551 108.479 132.451 108.479 126.183C108.479 119.915 113.979 114.816 120.738 114.816C121.424 114.816 122.102 114.878 122.779 114.985V106.123C122.779 87.3198 138.079 72.0205 156.882 72.0205C175.685 72.0205 190.984 87.3198 190.984 106.123V114.967C191.635 114.878 192.295 114.816 192.954 114.816ZM202.985 126.183C202.985 125.809 202.958 125.443 202.904 125.078C202.316 120.557 198.081 117.045 192.954 117.045C192.286 117.045 191.635 117.125 190.984 117.25V123.277C193.249 122.02 197.225 121.244 201.398 124.596C201.603 124.766 201.736 124.988 201.79 125.229C201.861 125.541 201.79 125.889 201.567 126.165C201.344 126.442 201.023 126.584 200.693 126.584C200.452 126.584 200.203 126.504 199.998 126.335C198.143 124.846 196.44 124.409 195.041 124.436C194.862 125.256 194.853 126.834 196.958 128.136C197.475 128.457 197.644 129.143 197.314 129.669C197.109 130.008 196.744 130.195 196.369 130.195C196.164 130.195 195.968 130.142 195.781 130.035C193.329 128.51 192.687 126.513 192.74 124.917C191.876 125.274 191.35 125.702 191.287 125.746C191.198 125.827 191.091 125.88 190.984 125.925V135.126C191.626 135.241 192.286 135.322 192.954 135.322C198.491 135.322 202.985 131.229 202.985 126.183ZM188.755 138.219V106.123C188.755 88.5501 174.454 74.2494 156.882 74.2494C139.309 74.2494 125.008 88.5501 125.008 106.123V138.219C125.008 145.494 127.513 152.6 132.078 158.244C138.168 165.778 147.208 170.093 156.882 170.093C174.454 170.093 188.755 155.801 188.755 138.219ZM178.458 184.741V164.61C172.573 169.424 165.057 172.322 156.882 172.322C148.706 172.322 140.504 169.273 134.325 163.807V184.741C134.325 195.565 143.134 204.374 153.957 204.374H158.825C169.649 204.374 178.458 195.565 178.458 184.741ZM122.779 135.117V125.479C122.387 125.256 121.754 124.944 120.943 124.712C121.067 126.344 120.479 128.448 117.911 130.035C117.733 130.142 117.528 130.195 117.332 130.195C116.957 130.195 116.592 130.008 116.378 129.669C116.057 129.143 116.217 128.457 116.743 128.136C118.865 126.825 118.839 125.22 118.642 124.409C117.171 124.445 115.459 124.917 113.694 126.335C113.489 126.504 113.248 126.584 112.999 126.584C112.678 126.584 112.348 126.442 112.134 126.165C111.911 125.889 111.84 125.541 111.911 125.229C111.965 124.988 112.098 124.766 112.303 124.596C116.191 121.467 120.22 121.921 122.779 122.991V117.259C122.111 117.134 121.424 117.045 120.738 117.045C115.62 117.045 111.385 120.557 110.788 125.078C110.734 125.443 110.707 125.809 110.707 126.183C110.707 131.229 115.21 135.322 120.738 135.322C121.433 135.322 122.111 135.241 122.779 135.117Z" fill="#2D2D2D"/>
<path d="M188.755 106.123V138.219C188.755 155.801 174.454 170.093 156.881 170.093C147.208 170.093 138.167 165.778 132.078 158.244C127.513 152.6 125.008 145.495 125.008 138.219V106.123C125.008 88.5502 139.3 74.2495 156.881 74.2495C174.463 74.2495 188.755 88.5502 188.755 106.123Z" fill="#F5C09B"/>
<path d="M178.459 164.61V184.742C178.459 195.565 169.65 204.374 158.826 204.374H153.958C143.135 204.374 134.326 195.565 134.326 184.742V163.808C140.505 169.273 148.466 172.322 156.883 172.322C165.299 172.322 172.574 169.424 178.459 164.61Z" fill="#F5C09B"/>
<path d="M122.779 125.479V135.117C122.11 135.242 121.433 135.322 120.737 135.322C115.209 135.322 110.707 131.23 110.707 126.183C110.707 125.809 110.734 125.443 110.787 125.078L111.911 125.229C111.839 125.541 111.911 125.889 112.134 126.166C112.348 126.442 112.677 126.585 112.998 126.585C113.248 126.585 113.489 126.504 113.694 126.335C115.459 124.917 117.171 124.445 118.642 124.409C118.838 125.221 118.865 126.825 116.743 128.136C116.217 128.457 116.056 129.143 116.377 129.669C116.591 130.008 116.957 130.195 117.331 130.195C117.528 130.195 117.733 130.142 117.911 130.035C120.479 128.448 121.067 126.344 120.942 124.712C121.754 124.944 122.387 125.256 122.779 125.479Z" fill="#F5C09B"/>
<path d="M122.779 117.258V122.991C120.22 121.921 116.19 121.467 112.303 124.596C112.098 124.765 111.964 124.988 111.91 125.229L110.787 125.077C111.384 120.557 115.619 117.044 120.737 117.044C121.423 117.044 122.11 117.134 122.779 117.258Z" fill="#F5C09B"/>
<g opacity="0.6">
<path d="M172.708 167.873C172.44 168.034 172.155 168.185 171.834 168.301C165.745 170.557 157.355 172.046 150.891 170.815C145.149 169.728 137.384 166.482 133.256 162.06L134.192 182.557C134.192 182.557 159.236 183.11 175.926 166.545C174.91 167.088 173.822 167.525 172.699 167.873H172.708Z" fill="#2D2D2D"/>
</g>
<g clip-path="url(#clip1_211_628)">
<path d="M156.589 139.36C155.974 139.36 155.475 138.861 155.475 138.246V114.102C155.475 113.487 155.974 112.988 156.589 112.988C157.204 112.988 157.704 113.487 157.704 114.102V138.246C157.704 138.861 157.204 139.36 156.589 139.36Z" fill="#2D2D2D"/>
<g opacity="0.1">
<path d="M153.218 138.165L155.474 114.102L156.588 139.351H154.306C153.664 139.351 153.156 138.798 153.218 138.157V138.165Z" fill="#2D2D2D"/>
</g>
</g>
<path d="M157.65 148.062C153.825 148.062 150.847 146.582 150.66 146.493C150.107 146.217 149.893 145.548 150.169 144.995C150.446 144.443 151.114 144.229 151.667 144.505C151.738 144.541 157.658 147.438 162.919 144.523C163.454 144.229 164.131 144.416 164.434 144.96C164.729 145.495 164.541 146.172 163.997 146.475C161.84 147.67 159.638 148.071 157.65 148.071V148.062Z" fill="#2D2D2D"/>
<path d="M141.672 125.791C143.789 125.791 145.505 123.276 145.505 120.174C145.505 117.072 143.789 114.557 141.672 114.557C139.554 114.557 137.838 117.072 137.838 120.174C137.838 123.276 139.554 125.791 141.672 125.791Z" fill="#2D2D2D"/>
<path d="M174.705 125.791C176.822 125.791 178.539 123.276 178.539 120.174C178.539 117.072 176.822 114.557 174.705 114.557C172.588 114.557 170.871 117.072 170.871 120.174C170.871 123.276 172.588 125.791 174.705 125.791Z" fill="#2D2D2D"/>
<path d="M146.647 112.614C146.433 112.614 146.219 112.551 146.032 112.426C145.961 112.382 141.824 109.743 134.272 110.625C133.657 110.697 133.104 110.26 133.033 109.654C132.962 109.038 133.399 108.486 134.005 108.414C142.448 107.416 147.075 110.447 147.262 110.572C147.771 110.92 147.904 111.606 147.566 112.123C147.352 112.444 146.995 112.614 146.638 112.614H146.647Z" fill="#2D2D2D"/>
<path d="M168.881 113.604C168.587 113.604 168.284 113.488 168.07 113.256C167.651 112.81 167.669 112.106 168.115 111.687C168.284 111.526 172.341 107.782 180.837 107.38C181.452 107.363 181.97 107.826 182.005 108.441C182.032 109.057 181.559 109.583 180.944 109.609C173.33 109.966 169.675 113.283 169.639 113.318C169.425 113.514 169.149 113.612 168.881 113.612V113.604Z" fill="#2D2D2D"/>
<path d="M174.729 132.531C181.298 132.531 186.623 129.589 186.623 125.96C186.623 122.332 181.298 119.39 174.729 119.39C168.161 119.39 162.836 122.332 162.836 125.96C162.836 129.589 168.161 132.531 174.729 132.531Z" fill="#2D2D2D"/>
<path d="M165.94 126.415C165.842 126.415 165.735 126.406 165.637 126.37C155.722 123.589 150.979 126.228 150.935 126.254C150.409 126.558 149.722 126.388 149.41 125.853C149.098 125.327 149.267 124.65 149.794 124.338C150.016 124.204 155.294 121.146 166.234 124.222C166.822 124.391 167.17 125.006 167.01 125.595C166.867 126.085 166.421 126.406 165.94 126.406V126.415Z" fill="#2D2D2D"/>
<path d="M186.063 125.764C185.884 125.764 185.697 125.72 185.528 125.631C184.993 125.336 184.788 124.659 185.082 124.115L189.629 115.832C189.923 115.288 190.601 115.092 191.145 115.387C191.68 115.681 191.885 116.358 191.59 116.902L187.043 125.185C186.838 125.559 186.455 125.764 186.063 125.764Z" fill="#2D2D2D"/>
<path d="M140.513 132.531C147.081 132.531 152.406 129.589 152.406 125.96C152.406 122.332 147.081 119.39 140.513 119.39C133.944 119.39 128.619 122.332 128.619 125.96C128.619 129.589 133.944 132.531 140.513 132.531Z" fill="#2D2D2D"/>
<path d="M129.172 125.764C128.78 125.764 128.396 125.559 128.191 125.185L123.644 116.902C123.35 116.358 123.546 115.681 124.09 115.387C124.625 115.092 125.303 115.288 125.606 115.832L130.153 124.115C130.447 124.659 130.251 125.336 129.707 125.631C129.538 125.72 129.35 125.764 129.172 125.764Z" fill="#2D2D2D"/>
<g clip-path="url(#clip2_211_628)">
<path d="M154.76 78.6892C158.612 84.9034 170.88 102.931 189.834 114.414L189.897 114.379L189.861 117.098C189.861 117.098 190.512 115.734 195.995 115.939C196.922 115.975 195.915 114.075 195.915 113.122C195.915 99.7837 193.178 89.183 193.178 89.183C179.947 57.3184 156.329 64.5846 150.971 66.7333C150.285 67.0097 149.562 67.1345 148.822 67.0899C145.586 66.8938 135.199 67.6427 122.824 82.7102C112.063 95.8162 115.157 106.185 115.585 117.098C115.585 117.098 117.618 115.457 123.885 115.939L124.322 105.659L124.946 105.704L137.508 106.684C138.195 106.738 138.801 106.239 138.872 105.561C139.345 101.299 143.348 83.4859 151.132 77.9046C148.876 81.676 143.5 92.1697 146.21 102.877C146.335 103.386 146.79 103.715 147.289 103.715C147.378 103.715 147.467 103.707 147.565 103.68C148.163 103.528 148.519 102.922 148.377 102.325C146.139 93.4803 150.071 84.4844 152.389 80.2406C152.192 85.0818 153.227 98.2502 168.579 107.977C168.767 108.093 168.972 108.147 169.177 108.147C169.542 108.147 169.908 107.959 170.122 107.629C170.452 107.112 170.3 106.417 169.774 106.096C152.496 95.1475 154.573 79.8572 154.769 78.6981L154.76 78.6892Z" fill="#2D2D2D"/>
<path d="M208.842 181.166C204.125 172.438 200.202 134.662 200.202 134.662C195.112 135.482 190.288 136.142 190.288 136.142C190.707 153.421 179.135 162.738 179.135 162.738L179.821 178.474C177.236 187.612 195.112 194.78 195.112 194.78L213.148 201.423C213.148 201.423 213.558 189.904 208.842 181.166Z" fill="#2D2D2D"/>
<path d="M123.181 136.142C123.181 136.142 118.358 135.482 113.267 134.662C113.267 134.662 109.344 172.429 104.628 181.166C99.9114 189.904 100.322 201.423 100.322 201.423L118.358 194.78C118.358 194.78 134.335 188.21 133.648 178.474L134.335 162.738C134.335 162.738 122.762 153.421 123.181 136.142Z" fill="#2D2D2D"/>
<path d="M116.181 90.2354C119.676 71.4234 136.17 57.1851 155.989 57.1851C175.809 57.1851 192.526 71.6106 195.869 90.6099V94.1405L115.396 94.6576L116.181 90.2265V90.2354Z" fill="#91BAF8"/>
<path d="M113.892 95.9323L114.944 90.0034C118.617 70.2552 135.878 55.9277 155.991 55.9277C176.105 55.9277 193.598 70.4246 197.111 90.3957L197.128 90.6186V95.4063L113.883 95.9412L113.892 95.9323ZM117.431 90.4581L116.905 93.3913L194.614 92.8921V90.7256C191.271 72.0205 175.044 58.4509 156 58.4509C136.957 58.4509 120.882 71.9135 117.431 90.4581Z" fill="#2D2D2D"/>
<path d="M197.269 92.3661C159.466 81.382 125.453 88.6304 114.38 91.6083C112.151 92.2056 110.6 94.3721 110.6 96.8596V104.607C110.6 108.111 113.622 110.706 116.76 109.868C129.278 106.524 159.457 100.738 193.97 110.385C196.903 111.205 199.836 109.038 200.184 105.775L200.978 98.2237C201.263 95.549 199.676 93.0615 197.269 92.3661Z" fill="#91BAF8"/>
<path d="M195.219 111.82C194.684 111.82 194.149 111.749 193.632 111.606C159.039 101.933 128.574 108.022 117.082 111.098C115.299 111.571 113.426 111.187 111.937 110.046C110.306 108.798 109.334 106.765 109.334 104.625V96.8776C109.334 93.8195 111.269 91.1537 114.041 90.4048C126.675 86.999 160.1 80.2677 197.617 91.1715C200.63 92.0453 202.574 95.0766 202.226 98.3754L201.433 105.927C201.219 107.933 200.185 109.707 198.589 110.795C197.581 111.481 196.404 111.838 195.219 111.838V111.82ZM154.706 103.841C166.564 103.841 180.089 105.196 194.309 109.172C195.29 109.449 196.315 109.279 197.171 108.691C198.152 108.022 198.794 106.917 198.927 105.642L199.721 98.0901C199.935 96.0395 198.731 94.1048 196.921 93.5788C160.02 82.8532 127.139 89.4776 114.71 92.8299C113.034 93.2846 111.866 94.9429 111.866 96.8597V104.607C111.866 105.972 112.472 107.255 113.48 108.031C114.354 108.7 115.406 108.923 116.44 108.646C123.403 106.783 137.231 103.832 154.706 103.832V103.841Z" fill="#2D2D2D"/>
<path d="M121.816 108.174C121.21 108.174 120.675 107.737 120.577 107.113C120.532 106.819 119.382 99.802 119.177 94.8716C119.15 94.1762 119.685 93.5878 120.38 93.561C121.058 93.5343 121.664 94.0692 121.691 94.7646C121.896 99.5434 123.046 106.631 123.064 106.703C123.18 107.389 122.707 108.04 122.021 108.147C121.95 108.156 121.887 108.165 121.816 108.165V108.174Z" fill="#2D2D2D"/>
<path d="M134.611 101.728C134.031 101.728 133.505 101.326 133.38 100.729C132.614 97.1718 132.872 89.1566 132.89 88.8178C132.917 88.1224 133.514 87.5607 134.192 87.5963C134.887 87.6231 135.431 88.2026 135.413 88.898C135.413 88.9783 135.155 96.94 135.85 100.194C135.993 100.872 135.565 101.549 134.878 101.692C134.789 101.71 134.7 101.719 134.611 101.719V101.728Z" fill="#2D2D2D"/>
<path d="M149.214 104.973C148.519 104.973 147.957 104.411 147.957 103.716V91.448C147.957 90.7526 148.519 90.1909 149.214 90.1909C149.91 90.1909 150.471 90.7526 150.471 91.448V103.716C150.471 104.411 149.91 104.973 149.214 104.973Z" fill="#2D2D2D"/>
<path d="M165.334 105.232C165.334 105.232 165.28 105.232 165.254 105.232C164.303 105.172 163.907 101.062 164.068 92.9014C164.086 92.206 164.692 91.6889 165.352 91.6621C166.047 91.6799 166.6 92.2505 166.591 92.946C166.511 96.8421 166.448 102.575 166.538 103.591C166.582 103.734 166.6 103.885 166.591 104.046C166.547 104.715 165.994 105.232 165.334 105.232ZM165.414 102.709C165.53 102.709 165.637 102.735 165.744 102.771C165.646 102.735 165.53 102.718 165.414 102.709Z" fill="#2D2D2D"/>
<path d="M176.416 97.796C176.416 97.796 176.362 97.796 176.345 97.796C175.649 97.7514 175.114 97.163 175.159 96.4675L175.622 88.5237C175.667 87.8283 176.255 87.3112 176.951 87.3379C177.646 87.3825 178.181 87.9709 178.137 88.6663L177.673 96.6102C177.637 97.2789 177.076 97.796 176.416 97.796Z" fill="#2D2D2D"/>
<path d="M184.298 107.63C184.253 107.63 184.2 107.63 184.155 107.63C183.46 107.55 182.969 106.926 183.05 106.23C183.05 106.159 183.879 99.0622 184.146 94.5955C184.191 93.9 184.779 93.3829 185.484 93.4097C186.179 93.4543 186.705 94.0516 186.669 94.747C186.402 99.294 185.573 106.453 185.564 106.525C185.492 107.167 184.94 107.639 184.316 107.639L184.298 107.63Z" fill="#2D2D2D"/>
<path d="M193.079 103.421C193.025 103.421 192.981 103.421 192.927 103.421C192.232 103.341 191.742 102.708 191.831 102.022C192.437 96.9753 192.66 91.082 192.66 91.0285C192.687 90.3331 193.293 89.7625 193.962 89.816C194.657 89.8427 195.201 90.4222 195.174 91.1177C195.174 91.1801 194.951 97.1803 194.327 102.325C194.247 102.967 193.703 103.43 193.079 103.43V103.421Z" fill="#2D2D2D"/>
<path d="M152.629 82.7904C151.933 82.7904 151.371 82.2287 151.371 81.5333C151.336 67.5625 153.868 62.0883 153.975 61.8654C154.278 61.2324 155.027 60.9738 155.66 61.268C156.284 61.5712 156.551 62.3201 156.257 62.9442C156.213 63.0333 153.859 68.2936 153.895 81.5244C153.895 82.2198 153.333 82.7904 152.637 82.7904H152.629Z" fill="#2D2D2D"/>
<path d="M163.106 87.9531H163.088C162.392 87.9531 161.831 87.3736 161.84 86.6782C161.84 86.5979 161.92 78.342 160.583 73.7683C160.386 73.0996 160.77 72.4042 161.438 72.2081C162.107 72.0119 162.811 72.3953 162.999 73.064C164.443 78.0032 164.363 86.3572 164.354 86.7138C164.354 87.4093 163.783 87.962 163.097 87.962L163.106 87.9531Z" fill="#2D2D2D"/>
<path d="M179.565 74.6683C179.021 74.6683 178.522 74.3117 178.352 73.7679C178.334 73.7144 176.712 68.3828 171.532 61.4821C171.113 60.9293 171.229 60.1358 171.781 59.7168C172.343 59.2977 173.128 59.4136 173.547 59.9664C179.021 67.2683 180.697 72.8228 180.768 73.0546C180.964 73.7233 180.581 74.4187 179.912 74.6148C179.797 74.6505 179.672 74.6683 179.556 74.6683H179.565Z" fill="#2D2D2D"/>
<path d="M138.71 88.3182C138.648 88.3182 138.586 88.3182 138.523 88.3004C137.837 88.2023 137.355 87.5515 137.462 86.865L138.764 78.1722C138.862 77.4857 139.504 76.9953 140.199 77.1112C140.886 77.2093 141.367 77.8601 141.26 78.5467L139.959 87.2394C139.869 87.8635 139.326 88.3182 138.71 88.3182Z" fill="#2D2D2D"/>
<path d="M121.13 90.9844C121.076 90.9844 121.014 90.9844 120.96 90.9755C120.274 90.8864 119.784 90.2444 119.882 89.5579C119.908 89.3618 120.55 84.788 123.858 78.556C124.188 77.9408 124.946 77.709 125.561 78.03C126.176 78.3598 126.408 79.1177 126.087 79.7329C122.993 85.5726 122.387 89.8521 122.378 89.8878C122.289 90.5208 121.754 90.9844 121.13 90.9844Z" fill="#2D2D2D"/>
<path d="M134.362 73.2243C134.183 73.2243 134.005 73.1886 133.827 73.1084C133.194 72.8142 132.917 72.0653 133.211 71.4323C137.304 62.6414 146.112 57.1048 147.066 56.8819C147.753 56.7214 148.422 57.1404 148.582 57.818C148.725 58.4421 148.386 59.0573 147.806 59.2802C147.396 59.512 139.39 64.1303 135.494 72.4843C135.28 72.939 134.825 73.2154 134.353 73.2154L134.362 73.2243Z" fill="#2D2D2D"/>
<path d="M185.395 90.4937C185.395 90.4937 185.341 90.4937 185.314 90.4937C184.619 90.4491 184.093 89.8518 184.128 89.1564L184.432 84.0833C184.467 83.5127 184.048 83.0046 183.487 82.9332L171.424 81.2571C171.103 81.2036 170.791 81.3017 170.55 81.5156C170.309 81.7296 170.175 82.0149 170.175 82.3359C170.175 84.3597 170.175 86.8115 170.175 87.0344C170.175 87.7299 169.632 88.3005 168.927 88.3094C168.276 88.3094 167.661 87.7655 167.652 87.0612C167.652 86.8294 167.652 84.3597 167.652 82.327C167.652 81.2838 168.107 80.2853 168.892 79.5988C169.685 78.9123 170.728 78.6002 171.762 78.7429L183.825 80.419C185.689 80.6776 187.053 82.3448 186.937 84.226L186.634 89.299C186.589 89.9677 186.036 90.4848 185.377 90.4848L185.395 90.4937Z" fill="#2D2D2D"/>
</g>
<defs>
<clipPath id="clip0_211_628">
<rect width="186.025" height="191.116" fill="white" transform="translate(63.1699 59.4941)"/>
</clipPath>
<clipPath id="clip1_211_628">
<rect width="4.48458" height="26.3725" fill="white" transform="translate(153.219 112.988)"/>
</clipPath>
<clipPath id="clip2_211_628">
<rect width="189.039" height="196.234" fill="white" transform="translate(60.4941 55.9277)"/>
</clipPath>
</defs>
</svg>
