<svg width="310" height="296" viewBox="0 0 310 296" fill="none" xmlns="http://www.w3.org/2000/svg">
<rect width="310" height="250" rx="10" fill="#DF7B33"/>
<g clip-path="url(#clip0_211_627)">
<path d="M249.589 249.105L249.706 250.332H60.3203L60.7053 248.917C64.7252 234.234 82.1301 202.835 104.155 196.756C104.477 196.667 104.79 196.577 105.113 196.488L105.731 198.627C105.408 198.726 105.077 198.824 104.746 198.914C85.1652 204.322 68.0737 232.569 63.2748 248.093H138.445V239.463H171.769V233.956H174.007V248.093H247.217C245.086 233.366 228.46 204.474 208.306 198.914C203.615 197.625 199.577 196.112 196.103 194.554C196.497 195.843 196.838 197.177 197.133 198.529L194.975 199.012C194.053 194.778 192.683 190.802 190.642 187.946C186.201 181.733 183.005 179.262 181.277 178.295C181.752 182.386 182.53 192.208 180.4 199.988L178.242 199.433C179.092 196.309 179.451 192.763 179.54 189.424C179.397 189.8 179.236 190.176 179.066 190.552L178.305 190.176C179.155 188.358 179.639 186.424 179.334 184.428C179.307 184.249 179.37 184.114 179.477 184.016C179.28 179.844 178.824 176.809 178.815 176.728L178.6 175.34L180.006 175.448C180.48 175.475 184.921 176.083 192.459 186.648C193.48 188.072 194.349 189.746 195.074 191.572C198.852 193.426 203.427 195.252 208.897 196.756C229.875 202.549 248.049 232.506 249.589 249.105ZM171.769 248.093V246.294H140.684V248.093H171.769Z" fill="#2D2D2D"/>
<path d="M247.217 248.093H174.008V218.521L181.358 215.522C181.788 215.343 182.272 215.37 182.674 215.576L196.015 222.514C196.31 222.667 196.632 222.738 196.955 222.738C197.313 222.738 197.662 222.649 197.984 222.461C198.593 222.102 198.96 221.458 198.978 220.76C199.068 216.999 199.041 207.312 197.134 198.529C196.838 197.177 196.498 195.843 196.104 194.554C199.578 196.112 203.616 197.625 208.307 198.914C228.461 204.474 245.087 233.366 247.217 248.093Z" fill="#ADB923"/>
<path d="M197.133 198.529C199.041 207.312 199.067 216.999 198.978 220.76C198.96 221.458 198.593 222.102 197.984 222.461C197.662 222.649 197.313 222.738 196.954 222.738C196.632 222.738 196.31 222.667 196.014 222.514L182.674 215.576C182.271 215.37 181.788 215.343 181.358 215.522L174.008 218.521V221.619H140.684V227.125H138.446V218.521L131.095 215.522C130.666 215.343 130.191 215.37 129.779 215.576L116.439 222.514C116.144 222.667 115.821 222.738 115.499 222.738C115.15 222.738 114.792 222.649 114.469 222.461C113.86 222.102 113.493 221.458 113.475 220.751C113.386 216.462 113.422 204.456 116.242 194.885C113.198 196.21 109.706 197.499 105.731 198.627L105.113 196.488C109.823 195.136 113.843 193.56 117.236 191.957C117.997 189.979 118.901 188.17 119.993 186.648C127.532 176.083 131.973 175.475 132.456 175.448L133.853 175.34L133.638 176.728C133.629 176.791 133.351 178.653 133.137 181.446C133.593 183.559 134.095 185.663 134.685 187.749C135.375 190.185 136.172 192.557 137.658 194.634C139.959 197.884 143.442 200.239 147.166 201.555C151.768 203.176 156.782 203.256 161.563 202.531C163.926 202.164 166.353 201.698 168.591 200.848C170.829 200.006 172.468 198.457 173.936 196.613C175.44 194.715 177.186 192.539 178.305 190.176L179.066 190.552C178.887 190.919 178.708 191.286 178.502 191.644C177.213 193.945 175.565 196.138 173.837 198.126C172.226 199.988 170.328 201.26 167.973 202.003C165.538 202.782 162.968 203.265 160.426 203.578C155.537 204.178 150.425 203.892 145.832 201.994C142 200.418 138.535 197.804 136.333 194.258C135.053 192.208 134.345 189.889 133.701 187.57C133.432 186.603 133.199 185.627 132.957 184.652C132.787 189.003 132.931 194.437 134.121 199.048C135.411 200.436 144.31 209.488 156.164 209.792C163.846 209.998 171.286 206.506 178.242 199.433L180.4 199.988C179.747 202.397 178.806 204.617 177.49 206.408C175.019 209.765 173.703 214.009 173.103 216.48L180.516 213.445C180.982 213.257 181.466 213.167 181.958 213.167C182.558 213.167 183.158 213.311 183.704 213.588L196.749 220.375C196.82 216.48 196.757 207.258 194.976 199.012L197.133 198.529ZM175.682 205.083C175.843 204.859 175.995 204.626 176.147 204.393C170.006 209.47 163.523 212.039 156.8 212.039C156.558 212.039 156.325 212.03 156.092 212.03C147.22 211.788 140.057 207.196 135.975 203.838C136.225 204.268 136.485 204.689 136.772 205.083C139.108 208.261 140.478 212.102 141.23 214.797H171.223C171.975 212.102 173.345 208.261 175.682 205.083ZM131.937 213.445L139.35 216.48C138.75 214.009 137.434 209.765 134.963 206.408C129.403 198.842 130.558 183.658 131.176 178.295C129.448 179.262 126.252 181.733 121.811 187.946C115.794 196.371 115.597 214.474 115.705 220.375L128.75 213.588C129.743 213.078 130.898 213.024 131.937 213.445Z" fill="#2D2D2D"/>
<path d="M194.976 199.013C196.758 207.259 196.82 216.48 196.749 220.375L183.704 213.589C183.158 213.311 182.558 213.168 181.958 213.168C181.466 213.168 180.982 213.257 180.517 213.445L173.104 216.48C173.703 214.009 175.019 209.766 177.491 206.408C178.807 204.618 179.747 202.397 180.4 199.989C182.531 192.209 181.752 182.387 181.278 178.295C183.006 179.262 186.202 181.733 190.643 187.947C192.684 190.803 194.054 194.778 194.976 199.013Z" fill="#ADB923"/>
<path d="M179.066 190.552C179.236 190.176 179.397 189.8 179.541 189.424C179.451 192.764 179.093 196.309 178.242 199.434C171.286 206.507 163.846 209.999 156.164 209.793C144.31 209.488 135.411 200.437 134.121 199.049C132.931 194.438 132.787 189.004 132.957 184.652C133.199 185.628 133.432 186.604 133.701 187.571C134.345 189.89 135.052 192.209 136.333 194.259C138.535 197.804 142 200.419 145.832 201.995C150.425 203.893 155.537 204.179 160.426 203.579C162.968 203.266 165.538 202.782 167.973 202.003C170.328 201.26 172.226 199.989 173.837 198.127C175.565 196.139 177.213 193.946 178.502 191.645C178.708 191.287 178.887 190.92 179.066 190.552Z" fill="#2D2D2D"/>
<path d="M176.147 204.393C175.995 204.626 175.843 204.859 175.682 205.083C173.345 208.261 171.975 212.102 171.223 214.797H141.23C140.478 212.102 139.108 208.261 136.771 205.083C136.485 204.689 136.225 204.268 135.975 203.838C140.057 207.196 147.22 211.789 156.092 212.03C156.325 212.03 156.558 212.039 156.8 212.039C163.523 212.039 170.005 209.47 176.147 204.393Z" fill="#2D2D2D"/>
<path d="M174.007 221.619V233.957H171.769H140.684V239.463H138.445V227.125H140.684H171.769V221.619H174.007Z" fill="#2D2D2D"/>
<path d="M171.769 246.294H140.684V248.094H171.769V246.294Z" fill="#2D2D2D"/>
<path d="M171.769 233.957H140.684V239.463H171.769V233.957Z" fill="#2D2D2D"/>
<path d="M171.769 221.619H140.684V227.125H171.769V221.619Z" fill="#2D2D2D"/>
<path d="M139.35 216.48L131.937 213.445C130.899 213.025 129.744 213.078 128.75 213.589L115.705 220.375C115.598 214.475 115.795 196.372 121.811 187.947C126.252 181.733 129.448 179.262 131.176 178.295C130.558 183.658 129.403 198.843 134.963 206.408C137.434 209.766 138.75 214.009 139.35 216.48Z" fill="#ADB923"/>
<path d="M138.446 239.463V248.094H63.2754C68.0743 232.569 85.1658 204.322 104.746 198.914C105.078 198.825 105.409 198.726 105.731 198.628C109.706 197.5 113.198 196.21 116.242 194.885C113.422 204.456 113.386 216.462 113.476 220.751C113.493 221.458 113.861 222.103 114.469 222.461C114.792 222.649 115.15 222.738 115.499 222.738C115.821 222.738 116.144 222.667 116.439 222.515L129.779 215.576C130.191 215.37 130.666 215.343 131.095 215.522L138.446 218.522V239.463Z" fill="#ADB923"/>
</g>
<path d="M203.105 122.956C203.159 123.323 203.186 123.69 203.186 124.067C203.186 129.134 198.673 133.243 193.113 133.243C192.442 133.243 191.779 133.163 191.135 133.046V123.807C191.242 123.762 191.35 123.708 191.439 123.628C191.502 123.583 192.03 123.153 192.899 122.795C192.845 124.398 193.489 126.403 195.952 127.934C196.14 128.042 196.337 128.095 196.542 128.095C196.918 128.095 197.286 127.907 197.491 127.567C197.823 127.039 197.653 126.35 197.133 126.027C195.02 124.72 195.029 123.135 195.208 122.312C196.614 122.285 198.324 122.724 200.186 124.219C200.392 124.389 200.643 124.469 200.885 124.469C201.216 124.469 201.538 124.326 201.762 124.049C201.986 123.771 202.058 123.422 201.986 123.109L203.105 122.956Z" fill="#EBC4B3"/>
<path d="M203.105 122.956L201.986 123.108C201.932 122.866 201.798 122.643 201.592 122.472C197.402 119.106 193.409 119.885 191.135 121.147V115.095C191.788 114.97 192.442 114.889 193.113 114.889C198.261 114.889 202.514 118.417 203.105 122.956Z" fill="#EBC4B3"/>
<path d="M193.114 112.651C199.901 112.651 205.425 117.772 205.425 124.066C205.425 130.36 199.901 135.481 193.114 135.481C192.452 135.481 191.789 135.428 191.135 135.329V136.153C191.135 145.813 187.106 154.542 180.651 160.774H180.795V182.87C180.795 194.975 170.946 204.823 158.841 204.823H153.953C141.848 204.823 132 194.975 132 182.87V159.664C131.391 159.019 130.8 158.365 130.245 157.676C125.339 151.606 122.644 143.969 122.644 136.153V135.32C121.964 135.428 121.283 135.481 120.594 135.481C113.807 135.481 108.283 130.36 108.283 124.066C108.283 117.772 113.807 112.651 120.594 112.651C121.283 112.651 121.964 112.713 122.644 112.821V103.921C122.644 85.0393 138.008 69.6758 156.89 69.6758C175.772 69.6758 191.135 85.0393 191.135 103.921V112.803C191.789 112.713 192.452 112.651 193.114 112.651ZM203.186 124.066C203.186 123.69 203.159 123.323 203.106 122.956C202.515 118.417 198.262 114.889 193.114 114.889C192.443 114.889 191.789 114.97 191.135 115.095V121.147C193.41 119.885 197.403 119.106 201.593 122.472C201.799 122.642 201.933 122.866 201.987 123.108C202.058 123.421 201.987 123.771 201.763 124.048C201.539 124.326 201.217 124.469 200.885 124.469C200.644 124.469 200.393 124.388 200.187 124.218C198.325 122.723 196.615 122.284 195.209 122.311C195.03 123.135 195.021 124.72 197.134 126.027C197.653 126.349 197.823 127.038 197.492 127.567C197.286 127.907 196.919 128.095 196.543 128.095C196.337 128.095 196.14 128.041 195.952 127.934C193.49 126.403 192.845 124.397 192.899 122.795C192.031 123.153 191.502 123.583 191.44 123.627C191.35 123.708 191.243 123.762 191.135 123.806V133.046C191.78 133.162 192.443 133.243 193.114 133.243C198.674 133.243 203.186 129.133 203.186 124.066ZM188.897 136.153V103.921C188.897 86.2749 174.536 71.9141 156.89 71.9141C139.243 71.9141 124.882 86.2749 124.882 103.921V136.153C124.882 143.458 127.398 150.594 131.982 156.261C138.097 163.827 147.176 168.16 156.89 168.16C174.536 168.16 188.897 153.808 188.897 136.153ZM178.556 182.87V162.654C172.647 167.489 165.1 170.398 156.89 170.398C148.68 170.398 140.443 167.336 134.238 161.848V182.87C134.238 193.739 143.084 202.585 153.953 202.585H158.841C169.711 202.585 178.556 193.739 178.556 182.87ZM122.644 133.037V123.359C122.25 123.135 121.614 122.822 120.8 122.589C120.925 124.227 120.334 126.34 117.756 127.934C117.577 128.041 117.371 128.095 117.174 128.095C116.798 128.095 116.431 127.907 116.216 127.567C115.893 127.038 116.055 126.349 116.583 126.027C118.714 124.711 118.687 123.099 118.49 122.284C117.012 122.32 115.293 122.795 113.521 124.218C113.315 124.388 113.073 124.469 112.822 124.469C112.5 124.469 112.169 124.326 111.954 124.048C111.73 123.771 111.659 123.421 111.73 123.108C111.784 122.866 111.918 122.642 112.124 122.472C116.028 119.33 120.074 119.786 122.644 120.861V115.104C121.973 114.979 121.283 114.889 120.594 114.889C115.455 114.889 111.202 118.417 110.602 122.956C110.548 123.323 110.521 123.69 110.521 124.066C110.521 129.133 115.043 133.243 120.594 133.243C121.292 133.243 121.973 133.162 122.644 133.037Z" fill="#2D2D2D"/>
<path d="M188.896 103.921V136.153C188.896 153.808 174.535 168.16 156.888 168.16C147.174 168.16 138.096 163.827 131.981 156.261C127.397 150.594 124.881 143.458 124.881 136.153V103.921C124.881 86.2749 139.233 71.9141 156.888 71.9141C174.544 71.9141 188.896 86.2749 188.896 103.921Z" fill="#EBC4B3"/>
<path d="M178.556 162.654V182.87C178.556 193.739 169.711 202.585 158.841 202.585H153.953C143.084 202.585 134.238 193.739 134.238 182.87V161.848C140.443 167.336 148.438 170.398 156.89 170.398C165.341 170.398 172.647 167.489 178.556 162.654Z" fill="#EBC4B3"/>
<path d="M122.644 123.359V133.037C121.973 133.163 121.292 133.243 120.594 133.243C115.043 133.243 110.521 129.134 110.521 124.066C110.521 123.69 110.548 123.323 110.602 122.956L111.73 123.108C111.659 123.422 111.73 123.771 111.954 124.048C112.169 124.326 112.5 124.469 112.822 124.469C113.073 124.469 113.315 124.389 113.521 124.219C115.293 122.795 117.013 122.32 118.49 122.285C118.687 123.099 118.714 124.711 116.583 126.027C116.055 126.349 115.893 127.039 116.216 127.567C116.431 127.907 116.798 128.095 117.174 128.095C117.371 128.095 117.577 128.042 117.756 127.934C120.334 126.34 120.925 124.227 120.8 122.589C121.614 122.822 122.25 123.135 122.644 123.359Z" fill="#EBC4B3"/>
<path d="M122.644 115.104V120.861C120.074 119.787 116.027 119.33 112.124 122.472C111.918 122.643 111.783 122.866 111.73 123.108L110.602 122.956C111.201 118.417 115.454 114.889 120.593 114.889C121.283 114.889 121.972 114.979 122.644 115.104Z" fill="#EBC4B3"/>
<g opacity="0.6">
<path d="M172.782 165.931C172.513 166.092 172.227 166.244 171.904 166.36C165.789 168.626 157.364 170.121 150.873 168.885C145.108 167.793 137.309 164.534 133.164 160.093L134.104 180.676C134.104 180.676 159.253 181.232 176.014 164.597C174.993 165.143 173.901 165.582 172.773 165.931H172.782Z" fill="#2D2D2D"/>
</g>
<g clip-path="url(#clip1_211_627)">
<path d="M156.594 137.299C155.976 137.299 155.475 136.797 155.475 136.18V111.935C155.475 111.317 155.976 110.815 156.594 110.815C157.212 110.815 157.713 111.317 157.713 111.935V136.18C157.713 136.797 157.212 137.299 156.594 137.299Z" fill="#2D2D2D"/>
<g opacity="0.1">
<path d="M153.21 136.1L155.475 111.935L156.595 137.29H154.303C153.658 137.29 153.148 136.735 153.21 136.091V136.1Z" fill="#2D2D2D"/>
</g>
</g>
<path d="M166.63 145.84H147.014C146.396 145.84 145.895 145.339 145.895 144.721C145.895 144.103 146.396 143.602 147.014 143.602H166.63C167.248 143.602 167.749 144.103 167.749 144.721C167.749 145.339 167.248 145.84 166.63 145.84Z" fill="#2D2D2D"/>
<path d="M129.932 118.873L127.693 112.158C129.335 111.711 134.05 110.815 139.78 110.815C145.51 110.815 150.225 112.606 151.867 113.501C151.867 115.889 151.777 121.112 151.419 122.902C150.971 125.14 146.495 129.617 138.885 129.169C132.797 128.811 130.379 122.156 129.932 118.873Z" fill="white" fill-opacity="0.35"/>
<path d="M184.098 118.873L186.336 112.158C184.695 111.711 179.979 110.815 174.249 110.815C168.519 110.815 163.804 112.606 162.163 113.501C162.163 115.889 162.252 121.112 162.61 122.902C163.058 125.14 167.534 129.617 175.145 129.169C181.233 128.811 183.65 122.156 184.098 118.873Z" fill="white" fill-opacity="0.35"/>
<path d="M141.078 123.206C143.205 123.206 144.928 121.086 144.928 118.47C144.928 115.854 143.205 113.734 141.078 113.734C138.952 113.734 137.229 115.854 137.229 118.47C137.229 121.086 138.952 123.206 141.078 123.206Z" fill="#2D2D2D"/>
<path d="M173.174 122.974C175.3 122.974 177.024 120.853 177.024 118.238C177.024 115.622 175.3 113.501 173.174 113.501C171.048 113.501 169.324 115.622 169.324 118.238C169.324 120.853 171.048 122.974 173.174 122.974Z" fill="#2D2D2D"/>
<path d="M191.448 114.316L190.696 110.923L189.049 111.299V110.95L187.867 110.52C187.616 110.43 181.654 108.335 170.408 109.15C169.361 109.132 163.389 109.15 160.766 111.836C160.757 111.845 160.748 111.854 160.739 111.872C157.596 110.941 154.534 111.496 152.887 111.952C152.851 111.917 152.833 111.872 152.798 111.836C150.174 109.15 144.203 109.132 143.155 109.15C131.91 108.344 125.947 110.43 125.696 110.52L124.515 110.95V111.299L122.867 110.923L122.115 114.316L124.515 115.668V116.16L125.813 117.002C126.583 117.503 127.174 118.291 127.46 119.205C127.595 119.625 127.711 120.082 127.836 120.556C128.83 124.326 130.486 130.629 140.46 130.629C153.773 130.629 153.97 121.147 154.06 116.59C154.069 116.134 154.078 115.713 154.096 115.319C155.313 115.006 157.382 114.674 159.441 115.211C159.441 115.229 159.441 115.247 159.441 115.274C159.459 115.677 159.468 116.125 159.477 116.599C159.575 121.156 159.772 130.638 173.076 130.638C183.059 130.638 184.715 124.335 185.7 120.565C185.826 120.082 185.942 119.625 186.076 119.213C186.363 118.291 186.945 117.512 187.715 117.011L189.013 116.16V115.668L191.412 114.316H191.448ZM150.497 116.528C150.389 121.461 150.273 127.056 140.478 127.056C133.262 127.056 132.268 123.296 131.31 119.652C131.167 119.115 131.033 118.605 130.889 118.139C130.719 117.611 130.486 117.109 130.209 116.635L129.645 113.242C132.268 112.767 136.763 112.266 142.985 112.722H143.075H143.164C145.402 112.669 149.073 113.134 150.237 114.334C150.461 114.567 150.55 114.791 150.532 115.095C150.515 115.534 150.497 116.017 150.488 116.528H150.497ZM182.271 119.652C181.313 123.287 180.328 127.056 173.103 127.056C163.3 127.056 163.183 121.461 163.076 116.528C163.067 116.017 163.058 115.534 163.031 115.095C163.013 114.791 163.103 114.567 163.326 114.334C164.437 113.197 167.803 112.722 170.05 112.722C170.176 112.722 170.292 112.722 170.399 112.722H170.489H170.578C176.81 112.266 181.295 112.758 183.919 113.242L183.355 116.635C183.086 117.109 182.844 117.611 182.674 118.139C182.531 118.605 182.397 119.115 182.253 119.652H182.271Z" fill="#2D2D2D"/>
<g clip-path="url(#clip2_211_627)">
<path d="M203.973 145.652C202.961 141.623 201.403 137.29 199.944 132.634C199.944 132.634 199.039 133.673 196.166 134.398C193.292 135.123 190.436 134.488 190.436 134.488L190.015 136.574C190.015 151.382 179.244 161.195 179.244 161.195V176.218C197.132 176.711 209.452 167.337 203.991 145.652H203.973Z" fill="#2D2D2D"/>
<path d="M122.778 136.574L122.358 134.488C122.358 134.488 119.502 135.123 116.628 134.398C113.754 133.673 112.849 132.634 112.849 132.634C111.39 137.29 109.832 141.614 108.821 145.652C103.359 167.337 115.67 176.711 133.567 176.218V161.195C133.567 161.195 122.796 151.382 122.796 136.574H122.778Z" fill="#2D2D2D"/>
<path d="M154.758 76.7849C158.626 83.0252 170.945 101.128 189.98 112.66L190.042 112.624L190.006 115.355C190.006 115.355 190.66 113.985 196.166 114.191C197.097 114.227 196.086 112.32 196.086 111.362C196.086 97.968 193.337 87.3227 193.337 87.3227C180.06 55.3242 156.334 62.621 150.953 64.7698C150.264 65.0473 149.538 65.1727 148.795 65.1279C145.545 64.931 135.115 65.683 122.688 80.8138C111.881 93.9749 114.988 104.387 115.418 115.346C115.418 115.346 117.459 113.699 123.753 114.182L124.192 103.859L124.819 103.904L137.434 104.889C138.123 104.942 138.732 104.441 138.804 103.761C139.278 99.4811 143.298 81.5927 151.114 75.9881C148.849 79.7752 143.45 90.3131 146.172 101.075C146.297 101.585 146.754 101.916 147.255 101.916C147.345 101.916 147.434 101.907 147.533 101.88C148.133 101.728 148.491 101.119 148.348 100.52C146.1 91.6381 150.049 82.6134 152.376 78.3427C152.179 83.2043 153.218 96.428 168.635 106.196C168.823 106.312 169.029 106.366 169.235 106.366C169.602 106.366 169.969 106.178 170.184 105.847C170.515 105.327 170.363 104.629 169.835 104.307C152.484 93.3124 154.57 77.9577 154.767 76.7938L154.758 76.7849Z" fill="#2D2D2D"/>
<path d="M140.147 54.2767C139.466 54.5095 122.375 59.1562 116.09 80.3034L115.141 88.5134V100.323C115.141 100.323 111.434 106.133 116.591 109.312C121.748 112.49 126.001 114.818 135.805 105.363C145.608 95.9177 154.239 95.8729 154.239 95.8729C154.239 95.8729 165.69 96.9652 175.915 108.828C175.915 108.828 184.241 114.594 193.337 108.3C193.337 108.3 197.894 104.226 193.337 99.2035C193.337 99.2035 195.817 84.8875 190.813 74.1079C185.808 63.3284 172.45 54.6706 162.718 52.9964C162.718 52.9964 164.58 46.4338 154.23 45.6728C143.88 44.9028 145.742 52.8352 145.742 52.8352L140.129 54.2677L140.147 54.2767Z" fill="#2D2D2D"/>
<path d="M194.234 100.331C193.616 100.331 193.115 99.8299 193.115 99.2122V88.5221C193.115 69.3625 177.617 53.7661 158.573 53.7661H151.697C132.645 53.7661 117.156 69.3535 117.156 88.5221V99.2122C117.156 99.8299 116.655 100.331 116.037 100.331C115.419 100.331 114.918 99.8299 114.918 99.2122V88.5221C114.918 68.1269 131.419 51.5278 151.697 51.5278H158.573C178.852 51.5278 195.353 68.1269 195.353 88.5221V99.2122C195.353 99.8299 194.851 100.331 194.234 100.331Z" fill="#2D2D2D"/>
<path d="M147.945 53.9633C147.685 53.9633 147.425 53.8737 147.211 53.6857C146.109 52.7188 145.527 51.5728 145.527 50.3552C145.527 47.1052 149.744 44.5625 155.134 44.5625C160.524 44.5625 164.741 47.1052 164.741 50.3552C164.741 51.4654 164.248 52.5397 163.308 53.453C162.87 53.8827 162.162 53.8737 161.724 53.435C161.294 52.9963 161.303 52.2801 161.741 51.8503C162.243 51.3669 162.494 50.8565 162.494 50.3552C162.494 48.672 159.467 46.8008 155.125 46.8008C150.783 46.8008 147.757 48.672 147.757 50.3552C147.757 51.0535 148.258 51.6355 148.679 52.0025C149.144 52.4054 149.189 53.1127 148.786 53.5783C148.562 53.829 148.258 53.9633 147.945 53.9633Z" fill="#2D2D2D"/>
<path d="M125.374 113C122.223 113 118.776 111.89 115.338 109.186C112.93 107.288 112.339 103.823 113.995 101.307C122.778 87.9671 137.506 80.0078 153.389 80.0078H156.88C172.763 80.0078 187.491 87.9671 196.274 101.307C197.931 103.823 197.34 107.279 194.931 109.186C189.362 113.573 180.696 115.194 174.822 108.38C165.699 97.7887 157.292 97.0277 156.845 97.0008H153.389C153.389 97.0008 144.785 97.5559 135.447 108.38C133.11 111.093 129.502 113 125.374 113ZM153.389 82.255C138.258 82.255 124.228 89.8383 115.866 102.543C114.846 104.101 115.222 106.24 116.726 107.431C120.146 110.117 128.096 113.484 133.755 106.921C143.773 95.2908 152.959 94.7805 153.344 94.7626H156.907H156.934C157.319 94.7805 166.505 95.2908 176.524 106.921C182.182 113.484 190.132 110.126 193.552 107.431C195.057 106.24 195.433 104.101 194.412 102.543C186.041 89.8383 172.011 82.255 156.889 82.255H153.398H153.389Z" fill="#2D2D2D"/>
<path d="M181.339 89.3191C180.721 89.3191 180.22 88.8177 180.22 88.1999V71.7262C180.22 62.4686 171.866 56.4342 171.786 56.3716C171.285 56.0134 171.159 55.3151 171.517 54.8137C171.875 54.3123 172.574 54.187 173.075 54.5451C173.46 54.8137 182.458 61.2958 182.458 71.7262V88.1999C182.458 88.8177 181.957 89.3191 181.339 89.3191Z" fill="#2D2D2D"/>
<path d="M128.9 89.3191C128.283 89.3191 127.781 88.8177 127.781 88.2V71.7262C127.781 61.2958 136.779 54.8137 137.164 54.5452C137.666 54.187 138.364 54.3034 138.722 54.8137C139.08 55.3151 138.964 56.0135 138.453 56.3716C138.373 56.4343 130.02 62.4687 130.02 71.7262V88.2C130.02 88.8177 129.518 89.3191 128.9 89.3191Z" fill="#2D2D2D"/>
<path d="M154.023 76.3102H150.63C150.137 76.3102 149.734 75.9073 149.734 75.4148C149.734 74.9224 150.137 74.5195 150.63 74.5195H154.023C154.515 74.5195 154.918 74.9224 154.918 75.4148C154.918 75.9073 154.515 76.3102 154.023 76.3102Z" fill="#2D2D2D"/>
<path d="M160.837 76.3102H157.444C156.952 76.3102 156.549 75.9073 156.549 75.4148C156.549 74.9224 156.952 74.5195 157.444 74.5195H160.837C161.33 74.5195 161.733 74.9224 161.733 75.4148C161.733 75.9073 161.33 76.3102 160.837 76.3102Z" fill="#2D2D2D"/>
<path d="M151.069 71.9409C150.577 71.9409 150.174 71.538 150.174 71.0456V58.368C150.174 57.8755 150.577 57.4727 151.069 57.4727C151.562 57.4727 151.964 57.8755 151.964 58.368V71.0456C151.964 71.538 151.562 71.9409 151.069 71.9409Z" fill="#2D2D2D"/>
<path d="M160.891 71.9414H149.378C148.885 71.9414 148.482 71.5385 148.482 71.0461C148.482 70.5537 148.885 70.1508 149.378 70.1508H159.996V68.2796C159.996 67.7872 160.399 67.3843 160.891 67.3843C161.384 67.3843 161.787 67.7872 161.787 68.2796V71.0461C161.787 71.5385 161.384 71.9414 160.891 71.9414Z" fill="#2D2D2D"/>
<path d="M152.331 76.31C152.25 76.31 152.17 76.301 152.08 76.2741C151.606 76.1398 151.328 75.6385 151.471 75.164L154.945 63.0772C155.053 62.6923 155.411 62.4326 155.805 62.4326C156.208 62.4326 156.557 62.7012 156.664 63.0862L159.995 75.1729C160.129 75.6474 159.843 76.1398 159.368 76.2741C158.885 76.4084 158.401 76.1219 158.267 75.6474L155.778 66.6227L153.181 75.6564C153.065 76.0503 152.707 76.301 152.322 76.301L152.331 76.31Z" fill="#2D2D2D"/>
</g>
<defs>
<clipPath id="clip0_211_627">
<rect width="189.833" height="206.88" fill="white" transform="translate(60.0977 43.667)"/>
</clipPath>
<clipPath id="clip1_211_627">
<rect width="4.50342" height="26.4833" fill="white" transform="translate(153.209 110.815)"/>
</clipPath>
<clipPath id="clip2_211_627">
<rect width="189.833" height="206.88" fill="white" transform="translate(60.0977 44.5625)"/>
</clipPath>
</defs>
</svg>
