<svg width="210" height="55" viewBox="0 0 210 55" fill="none" xmlns="http://www.w3.org/2000/svg">
<rect y="19.5557" width="2" height="15.8889" rx="1" fill="#FA6232"/>
<rect x="4" y="24.4443" width="2" height="6.11111" rx="1" fill="#FA6232"/>
<rect x="8" y="22.6108" width="2" height="9.77778" rx="1" fill="#FA6232"/>
<rect x="12" y="19.5557" width="2" height="15.8889" rx="1" fill="#FA6232"/>
<rect x="16" y="16.5" width="2" height="21.3889" rx="1" fill="#FA6232"/>
<rect x="20" y="20.167" width="2" height="14.0556" rx="1" fill="#FA6232"/>
<rect x="24" y="11.6108" width="2" height="31.1667" rx="1" fill="#FA6232"/>
<rect x="28" y="5.50049" width="2" height="44" rx="1" fill="#FA6232"/>
<rect x="32" y="17.1113" width="2" height="20.1667" rx="1" fill="#FA6232"/>
<rect x="36" y="19.5557" width="2" height="15.8889" rx="1" fill="#FA6232"/>
<rect x="40" y="25.0552" width="2" height="4.88889" rx="1" fill="#FA6232"/>
<rect x="44" y="25.0552" width="2" height="4.88889" rx="1" fill="#FA6232"/>
<rect x="48" y="25.0552" width="2" height="4.88889" rx="1" fill="#FA6232"/>
<rect x="52" y="23.8335" width="2" height="6.72222" rx="1" fill="#FA6232"/>
<rect x="56" y="23.2227" width="2" height="8.55556" rx="1" fill="#FA6232"/>
<rect x="60" y="17.1113" width="2" height="20.7778" rx="1" fill="#FA6232"/>
<rect x="64" y="12.2227" width="2" height="30.5556" rx="1" fill="#FA6232"/>
<rect x="68" y="16.5" width="2" height="22" rx="1" fill="#FA6232"/>
<rect x="72" y="23.8335" width="2" height="7.33333" rx="1" fill="#FA6232"/>
<rect x="76" y="21.9995" width="2" height="11" rx="1" fill="#FA6232"/>
<rect x="80" y="16.5" width="2" height="21.3889" rx="1" fill="#FA6232"/>
<rect x="84" y="21.3887" width="2" height="11.6111" rx="1" fill="#FA6232"/>
<rect x="88" y="21.9995" width="2" height="10.3889" rx="1" fill="#FA6232"/>
<rect x="92" y="15.2773" width="2" height="23.8333" rx="1" fill="#FA6232"/>
<rect x="96" width="2" height="55" rx="1" fill="#FA6232"/>
<rect x="100" y="13.4443" width="2" height="28.1111" rx="1" fill="#FA6232"/>
<rect x="104" y="19.5557" width="2" height="15.8889" rx="1" fill="#FA6232"/>
<rect x="108" y="23.2227" width="2" height="8.55556" rx="1" fill="#FA6232"/>
<rect x="112" y="21.3887" width="2" height="11.6111" rx="1" fill="#FA6232"/>
<rect x="116" y="23.8335" width="2" height="6.72222" rx="1" fill="#FA6232"/>
<rect x="120" y="23.8335" width="2" height="6.72222" rx="1" fill="#FA6232"/>
<rect x="124" y="17.7222" width="2" height="19.5556" rx="1" fill="#FA6232"/>
<rect x="128" y="19.5557" width="2" height="15.8889" rx="1" fill="#FA6232"/>
<rect x="132" y="21.9995" width="2" height="11" rx="1" fill="#FA6232"/>
<rect x="136" y="15.2773" width="2" height="23.8333" rx="1" fill="#FA6232"/>
<rect x="140" y="13.4443" width="2" height="28.1111" rx="1" fill="#FA6232"/>
<rect x="144" y="16.5" width="2" height="22" rx="1" fill="#FA6232"/>
<rect x="148" y="19.5557" width="2" height="15.8889" rx="1" fill="#FA6232"/>
<rect x="152" y="21.9995" width="2" height="10.3889" rx="1" fill="#FA6232"/>
<rect x="156" y="11.6108" width="2" height="31.1667" rx="1" fill="#FA6232"/>
<rect x="160" y="17.7222" width="2" height="18.9444" rx="1" fill="#FA6232"/>
<rect x="164" y="14.6665" width="2" height="25.6667" rx="1" fill="#FA6232"/>
<rect x="168" y="22.6108" width="2" height="9.16667" rx="1" fill="#FA6232"/>
<rect x="172" y="21.3887" width="2" height="11.6111" rx="1" fill="#FA6232"/>
<rect x="176" y="16.5" width="2" height="22" rx="1" fill="#FA6232"/>
<rect x="180" y="21.9995" width="2" height="10.3889" rx="1" fill="#FA6232"/>
<rect x="184" y="9.77783" width="2" height="35.4444" rx="1" fill="#FA6232"/>
<rect x="188" y="15.2773" width="2" height="24.4444" rx="1" fill="#FA6232"/>
<rect x="192" y="25.0552" width="2" height="4.88889" rx="1" fill="#FA6232"/>
<rect x="196" y="25.0552" width="2" height="4.88889" rx="1" fill="#FA6232"/>
<rect x="200" y="24.4443" width="2" height="5.5" rx="1" fill="#FA6232"/>
<rect x="204" y="21.3887" width="2" height="12.2222" rx="1" fill="#FA6232"/>
<rect x="208" y="25.6665" width="2" height="3.66667" rx="1" fill="#FA6232"/>
</svg>
