<svg width="141" height="30" viewBox="0 0 141 30" fill="none" xmlns="http://www.w3.org/2000/svg">
<rect y="11.4668" width="1.34286" height="7.9238" rx="0.671429" fill="#FA6232"/>
<rect x="2.68359" y="13.9053" width="1.34286" height="3.04761" rx="0.671429" fill="#FA6232"/>
<rect x="5.37109" y="12.9902" width="1.34286" height="4.87618" rx="0.671429" fill="#FA6232"/>
<rect x="8.05664" y="11.4668" width="1.34286" height="7.9238" rx="0.671429" fill="#FA6232"/>
<rect x="10.7422" y="9.94238" width="1.34286" height="10.6667" rx="0.671429" fill="#FA6232"/>
<rect x="13.4277" y="11.7715" width="1.34286" height="7.00951" rx="0.671429" fill="#FA6232"/>
<rect x="16.1152" y="10.2856" width="1.34286" height="12" rx="0.671429" fill="#FA6232"/>
<rect x="18.8008" width="1.34286" height="30" rx="0.671429" fill="#FA6232"/>
<rect x="21.4863" y="10.2476" width="1.34286" height="10.0571" rx="0.671429" fill="#FA6232"/>
<rect x="24.1719" y="11.4668" width="1.34286" height="7.9238" rx="0.671429" fill="#FA6232"/>
<rect x="26.8574" y="14.2095" width="1.34286" height="2.43809" rx="0.671429" fill="#FA6232"/>
<rect x="29.543" y="14.2095" width="1.34286" height="2.43809" rx="0.671429" fill="#FA6232"/>
<rect x="32.2285" y="14.2095" width="1.34286" height="2.43809" rx="0.671429" fill="#FA6232"/>
<rect x="34.9141" y="13.6001" width="1.34286" height="3.35238" rx="0.671429" fill="#FA6232"/>
<rect x="37.5996" y="13.2959" width="1.34286" height="4.26666" rx="0.671429" fill="#FA6232"/>
<rect x="40.2852" y="10.2476" width="1.34286" height="10.3619" rx="0.671429" fill="#FA6232"/>
<rect x="42.9707" y="7.80957" width="1.34286" height="15.2381" rx="0.671429" fill="#FA6232"/>
<rect x="45.6582" y="9.94238" width="1.34286" height="10.9714" rx="0.671429" fill="#FA6232"/>
<rect x="48.3418" y="13.6001" width="1.34286" height="3.65714" rx="0.671429" fill="#FA6232"/>
<rect x="51.0293" y="12.6855" width="1.34286" height="5.48571" rx="0.671429" fill="#FA6232"/>
<rect x="53.7129" y="9.94238" width="1.34286" height="10.6667" rx="0.671429" fill="#FA6232"/>
<rect x="56.4004" y="12.3809" width="1.34286" height="5.79047" rx="0.671429" fill="#FA6232"/>
<rect x="59.084" y="12.6855" width="1.34286" height="5.18094" rx="0.671429" fill="#FA6232"/>
<rect x="61.7715" y="6.85645" width="1.34286" height="16.2857" rx="0.671429" fill="#FA6232"/>
<rect x="64.457" y="14.5713" width="1.34286" height="3.42857" rx="0.671429" fill="#FA6232"/>
<rect x="67.1426" y="8.41895" width="1.34286" height="14.019" rx="0.671429" fill="#FA6232"/>
<rect x="69.8281" y="11.4668" width="1.34286" height="7.9238" rx="0.671429" fill="#FA6232"/>
<rect x="72.5156" y="13.2959" width="1.34286" height="4.26666" rx="0.671429" fill="#FA6232"/>
<rect x="75.2012" y="12.3809" width="1.34286" height="5.79047" rx="0.671429" fill="#FA6232"/>
<rect x="77.8867" y="13.6001" width="1.34286" height="3.35238" rx="0.671429" fill="#FA6232"/>
<rect x="80.5723" y="11.1431" width="1.34286" height="8.57142" rx="0.671429" fill="#FA6232"/>
<rect x="83.2559" y="7.71484" width="1.34286" height="15.4286" rx="0.671429" fill="#FA6232"/>
<rect x="85.9434" y="12" width="1.34286" height="6.85713" rx="0.671429" fill="#FA6232"/>
<rect x="88.627" y="0.857422" width="1.34286" height="29.1428" rx="0.671429" fill="#FA6232"/>
<rect x="91.3145" y="9.42871" width="1.34286" height="13.7143" rx="0.671429" fill="#FA6232"/>
<rect x="93.998" y="4.28564" width="1.34286" height="22.2857" rx="0.671429" fill="#FA6232"/>
<rect x="96.6855" y="9.94238" width="1.34286" height="10.9714" rx="0.671429" fill="#FA6232"/>
<rect x="99.3711" y="11.4668" width="1.34286" height="7.9238" rx="0.671429" fill="#FA6232"/>
<rect x="102.059" y="12.6855" width="1.34286" height="5.18094" rx="0.671429" fill="#FA6232"/>
<rect x="104.742" y="7.50439" width="1.34286" height="15.5428" rx="0.671429" fill="#FA6232"/>
<rect x="107.43" y="10.5518" width="1.34286" height="9.44761" rx="0.671429" fill="#FA6232"/>
<rect x="110.113" y="10.2856" width="1.34286" height="10.2857" rx="0.671429" fill="#FA6232"/>
<rect x="112.801" y="12.9902" width="1.34286" height="4.57142" rx="0.671429" fill="#FA6232"/>
<rect x="115.486" y="12.3809" width="1.34286" height="5.79047" rx="0.671429" fill="#FA6232"/>
<rect x="118.172" y="12.8569" width="1.34286" height="5.14285" rx="0.671429" fill="#FA6232"/>
<rect x="120.857" y="13.7148" width="1.34286" height="3.42857" rx="0.671429" fill="#FA6232"/>
<rect x="123.543" y="3.42871" width="1.34286" height="24" rx="0.671429" fill="#FA6232"/>
<rect x="126.229" y="9.33301" width="1.34286" height="12.1905" rx="0.671429" fill="#FA6232"/>
<rect x="128.914" y="14.2095" width="1.34286" height="2.43809" rx="0.671429" fill="#FA6232"/>
<rect x="131.602" y="14.2095" width="1.34286" height="2.43809" rx="0.671429" fill="#FA6232"/>
<rect x="134.285" y="13.9053" width="1.34286" height="2.74285" rx="0.671429" fill="#FA6232"/>
<rect x="136.973" y="12.3809" width="1.34286" height="6.09523" rx="0.671429" fill="#FA6232"/>
<rect x="139.656" y="14.5142" width="1.34286" height="1.82857" rx="0.671429" fill="#FA6232"/>
</svg>
