<svg width="53" height="53" viewBox="0 0 53 53" fill="none" xmlns="http://www.w3.org/2000/svg">
<path d="M26.5295 8.83252C28.4156 8.83252 30.3501 8.88107 32.2251 8.9605L34.4398 9.06642L36.5597 9.1922L38.545 9.3268L40.3582 9.46802C42.326 9.61869 44.1776 10.4587 45.5873 11.8402C46.997 13.2218 47.8746 15.0564 48.0656 17.0213L48.1538 17.9591L48.3192 19.9671C48.4736 22.0479 48.5884 24.3163 48.5884 26.4854C48.5884 28.6545 48.4736 30.9229 48.3192 33.0038L48.1538 35.0118C48.1251 35.334 48.0964 35.6451 48.0656 35.9496C47.8745 37.9148 46.9967 39.7497 45.5865 41.1313C44.1763 42.5129 42.3242 43.3527 40.356 43.5028L38.5472 43.6418L36.5619 43.7787L34.4398 43.9044L32.2251 44.0104C30.3277 44.0928 28.4287 44.1355 26.5295 44.1383C24.6303 44.1355 22.7314 44.0928 20.8339 44.0104L18.6192 43.9044L16.4994 43.7787L14.5141 43.6418L12.7009 43.5028C10.7331 43.3522 8.88148 42.5122 7.47175 41.1306C6.06201 39.7491 5.18447 37.9145 4.9935 35.9496L4.90526 35.0118L4.73982 33.0038C4.57115 30.835 4.48139 28.6608 4.4707 26.4854C4.4707 24.3163 4.58541 22.0479 4.73982 19.9671L4.90526 17.9591C4.93394 17.6369 4.96261 17.3258 4.9935 17.0213C5.1844 15.0567 6.06162 13.2224 7.47091 11.8409C8.88019 10.4594 10.7313 9.61918 12.6986 9.46802L14.5097 9.3268L16.495 9.1922L18.617 9.06642L20.8317 8.9605C22.7299 8.87805 24.6296 8.83538 26.5295 8.83252ZM26.5295 13.2457C24.7097 13.2457 22.8369 13.2943 21.0148 13.3693L18.8575 13.473L16.7861 13.5944L14.8406 13.7268L13.0582 13.8658C12.1214 13.9323 11.2384 14.3284 10.5658 14.984C9.89307 15.6395 9.47414 16.5121 9.3832 17.4471C9.12512 20.1149 8.88247 23.4359 8.88247 26.4854C8.88247 29.535 9.12512 32.8559 9.3832 35.5237C9.5707 37.4479 11.0972 38.944 13.0582 39.1051L14.8406 39.2419L16.7861 39.3743L18.8575 39.4978L21.0148 39.6015C22.8369 39.6766 24.7097 39.7251 26.5295 39.7251C28.3494 39.7251 30.2222 39.6766 32.0442 39.6015L34.2016 39.4978L36.2729 39.3765L38.2185 39.2441L40.0009 39.1051C40.9376 39.0386 41.8206 38.6424 42.4933 37.9869C43.166 37.3314 43.5849 36.4587 43.6759 35.5237C43.9339 32.8559 44.1766 29.535 44.1766 26.4854C44.1766 23.4359 43.9339 20.1149 43.6759 17.4471C43.5849 16.5121 43.166 15.6395 42.4933 14.984C41.8206 14.3284 40.9376 13.9323 40.0009 13.8658L38.2185 13.729L36.2729 13.5966L34.2016 13.473L32.0442 13.3693C30.207 13.2902 28.3684 13.249 26.5295 13.2457ZM22.1178 21.1344C22.1176 20.9187 22.1701 20.7063 22.2708 20.5156C22.3714 20.3248 22.5171 20.1616 22.6952 20.04C22.8732 19.9184 23.0783 19.8422 23.2925 19.8179C23.5068 19.7937 23.7237 19.8222 23.9244 19.9009L24.1031 19.9892L33.3678 25.338C33.5523 25.4445 33.7083 25.5939 33.8227 25.7737C33.9371 25.9534 34.0065 26.1581 34.0249 26.3704C34.0433 26.5826 34.0102 26.7962 33.9284 26.993C33.8467 27.1897 33.7187 27.3638 33.5553 27.5005L33.3678 27.6329L24.1031 32.9839C23.9164 33.0921 23.7061 33.1529 23.4905 33.1612C23.2749 33.1694 23.0605 33.1248 22.8661 33.0313C22.6717 32.9378 22.5031 32.7981 22.375 32.6244C22.2468 32.4508 22.1631 32.2485 22.131 32.0351L22.1178 31.8365V21.1344Z" fill="#303030"/>
</svg>
