<svg width="180" height="54" viewBox="0 0 180 54" fill="none" xmlns="http://www.w3.org/2000/svg">
<rect width="54" height="54" rx="27" fill="#FA6232"/>
<path d="M84.7764 46H78.6744V8.308H94.9284C98.3124 8.308 100.976 9.334 102.92 11.386C104.864 13.402 105.836 16.156 105.836 19.648C105.836 22.348 105.206 24.598 103.946 26.398C102.722 28.162 100.904 29.404 98.4924 30.124L106.646 46H99.8424L92.2824 30.772H84.7764V46ZM94.4964 25.642C96.0444 25.642 97.2504 25.246 98.1144 24.454C98.9784 23.626 99.4104 22.456 99.4104 20.944V18.352C99.4104 16.84 98.9784 15.688 98.1144 14.896C97.2504 14.068 96.0444 13.654 94.4964 13.654H84.7764V25.642H94.4964ZM116.219 46V8.308H140.357V13.708H122.321V24.184H138.683V29.584H122.321V40.6H140.357V46H116.219ZM164.537 46.648C159.605 46.648 155.735 44.992 152.927 41.68C150.119 38.332 148.715 33.49 148.715 27.154C148.715 23.986 149.075 21.196 149.795 18.784C150.515 16.372 151.559 14.338 152.927 12.682C154.295 11.026 155.951 9.784 157.895 8.956C159.875 8.092 162.089 7.66 164.537 7.66C167.813 7.66 170.549 8.38 172.745 9.82C174.977 11.26 176.723 13.384 177.983 16.192L172.853 19C172.205 17.2 171.197 15.778 169.829 14.734C168.497 13.654 166.733 13.114 164.537 13.114C161.621 13.114 159.335 14.104 157.679 16.084C156.023 18.064 155.195 20.8 155.195 24.292V30.016C155.195 33.508 156.023 36.244 157.679 38.224C159.335 40.204 161.621 41.194 164.537 41.194C166.805 41.194 168.641 40.618 170.045 39.466C171.485 38.278 172.547 36.766 173.231 34.93L178.145 37.9C176.885 40.636 175.121 42.778 172.853 44.326C170.585 45.874 167.813 46.648 164.537 46.648Z" fill="white"/>
</svg>
