<svg width="1300" height="96" viewBox="0 0 1300 96" fill="none" xmlns="http://www.w3.org/2000/svg">
<path d="M517.857 45.312V23.76H522.249V25.704H520.209V43.368H522.249V45.312H517.857ZM537.622 42.288C535.43 42.288 533.71 41.552 532.462 40.08C531.214 38.592 530.59 36.44 530.59 33.624C530.59 32.216 530.75 30.976 531.07 29.904C531.39 28.832 531.854 27.928 532.462 27.192C533.07 26.456 533.806 25.904 534.67 25.536C535.55 25.152 536.534 24.96 537.622 24.96C539.078 24.96 540.294 25.28 541.27 25.92C542.262 26.56 543.038 27.504 543.598 28.752L541.318 30C541.03 29.2 540.582 28.568 539.974 28.104C539.382 27.624 538.598 27.384 537.622 27.384C536.326 27.384 535.31 27.824 534.574 28.704C533.838 29.584 533.47 30.8 533.47 32.352V34.896C533.47 36.448 533.838 37.664 534.574 38.544C535.31 39.424 536.326 39.864 537.622 39.864C538.63 39.864 539.446 39.608 540.07 39.096C540.71 38.568 541.182 37.896 541.486 37.08L543.67 38.4C543.11 39.616 542.326 40.568 541.318 41.256C540.31 41.944 539.078 42.288 537.622 42.288ZM552.69 27.648V42H549.978V27.648H544.986V25.248H557.682V27.648H552.69ZM561.688 39.6H564.328L564.952 38.064L558.904 25.248H561.784L564.856 31.848L566.176 34.944H566.272L567.4 31.8L570.016 25.248H572.728L566.848 39.768C566.672 40.2 566.488 40.56 566.296 40.848C566.104 41.136 565.88 41.368 565.624 41.544C565.368 41.704 565.064 41.824 564.712 41.904C564.376 41.968 563.968 42 563.488 42H561.688V39.6ZM571.98 39.6H573.756C574.076 39.2 574.364 38.728 574.62 38.184C574.892 37.624 575.116 36.976 575.292 36.24C575.484 35.488 575.628 34.632 575.724 33.672C575.82 32.696 575.868 31.584 575.868 30.336V25.248H586.788V39.6H589.284V45.6H586.764V42H574.5V45.6H571.98V39.6ZM584.076 39.6V27.648H578.484V30.648C578.484 31.848 578.444 32.912 578.364 33.84C578.3 34.768 578.196 35.592 578.052 36.312C577.924 37.016 577.756 37.632 577.548 38.16C577.356 38.672 577.132 39.12 576.876 39.504V39.6H584.076ZM592.06 25.248H594.7V34.776L594.436 38.232H594.508L596.188 35.136L602.62 25.248H605.068V42H602.428V32.472L602.692 29.016H602.62L600.94 32.112L594.508 42H592.06V25.248ZM608.113 39.6H609.577L611.353 36.384C611.577 35.968 611.801 35.656 612.025 35.448C612.249 35.24 612.569 35.088 612.985 34.992V34.872C611.577 34.792 610.513 34.344 609.793 33.528C609.089 32.696 608.737 31.608 608.737 30.264C608.737 28.696 609.161 27.472 610.009 26.592C610.873 25.696 612.065 25.248 613.585 25.248H620.809V42H618.097V35.256H615.049L612.217 40.296C611.833 40.968 611.457 41.424 611.089 41.664C610.721 41.888 610.273 42 609.745 42H608.113V39.6ZM618.097 32.952V27.624H613.801C613.113 27.624 612.569 27.808 612.169 28.176C611.785 28.528 611.593 29.04 611.593 29.712V30.864C611.593 31.536 611.785 32.056 612.169 32.424C612.569 32.776 613.113 32.952 613.801 32.952H618.097ZM630.615 25.248H643.263V42H640.551V27.648H633.327V42H630.615V25.248ZM653.876 42.288C652.788 42.288 651.796 42.104 650.9 41.736C650.02 41.352 649.26 40.8 648.62 40.08C647.996 39.344 647.508 38.44 647.156 37.368C646.82 36.28 646.652 35.032 646.652 33.624C646.652 32.216 646.82 30.976 647.156 29.904C647.508 28.816 647.996 27.912 648.62 27.192C649.26 26.456 650.02 25.904 650.9 25.536C651.796 25.152 652.788 24.96 653.876 24.96C654.964 24.96 655.948 25.152 656.828 25.536C657.724 25.904 658.484 26.456 659.108 27.192C659.748 27.912 660.236 28.816 660.572 29.904C660.924 30.976 661.1 32.216 661.1 33.624C661.1 35.032 660.924 36.28 660.572 37.368C660.236 38.44 659.748 39.344 659.108 40.08C658.484 40.8 657.724 41.352 656.828 41.736C655.948 42.104 654.964 42.288 653.876 42.288ZM653.876 39.864C654.516 39.864 655.1 39.752 655.628 39.528C656.172 39.304 656.628 38.984 656.996 38.568C657.38 38.136 657.676 37.616 657.884 37.008C658.092 36.4 658.196 35.712 658.196 34.944V32.304C658.196 31.536 658.092 30.848 657.884 30.24C657.676 29.632 657.38 29.12 656.996 28.704C656.628 28.272 656.172 27.944 655.628 27.72C655.1 27.496 654.516 27.384 653.876 27.384C653.22 27.384 652.628 27.496 652.1 27.72C651.572 27.944 651.116 28.272 650.732 28.704C650.364 29.12 650.076 29.632 649.868 30.24C649.66 30.848 649.556 31.536 649.556 32.304V34.944C649.556 35.712 649.66 36.4 649.868 37.008C650.076 37.616 650.364 38.136 650.732 38.568C651.116 38.984 651.572 39.304 652.1 39.528C652.628 39.752 653.22 39.864 653.876 39.864ZM662.144 39.6H663.92C664.24 39.2 664.528 38.728 664.784 38.184C665.056 37.624 665.28 36.976 665.456 36.24C665.648 35.488 665.792 34.632 665.888 33.672C665.984 32.696 666.032 31.584 666.032 30.336V25.248H676.952V39.6H679.448V45.6H676.928V42H664.664V45.6H662.144V39.6ZM674.24 39.6V27.648H668.648V30.648C668.648 31.848 668.608 32.912 668.528 33.84C668.464 34.768 668.36 35.592 668.216 36.312C668.088 37.016 667.92 37.632 667.712 38.16C667.52 38.672 667.296 39.12 667.04 39.504V39.6H674.24ZM682.224 25.248H684.936V32.304H687.84L690.816 27.072C691.184 26.416 691.568 25.952 691.968 25.68C692.384 25.392 692.888 25.248 693.48 25.248H694.752V27.648H693.24L690.84 31.872C690.568 32.336 690.312 32.672 690.072 32.88C689.848 33.088 689.568 33.248 689.232 33.36V33.48C689.616 33.56 689.944 33.696 690.216 33.888C690.488 34.08 690.768 34.432 691.056 34.944L693.72 39.6H695.184V42H693.528C693 42 692.544 41.872 692.16 41.616C691.776 41.344 691.392 40.872 691.008 40.2L687.84 34.68H684.936V42H682.224V25.248ZM708.719 42L707.207 37.464H700.943L699.479 42H696.719L702.431 25.248H705.839L711.551 42H708.719ZM704.135 27.744H704.015L701.591 35.136H706.535L704.135 27.744ZM719.918 42.288C717.726 42.288 716.006 41.552 714.758 40.08C713.51 38.592 712.886 36.44 712.886 33.624C712.886 32.216 713.046 30.976 713.366 29.904C713.686 28.832 714.15 27.928 714.758 27.192C715.366 26.456 716.102 25.904 716.966 25.536C717.846 25.152 718.83 24.96 719.918 24.96C721.374 24.96 722.59 25.28 723.566 25.92C724.558 26.56 725.334 27.504 725.894 28.752L723.614 30C723.326 29.2 722.878 28.568 722.27 28.104C721.678 27.624 720.894 27.384 719.918 27.384C718.622 27.384 717.606 27.824 716.87 28.704C716.134 29.584 715.766 30.8 715.766 32.352V34.896C715.766 36.448 716.134 37.664 716.87 38.544C717.606 39.424 718.622 39.864 719.918 39.864C720.926 39.864 721.742 39.608 722.366 39.096C723.006 38.568 723.478 37.896 723.782 37.08L725.966 38.4C725.406 39.616 724.622 40.568 723.614 41.256C722.606 41.944 721.374 42.288 719.918 42.288ZM734.987 27.648V42H732.275V27.648H727.283V25.248H739.979V27.648H734.987ZM748.564 42.288C747.476 42.288 746.484 42.104 745.588 41.736C744.708 41.352 743.948 40.8 743.308 40.08C742.684 39.344 742.196 38.44 741.844 37.368C741.508 36.28 741.34 35.032 741.34 33.624C741.34 32.216 741.508 30.976 741.844 29.904C742.196 28.816 742.684 27.912 743.308 27.192C743.948 26.456 744.708 25.904 745.588 25.536C746.484 25.152 747.476 24.96 748.564 24.96C749.652 24.96 750.636 25.152 751.516 25.536C752.412 25.904 753.172 26.456 753.796 27.192C754.436 27.912 754.924 28.816 755.26 29.904C755.612 30.976 755.788 32.216 755.788 33.624C755.788 35.032 755.612 36.28 755.26 37.368C754.924 38.44 754.436 39.344 753.796 40.08C753.172 40.8 752.412 41.352 751.516 41.736C750.636 42.104 749.652 42.288 748.564 42.288ZM748.564 39.864C749.204 39.864 749.788 39.752 750.316 39.528C750.86 39.304 751.316 38.984 751.684 38.568C752.068 38.136 752.364 37.616 752.572 37.008C752.78 36.4 752.884 35.712 752.884 34.944V32.304C752.884 31.536 752.78 30.848 752.572 30.24C752.364 29.632 752.068 29.12 751.684 28.704C751.316 28.272 750.86 27.944 750.316 27.72C749.788 27.496 749.204 27.384 748.564 27.384C747.908 27.384 747.316 27.496 746.788 27.72C746.26 27.944 745.804 28.272 745.42 28.704C745.052 29.12 744.764 29.632 744.556 30.24C744.348 30.848 744.244 31.536 744.244 32.304V34.944C744.244 35.712 744.348 36.4 744.556 37.008C744.764 37.616 745.052 38.136 745.42 38.568C745.804 38.984 746.26 39.304 746.788 39.528C747.316 39.752 747.908 39.864 748.564 39.864ZM759.169 25.248H766.585C767.977 25.248 769.065 25.64 769.849 26.424C770.649 27.208 771.049 28.256 771.049 29.568C771.049 30.192 770.961 30.728 770.785 31.176C770.609 31.608 770.385 31.968 770.113 32.256C769.841 32.528 769.529 32.736 769.177 32.88C768.825 33.008 768.481 33.088 768.145 33.12V33.264C768.481 33.28 768.849 33.36 769.249 33.504C769.665 33.648 770.049 33.88 770.401 34.2C770.753 34.504 771.049 34.904 771.289 35.4C771.529 35.88 771.649 36.472 771.649 37.176C771.649 37.848 771.537 38.48 771.313 39.072C771.105 39.664 770.809 40.176 770.425 40.608C770.041 41.04 769.585 41.384 769.057 41.64C768.529 41.88 767.953 42 767.329 42H759.169V25.248ZM761.881 39.672H766.537C767.241 39.672 767.793 39.488 768.193 39.12C768.593 38.752 768.793 38.224 768.793 37.536V36.72C768.793 36.032 768.593 35.504 768.193 35.136C767.793 34.768 767.241 34.584 766.537 34.584H761.881V39.672ZM761.881 32.328H766.081C766.753 32.328 767.273 32.16 767.641 31.824C768.009 31.472 768.193 30.976 768.193 30.336V29.568C768.193 28.928 768.009 28.44 767.641 28.104C767.273 27.752 766.753 27.576 766.081 27.576H761.881V32.328ZM776.054 38.664C776.646 38.664 777.086 38.816 777.374 39.12C777.662 39.424 777.806 39.816 777.806 40.296V40.68C777.806 41.464 777.59 42.28 777.158 43.128C776.742 43.992 776.174 44.72 775.454 45.312H773.51C774.022 44.8 774.446 44.304 774.782 43.824C775.118 43.344 775.374 42.808 775.55 42.216C775.134 42.136 774.822 41.96 774.614 41.688C774.406 41.4 774.302 41.064 774.302 40.68V40.296C774.302 39.816 774.446 39.424 774.734 39.12C775.022 38.816 775.462 38.664 776.054 38.664ZM461.255 56.248H463.967V63.304H466.871L469.847 58.072C470.215 57.416 470.599 56.952 470.999 56.68C471.415 56.392 471.919 56.248 472.511 56.248H473.783V58.648H472.271L469.871 62.872C469.599 63.336 469.343 63.672 469.103 63.88C468.879 64.088 468.599 64.248 468.263 64.36V64.48C468.647 64.56 468.975 64.696 469.247 64.888C469.519 65.08 469.799 65.432 470.087 65.944L472.751 70.6H474.215V73H472.559C472.031 73 471.575 72.872 471.191 72.616C470.807 72.344 470.423 71.872 470.039 71.2L466.871 65.68H463.967V73H461.255V56.248ZM483.181 73.288C482.093 73.288 481.101 73.104 480.205 72.736C479.325 72.352 478.565 71.8 477.925 71.08C477.301 70.344 476.813 69.44 476.461 68.368C476.125 67.28 475.957 66.032 475.957 64.624C475.957 63.216 476.125 61.976 476.461 60.904C476.813 59.816 477.301 58.912 477.925 58.192C478.565 57.456 479.325 56.904 480.205 56.536C481.101 56.152 482.093 55.96 483.181 55.96C484.269 55.96 485.253 56.152 486.133 56.536C487.029 56.904 487.789 57.456 488.413 58.192C489.053 58.912 489.541 59.816 489.877 60.904C490.229 61.976 490.405 63.216 490.405 64.624C490.405 66.032 490.229 67.28 489.877 68.368C489.541 69.44 489.053 70.344 488.413 71.08C487.789 71.8 487.029 72.352 486.133 72.736C485.253 73.104 484.269 73.288 483.181 73.288ZM483.181 70.864C483.821 70.864 484.405 70.752 484.933 70.528C485.477 70.304 485.933 69.984 486.301 69.568C486.685 69.136 486.981 68.616 487.189 68.008C487.397 67.4 487.501 66.712 487.501 65.944V63.304C487.501 62.536 487.397 61.848 487.189 61.24C486.981 60.632 486.685 60.12 486.301 59.704C485.933 59.272 485.477 58.944 484.933 58.72C484.405 58.496 483.821 58.384 483.181 58.384C482.525 58.384 481.933 58.496 481.405 58.72C480.877 58.944 480.421 59.272 480.037 59.704C479.669 60.12 479.381 60.632 479.173 61.24C478.965 61.848 478.861 62.536 478.861 63.304V65.944C478.861 66.712 478.965 67.4 479.173 68.008C479.381 68.616 479.669 69.136 480.037 69.568C480.421 69.984 480.877 70.304 481.405 70.528C481.933 70.752 482.525 70.864 483.181 70.864ZM499.464 58.648V73H496.752V58.648H491.76V56.248H504.456V58.648H499.464ZM513.04 73.288C511.952 73.288 510.96 73.104 510.064 72.736C509.184 72.352 508.424 71.8 507.784 71.08C507.16 70.344 506.672 69.44 506.32 68.368C505.984 67.28 505.816 66.032 505.816 64.624C505.816 63.216 505.984 61.976 506.32 60.904C506.672 59.816 507.16 58.912 507.784 58.192C508.424 57.456 509.184 56.904 510.064 56.536C510.96 56.152 511.952 55.96 513.04 55.96C514.128 55.96 515.112 56.152 515.992 56.536C516.888 56.904 517.648 57.456 518.272 58.192C518.912 58.912 519.4 59.816 519.736 60.904C520.088 61.976 520.264 63.216 520.264 64.624C520.264 66.032 520.088 67.28 519.736 68.368C519.4 69.44 518.912 70.344 518.272 71.08C517.648 71.8 516.888 72.352 515.992 72.736C515.112 73.104 514.128 73.288 513.04 73.288ZM513.04 70.864C513.68 70.864 514.264 70.752 514.792 70.528C515.336 70.304 515.792 69.984 516.16 69.568C516.544 69.136 516.84 68.616 517.048 68.008C517.256 67.4 517.36 66.712 517.36 65.944V63.304C517.36 62.536 517.256 61.848 517.048 61.24C516.84 60.632 516.544 60.12 516.16 59.704C515.792 59.272 515.336 58.944 514.792 58.72C514.264 58.496 513.68 58.384 513.04 58.384C512.384 58.384 511.792 58.496 511.264 58.72C510.736 58.944 510.28 59.272 509.896 59.704C509.528 60.12 509.24 60.632 509.032 61.24C508.824 61.848 508.72 62.536 508.72 63.304V65.944C508.72 66.712 508.824 67.4 509.032 68.008C509.24 68.616 509.528 69.136 509.896 69.568C510.28 69.984 510.736 70.304 511.264 70.528C511.792 70.752 512.384 70.864 513.04 70.864ZM523.646 73V56.248H530.846C532.398 56.248 533.598 56.704 534.446 57.616C535.294 58.528 535.718 59.752 535.718 61.288C535.718 62.824 535.294 64.048 534.446 64.96C533.598 65.872 532.398 66.328 530.846 66.328H526.358V73H523.646ZM526.358 63.952H530.678C531.366 63.952 531.902 63.776 532.286 63.424C532.67 63.056 532.862 62.536 532.862 61.864V60.712C532.862 60.04 532.67 59.528 532.286 59.176C531.902 58.808 531.366 58.624 530.678 58.624H526.358V63.952ZM547.798 73L546.286 68.464H540.022L538.558 73H535.798L541.51 56.248H544.918L550.63 73H547.798ZM543.214 58.744H543.094L540.67 66.136H545.614L543.214 58.744ZM552.144 70.6H553.608L555.384 67.384C555.608 66.968 555.832 66.656 556.056 66.448C556.28 66.24 556.6 66.088 557.016 65.992V65.872C555.608 65.792 554.544 65.344 553.824 64.528C553.12 63.696 552.768 62.608 552.768 61.264C552.768 59.696 553.192 58.472 554.04 57.592C554.904 56.696 556.096 56.248 557.616 56.248H564.84V73H562.128V66.256H559.08L556.248 71.296C555.864 71.968 555.488 72.424 555.12 72.664C554.752 72.888 554.304 73 553.776 73H552.144V70.6ZM562.128 63.952V58.624H557.832C557.144 58.624 556.6 58.808 556.2 59.176C555.816 59.528 555.624 60.04 555.624 60.712V61.864C555.624 62.536 555.816 63.056 556.2 63.424C556.6 63.776 557.144 63.952 557.832 63.952H562.128ZM581.126 73.288C580.038 73.288 579.046 73.104 578.15 72.736C577.27 72.352 576.51 71.8 575.87 71.08C575.246 70.344 574.758 69.44 574.406 68.368C574.07 67.28 573.902 66.032 573.902 64.624C573.902 63.216 574.07 61.976 574.406 60.904C574.758 59.816 575.246 58.912 575.87 58.192C576.51 57.456 577.27 56.904 578.15 56.536C579.046 56.152 580.038 55.96 581.126 55.96C582.214 55.96 583.198 56.152 584.078 56.536C584.974 56.904 585.734 57.456 586.358 58.192C586.998 58.912 587.486 59.816 587.822 60.904C588.174 61.976 588.35 63.216 588.35 64.624C588.35 66.032 588.174 67.28 587.822 68.368C587.486 69.44 586.998 70.344 586.358 71.08C585.734 71.8 584.974 72.352 584.078 72.736C583.198 73.104 582.214 73.288 581.126 73.288ZM581.126 70.864C581.766 70.864 582.35 70.752 582.878 70.528C583.422 70.304 583.878 69.984 584.246 69.568C584.63 69.136 584.926 68.616 585.134 68.008C585.342 67.4 585.446 66.712 585.446 65.944V63.304C585.446 62.536 585.342 61.848 585.134 61.24C584.926 60.632 584.63 60.12 584.246 59.704C583.878 59.272 583.422 58.944 582.878 58.72C582.35 58.496 581.766 58.384 581.126 58.384C580.47 58.384 579.878 58.496 579.35 58.72C578.822 58.944 578.366 59.272 577.982 59.704C577.614 60.12 577.326 60.632 577.118 61.24C576.91 61.848 576.806 62.536 576.806 63.304V65.944C576.806 66.712 576.91 67.4 577.118 68.008C577.326 68.616 577.614 69.136 577.982 69.568C578.366 69.984 578.822 70.304 579.35 70.528C579.878 70.752 580.47 70.864 581.126 70.864ZM591.732 56.248H602.436V58.648H594.444V62.824H599.124C600.676 62.824 601.876 63.288 602.724 64.216C603.572 65.128 603.996 66.36 603.996 67.912C603.996 69.464 603.572 70.704 602.724 71.632C601.876 72.544 600.676 73 599.124 73H591.732V56.248ZM598.956 70.624C599.644 70.624 600.18 70.44 600.564 70.072C600.948 69.704 601.14 69.152 601.14 68.416V67.408C601.14 66.672 600.948 66.12 600.564 65.752C600.18 65.384 599.644 65.2 598.956 65.2H594.444V70.624H598.956ZM608.947 58.648H604.891V56.248H611.659V62.68H616.579C618.131 62.68 619.331 63.144 620.179 64.072C621.027 64.984 621.451 66.24 621.451 67.84C621.451 69.44 621.027 70.704 620.179 71.632C619.331 72.544 618.131 73 616.579 73H608.947V58.648ZM616.387 70.624C617.075 70.624 617.611 70.44 617.995 70.072C618.395 69.704 618.595 69.152 618.595 68.416V67.264C618.595 66.528 618.395 65.976 617.995 65.608C617.611 65.24 617.075 65.056 616.387 65.056H611.659V70.624H616.387ZM624.404 73V56.248H635.132V58.648H627.116V63.304H634.388V65.704H627.116V70.6H635.132V73H624.404ZM636.878 70.6H638.654C638.974 70.2 639.262 69.728 639.518 69.184C639.79 68.624 640.014 67.976 640.19 67.24C640.382 66.488 640.526 65.632 640.622 64.672C640.718 63.696 640.766 62.584 640.766 61.336V56.248H651.686V70.6H654.182V76.6H651.662V73H639.398V76.6H636.878V70.6ZM648.974 70.6V58.648H643.382V61.648C643.382 62.848 643.342 63.912 643.262 64.84C643.198 65.768 643.094 66.592 642.95 67.312C642.822 68.016 642.654 68.632 642.446 69.16C642.254 69.672 642.03 70.12 641.774 70.504V70.6H648.974ZM656.959 56.248H659.599V65.776L659.335 69.232H659.407L661.087 66.136L667.519 56.248H669.967V73H667.327V63.472L667.591 60.016H667.519L665.839 63.112L659.407 73H656.959V56.248ZM684.387 65.704H676.803V73H674.091V56.248H676.803V63.304H684.387V56.248H687.099V73H684.387V65.704ZM690.144 70.6H691.608L693.384 67.384C693.608 66.968 693.832 66.656 694.056 66.448C694.28 66.24 694.6 66.088 695.016 65.992V65.872C693.608 65.792 692.544 65.344 691.824 64.528C691.12 63.696 690.768 62.608 690.768 61.264C690.768 59.696 691.192 58.472 692.04 57.592C692.904 56.696 694.096 56.248 695.616 56.248H702.84V73H700.128V66.256H697.08L694.248 71.296C693.864 71.968 693.488 72.424 693.12 72.664C692.752 72.888 692.304 73 691.776 73H690.144V70.6ZM700.128 63.952V58.624H695.832C695.144 58.624 694.6 58.808 694.2 59.176C693.816 59.528 693.624 60.04 693.624 60.712V61.864C693.624 62.536 693.816 63.056 694.2 63.424C694.6 63.776 695.144 63.952 695.832 63.952H700.128ZM706.974 73V56.248H717.702V58.648H709.686V63.304H716.958V65.704H709.686V70.6H717.702V73H706.974ZM727.417 58.648V73H724.705V58.648H719.713V56.248H732.409V58.648H727.417ZM738.996 70.6H740.844C741.164 70.28 741.444 69.888 741.684 69.424C741.924 68.96 742.116 68.368 742.26 67.648C742.42 66.928 742.54 66.048 742.62 65.008C742.7 63.952 742.74 62.672 742.74 61.168V56.248H753.564V73H750.852V58.648H745.356V61.48C745.356 63.096 745.3 64.488 745.188 65.656C745.092 66.808 744.948 67.792 744.756 68.608C744.564 69.424 744.324 70.096 744.036 70.624C743.764 71.152 743.46 71.584 743.124 71.92C742.708 72.32 742.26 72.616 741.78 72.808C741.3 72.984 740.716 73.072 740.028 73.072H738.996V70.6ZM770.845 73.288C768.749 73.288 767.093 72.648 765.877 71.368C764.661 70.072 763.965 68.184 763.789 65.704H760.405V73H757.693V56.248H760.405V63.304H763.837C764.029 60.856 764.749 59.024 765.997 57.808C767.261 56.576 768.877 55.96 770.845 55.96C771.933 55.96 772.909 56.144 773.773 56.512C774.653 56.88 775.397 57.424 776.005 58.144C776.613 58.864 777.077 59.768 777.397 60.856C777.733 61.928 777.901 63.184 777.901 64.624C777.901 66.064 777.733 67.328 777.397 68.416C777.077 69.488 776.613 70.384 776.005 71.104C775.397 71.824 774.653 72.368 773.773 72.736C772.909 73.104 771.933 73.288 770.845 73.288ZM770.845 70.864C772.141 70.864 773.157 70.44 773.893 69.592C774.645 68.728 775.021 67.512 775.021 65.944V63.304C775.021 61.736 774.645 60.528 773.893 59.68C773.157 58.816 772.141 58.384 770.845 58.384C769.549 58.384 768.525 58.816 767.773 59.68C767.037 60.528 766.669 61.736 766.669 63.304V65.944C766.669 67.512 767.037 68.728 767.773 69.592C768.525 70.44 769.549 70.864 770.845 70.864ZM778.957 70.6H780.733C781.053 70.2 781.341 69.728 781.597 69.184C781.869 68.624 782.093 67.976 782.269 67.24C782.461 66.488 782.605 65.632 782.701 64.672C782.797 63.696 782.845 62.584 782.845 61.336V56.248H793.765V70.6H796.261V76.6H793.741V73H781.477V76.6H778.957V70.6ZM791.053 70.6V58.648H785.461V61.648C785.461 62.848 785.421 63.912 785.341 64.84C785.277 65.768 785.173 66.592 785.029 67.312C784.901 68.016 784.733 68.632 784.525 69.16C784.333 69.672 784.109 70.12 783.853 70.504V70.6H791.053ZM799.037 73V56.248H809.765V58.648H801.749V63.304H809.021V65.704H801.749V70.6H809.765V73H799.037ZM813.263 56.248H815.903V65.776L815.639 69.232H815.711L817.391 66.136L823.823 56.248H826.271V73H823.631V63.472L823.895 60.016H823.823L822.143 63.112L815.711 73H813.263V56.248ZM819.743 54.88C818.783 54.88 818.015 54.688 817.439 54.304C816.879 53.904 816.431 53.36 816.095 52.672L815.615 51.616L817.751 50.752L818.567 52.912C818.727 52.96 818.911 53 819.119 53.032C819.343 53.064 819.551 53.08 819.743 53.08C819.935 53.08 820.135 53.064 820.343 53.032C820.567 53 820.759 52.96 820.919 52.912L821.735 50.752L823.871 51.616L823.391 52.672C823.055 53.36 822.599 53.904 822.023 54.304C821.463 54.688 820.703 54.88 819.743 54.88ZM839.74 54.76V76.312H835.348V74.368H837.388V56.704H835.348V54.76H839.74Z" fill="#2D2D2D"/>
<circle cx="1133" cy="42" r="15" fill="#FA6232"/>
<path d="M1159.55 49V37.832H1164.35C1165.38 37.832 1166.18 38.136 1166.75 38.744C1167.31 39.352 1167.59 40.168 1167.59 41.192C1167.59 42.216 1167.31 43.032 1166.75 43.64C1166.18 44.248 1165.38 44.552 1164.35 44.552H1161.35V49H1159.55ZM1161.35 42.968H1164.23C1164.69 42.968 1165.05 42.8507 1165.31 42.616C1165.56 42.3707 1165.69 42.024 1165.69 41.576V40.808C1165.69 40.36 1165.56 40.0187 1165.31 39.784C1165.05 39.5387 1164.69 39.416 1164.23 39.416H1161.35V42.968ZM1169.9 49V37.832H1177.05V39.432H1171.7V42.536H1176.55V44.136H1171.7V47.4H1177.05V49H1169.9ZM1181.51 49H1179.7V37.832H1184.52C1185.52 37.832 1186.31 38.136 1186.89 38.744C1187.46 39.3413 1187.75 40.1573 1187.75 41.192C1187.75 41.992 1187.56 42.6587 1187.19 43.192C1186.83 43.7147 1186.29 44.0827 1185.57 44.296L1187.99 49H1185.97L1183.73 44.488H1181.51V49ZM1184.39 42.968C1184.85 42.968 1185.21 42.8507 1185.46 42.616C1185.72 42.3707 1185.85 42.024 1185.85 41.576V40.808C1185.85 40.36 1185.72 40.0187 1185.46 39.784C1185.21 39.5387 1184.85 39.416 1184.39 39.416H1181.51V42.968H1184.39ZM1190.51 49V37.832H1197.66V39.432H1192.31V42.536H1197.16V44.136H1192.31V47.4H1197.66V49H1190.51ZM1200.31 37.832H1204.26C1204.98 37.832 1205.62 37.9493 1206.2 38.184C1206.78 38.4187 1207.28 38.7707 1207.69 39.24C1208.1 39.6987 1208.42 40.28 1208.65 40.984C1208.87 41.6773 1208.98 42.488 1208.98 43.416C1208.98 44.344 1208.87 45.16 1208.65 45.864C1208.42 46.5573 1208.1 47.1387 1207.69 47.608C1207.28 48.0667 1206.78 48.4133 1206.2 48.648C1205.62 48.8827 1204.98 49 1204.26 49H1200.31V37.832ZM1204.26 47.4C1205.09 47.4 1205.77 47.1387 1206.28 46.616C1206.79 46.0933 1207.05 45.3253 1207.05 44.312V42.52C1207.05 41.5067 1206.79 40.7387 1206.28 40.216C1205.77 39.6933 1205.09 39.432 1204.26 39.432H1202.12V47.4H1204.26ZM1211.55 49V37.832H1218.7V39.432H1213.36V42.536H1218.21V44.136H1213.36V47.4H1218.7V49H1211.55ZM1221.36 49V37.832H1223.16V47.4H1227.71V49H1221.36ZM1237.14 49L1236.13 45.976H1231.95L1230.98 49H1229.14L1232.94 37.832H1235.22L1239.02 49H1237.14ZM1234.08 39.496H1234L1232.38 44.424H1235.68L1234.08 39.496ZM1244.08 42.824L1242.85 40.456H1242.8V49H1241.07V37.832H1243.09L1246.74 44.008L1247.97 46.376H1248.02V37.832H1249.75V49H1247.73L1244.08 42.824ZM1257.14 49.192C1256.41 49.192 1255.75 49.0693 1255.15 48.824C1254.57 48.568 1254.06 48.2 1253.63 47.72C1253.22 47.2293 1252.89 46.6267 1252.66 45.912C1252.43 45.1867 1252.32 44.3547 1252.32 43.416C1252.32 42.4773 1252.43 41.6507 1252.66 40.936C1252.89 40.2107 1253.22 39.608 1253.63 39.128C1254.06 38.6373 1254.57 38.2693 1255.15 38.024C1255.75 37.768 1256.41 37.64 1257.14 37.64C1257.86 37.64 1258.52 37.768 1259.1 38.024C1259.7 38.2693 1260.21 38.6373 1260.62 39.128C1261.05 39.608 1261.38 40.2107 1261.6 40.936C1261.83 41.6507 1261.95 42.4773 1261.95 43.416C1261.95 44.3547 1261.83 45.1867 1261.6 45.912C1261.38 46.6267 1261.05 47.2293 1260.62 47.72C1260.21 48.2 1259.7 48.568 1259.1 48.824C1258.52 49.0693 1257.86 49.192 1257.14 49.192ZM1257.14 47.576C1257.56 47.576 1257.95 47.5013 1258.3 47.352C1258.67 47.2027 1258.97 46.9893 1259.22 46.712C1259.47 46.424 1259.67 46.0773 1259.81 45.672C1259.95 45.2667 1260.02 44.808 1260.02 44.296V42.536C1260.02 42.024 1259.95 41.5653 1259.81 41.16C1259.67 40.7547 1259.47 40.4133 1259.22 40.136C1258.97 39.848 1258.67 39.6293 1258.3 39.48C1257.95 39.3307 1257.56 39.256 1257.14 39.256C1256.7 39.256 1256.3 39.3307 1255.95 39.48C1255.6 39.6293 1255.3 39.848 1255.04 40.136C1254.79 40.4133 1254.6 40.7547 1254.46 41.16C1254.33 41.5653 1254.26 42.024 1254.26 42.536V44.296C1254.26 44.808 1254.33 45.2667 1254.46 45.672C1254.6 46.0773 1254.79 46.424 1255.04 46.712C1255.3 46.9893 1255.6 47.2027 1255.95 47.352C1256.3 47.5013 1256.7 47.576 1257.14 47.576Z" fill="#2D2D2D"/>
<rect x="1300" width="96" height="11" transform="rotate(90 1300 0)" fill="#2D2D2D"/>
<rect x="1300" y="11" width="96" height="11" transform="rotate(-180 1300 11)" fill="#2D2D2D"/>
<rect width="96" height="11" fill="#2D2D2D"/>
<rect x="11" width="96" height="11" transform="rotate(90 11 0)" fill="#2D2D2D"/>
<rect x="32.5" y="32.5" width="120.396" height="41" rx="3.5" fill="white" stroke="#2D2D2D" stroke-width="3"/>
<path d="M155 44H157C158.105 44 159 44.8954 159 46V60C159 61.1046 158.105 62 157 62H155V44Z" fill="#2D2D2D"/>
<rect x="37" y="38" width="16" height="30" rx="2" fill="#2D2D2D"/>
<rect x="55" y="38" width="16" height="30" rx="2" fill="#2D2D2D"/>
<rect x="73" y="38" width="16" height="30" rx="2" fill="#2D2D2D"/>
<rect x="91" y="38" width="16" height="30" rx="2" fill="#2D2D2D"/>
<rect x="109" y="38" width="16" height="30" rx="2" fill="#2D2D2D"/>
</svg>
