<svg width="1300" height="96" viewBox="0 0 1300 96" fill="none" xmlns="http://www.w3.org/2000/svg">
<rect x="1300" y="96" width="96" height="11" transform="rotate(-180 1300 96)" fill="#2D2D2D"/>
<rect x="1289" y="96" width="96" height="11" transform="rotate(-90 1289 96)" fill="#2D2D2D"/>
<path d="M1163.58 36V33.28H1157.1V31.34L1162.76 22.04H1165.72V31.5H1167.62V33.28H1165.72V36H1163.58ZM1159.02 31.5H1163.58V24.1H1163.44L1159.02 31.5ZM1170.16 36V34.12H1174.08V23.68H1173.92L1170.68 27.14L1169.3 25.9L1172.86 22.04H1176.3V34.12H1179.7V36H1170.16ZM1185.09 28.96C1184.58 28.96 1184.12 28.8733 1183.69 28.7C1183.26 28.5133 1182.89 28.26 1182.57 27.94C1182.26 27.62 1182.02 27.24 1181.83 26.8C1181.66 26.36 1181.57 25.8867 1181.57 25.38C1181.57 24.8733 1181.66 24.4 1181.83 23.96C1182.02 23.52 1182.26 23.14 1182.57 22.82C1182.89 22.5 1183.26 22.2533 1183.69 22.08C1184.12 21.8933 1184.58 21.8 1185.09 21.8C1185.58 21.8 1186.04 21.8933 1186.47 22.08C1186.91 22.2533 1187.28 22.5 1187.59 22.82C1187.91 23.14 1188.16 23.52 1188.33 23.96C1188.52 24.4 1188.61 24.8733 1188.61 25.38C1188.61 25.8867 1188.52 26.36 1188.33 26.8C1188.16 27.24 1187.91 27.62 1187.59 27.94C1187.28 28.26 1186.91 28.5133 1186.47 28.7C1186.04 28.8733 1185.58 28.96 1185.09 28.96ZM1185.09 27.4C1185.66 27.4 1186.11 27.2067 1186.43 26.82C1186.76 26.4333 1186.93 25.9533 1186.93 25.38C1186.93 24.8067 1186.76 24.3267 1186.43 23.94C1186.11 23.5533 1185.66 23.36 1185.09 23.36C1184.52 23.36 1184.06 23.5533 1183.73 23.94C1183.41 24.3267 1183.25 24.8067 1183.25 25.38C1183.25 25.9533 1183.41 26.4333 1183.73 26.82C1184.06 27.2067 1184.52 27.4 1185.09 27.4ZM1196.96 36V33.28H1190.48V31.34L1196.14 22.04H1199.1V31.5H1201V33.28H1199.1V36H1196.96ZM1192.4 31.5H1196.96V24.1H1196.82L1192.4 31.5ZM1203.54 36V34.12H1207.46V23.68H1207.3L1204.06 27.14L1202.68 25.9L1206.24 22.04H1209.68V34.12H1213.08V36H1203.54ZM1216.67 36.24C1216.17 36.24 1215.81 36.1133 1215.57 35.86C1215.33 35.5933 1215.21 35.2667 1215.21 34.88V34.58C1215.21 34.1933 1215.33 33.8733 1215.57 33.62C1215.81 33.3533 1216.17 33.22 1216.67 33.22C1217.16 33.22 1217.53 33.3533 1217.77 33.62C1218.01 33.8733 1218.13 34.1933 1218.13 34.58V34.88C1218.13 35.2667 1218.01 35.5933 1217.77 35.86C1217.53 36.1133 1217.16 36.24 1216.67 36.24ZM1225.61 36.24C1224.84 36.24 1224.14 36.1133 1223.53 35.86C1222.93 35.6067 1222.42 35.2467 1221.99 34.78C1221.58 34.3 1221.26 33.7267 1221.03 33.06C1220.8 32.3933 1220.69 31.64 1220.69 30.8C1220.69 29.7867 1220.84 28.8333 1221.15 27.94C1221.46 27.0467 1221.85 26.2267 1222.33 25.48C1222.81 24.7333 1223.34 24.0733 1223.93 23.5C1224.53 22.9133 1225.12 22.4267 1225.69 22.04H1228.69C1227.9 22.6133 1227.2 23.1667 1226.57 23.7C1225.94 24.2333 1225.4 24.78 1224.93 25.34C1224.46 25.9 1224.07 26.4933 1223.75 27.12C1223.44 27.7467 1223.2 28.4333 1223.03 29.18L1223.17 29.22C1223.32 28.94 1223.48 28.68 1223.67 28.44C1223.87 28.1867 1224.1 27.9667 1224.35 27.78C1224.62 27.5933 1224.92 27.4467 1225.25 27.34C1225.58 27.2333 1225.97 27.18 1226.41 27.18C1227 27.18 1227.54 27.28 1228.03 27.48C1228.54 27.68 1228.97 27.9733 1229.33 28.36C1229.7 28.7333 1229.99 29.1867 1230.19 29.72C1230.4 30.2533 1230.51 30.8467 1230.51 31.5C1230.51 32.2067 1230.39 32.8533 1230.15 33.44C1229.92 34.0133 1229.6 34.5067 1229.17 34.92C1228.74 35.3333 1228.22 35.66 1227.61 35.9C1227.01 36.1267 1226.34 36.24 1225.61 36.24ZM1225.61 34.4C1226.42 34.4 1227.06 34.1867 1227.51 33.76C1227.96 33.32 1228.19 32.68 1228.19 31.84V31.56C1228.19 30.72 1227.96 30.0867 1227.51 29.66C1227.06 29.22 1226.42 29 1225.61 29C1224.8 29 1224.16 29.22 1223.71 29.66C1223.26 30.0867 1223.03 30.72 1223.03 31.56V31.84C1223.03 32.68 1223.26 33.32 1223.71 33.76C1224.16 34.1867 1224.8 34.4 1225.61 34.4ZM1238.74 36V33.28H1232.26V31.34L1237.92 22.04H1240.88V31.5H1242.78V33.28H1240.88V36H1238.74ZM1234.18 31.5H1238.74V24.1H1238.6L1234.18 31.5ZM1249.59 36.24C1248.82 36.24 1248.13 36.1133 1247.51 35.86C1246.91 35.6067 1246.4 35.2467 1245.97 34.78C1245.56 34.3 1245.24 33.7267 1245.01 33.06C1244.79 32.3933 1244.67 31.64 1244.67 30.8C1244.67 29.7867 1244.83 28.8333 1245.13 27.94C1245.44 27.0467 1245.83 26.2267 1246.31 25.48C1246.79 24.7333 1247.33 24.0733 1247.91 23.5C1248.51 22.9133 1249.1 22.4267 1249.67 22.04H1252.67C1251.89 22.6133 1251.18 23.1667 1250.55 23.7C1249.93 24.2333 1249.38 24.78 1248.91 25.34C1248.45 25.9 1248.05 26.4933 1247.73 27.12C1247.43 27.7467 1247.19 28.4333 1247.01 29.18L1247.15 29.22C1247.3 28.94 1247.47 28.68 1247.65 28.44C1247.85 28.1867 1248.08 27.9667 1248.33 27.78C1248.6 27.5933 1248.9 27.4467 1249.23 27.34C1249.57 27.2333 1249.95 27.18 1250.39 27.18C1250.98 27.18 1251.52 27.28 1252.01 27.48C1252.52 27.68 1252.95 27.9733 1253.31 28.36C1253.69 28.7333 1253.97 29.1867 1254.17 29.72C1254.39 30.2533 1254.49 30.8467 1254.49 31.5C1254.49 32.2067 1254.37 32.8533 1254.13 33.44C1253.91 34.0133 1253.58 34.5067 1253.15 34.92C1252.73 35.3333 1252.21 35.66 1251.59 35.9C1250.99 36.1267 1250.33 36.24 1249.59 36.24ZM1249.59 34.4C1250.41 34.4 1251.04 34.1867 1251.49 33.76C1251.95 33.32 1252.17 32.68 1252.17 31.84V31.56C1252.17 30.72 1251.95 30.0867 1251.49 29.66C1251.04 29.22 1250.41 29 1249.59 29C1248.78 29 1248.15 29.22 1247.69 29.66C1247.24 30.0867 1247.01 30.72 1247.01 31.56V31.84C1247.01 32.68 1247.24 33.32 1247.69 33.76C1248.15 34.1867 1248.78 34.4 1249.59 34.4ZM1261.58 36.24C1260.81 36.24 1260.12 36.1133 1259.5 35.86C1258.9 35.6067 1258.39 35.2467 1257.96 34.78C1257.55 34.3 1257.23 33.7267 1257 33.06C1256.78 32.3933 1256.66 31.64 1256.66 30.8C1256.66 29.7867 1256.82 28.8333 1257.12 27.94C1257.43 27.0467 1257.82 26.2267 1258.3 25.48C1258.78 24.7333 1259.32 24.0733 1259.9 23.5C1260.5 22.9133 1261.09 22.4267 1261.66 22.04H1264.66C1263.88 22.6133 1263.17 23.1667 1262.54 23.7C1261.92 24.2333 1261.37 24.78 1260.9 25.34C1260.44 25.9 1260.04 26.4933 1259.72 27.12C1259.42 27.7467 1259.18 28.4333 1259 29.18L1259.14 29.22C1259.29 28.94 1259.46 28.68 1259.64 28.44C1259.84 28.1867 1260.07 27.9667 1260.32 27.78C1260.59 27.5933 1260.89 27.4467 1261.22 27.34C1261.56 27.2333 1261.94 27.18 1262.38 27.18C1262.97 27.18 1263.51 27.28 1264 27.48C1264.51 27.68 1264.94 27.9733 1265.3 28.36C1265.68 28.7333 1265.96 29.1867 1266.16 29.72C1266.38 30.2533 1266.48 30.8467 1266.48 31.5C1266.48 32.2067 1266.36 32.8533 1266.12 33.44C1265.9 34.0133 1265.57 34.5067 1265.14 34.92C1264.72 35.3333 1264.2 35.66 1263.58 35.9C1262.98 36.1267 1262.32 36.24 1261.58 36.24ZM1261.58 34.4C1262.4 34.4 1263.03 34.1867 1263.48 33.76C1263.94 33.32 1264.16 32.68 1264.16 31.84V31.56C1264.16 30.72 1263.94 30.0867 1263.48 29.66C1263.03 29.22 1262.4 29 1261.58 29C1260.77 29 1260.14 29.22 1259.68 29.66C1259.23 30.0867 1259 30.72 1259 31.56V31.84C1259 32.68 1259.23 33.32 1259.68 33.76C1260.14 34.1867 1260.77 34.4 1261.58 34.4ZM1268.48 28.72L1269.66 22.04H1271.66L1270.48 28.72H1268.48Z" fill="#C9C9C9"/>
<path d="M1163.58 64V61.28H1157.1V59.34L1162.76 50.04H1165.72V59.5H1167.62V61.28H1165.72V64H1163.58ZM1159.02 59.5H1163.58V52.1H1163.44L1159.02 59.5ZM1175.58 64V61.28H1169.1V59.34L1174.76 50.04H1177.72V59.5H1179.62V61.28H1177.72V64H1175.58ZM1171.02 59.5H1175.58V52.1H1175.44L1171.02 59.5ZM1185.09 56.96C1184.58 56.96 1184.12 56.8733 1183.69 56.7C1183.26 56.5133 1182.89 56.26 1182.57 55.94C1182.26 55.62 1182.02 55.24 1181.83 54.8C1181.66 54.36 1181.57 53.8867 1181.57 53.38C1181.57 52.8733 1181.66 52.4 1181.83 51.96C1182.02 51.52 1182.26 51.14 1182.57 50.82C1182.89 50.5 1183.26 50.2533 1183.69 50.08C1184.12 49.8933 1184.58 49.8 1185.09 49.8C1185.58 49.8 1186.04 49.8933 1186.47 50.08C1186.91 50.2533 1187.28 50.5 1187.59 50.82C1187.91 51.14 1188.16 51.52 1188.33 51.96C1188.52 52.4 1188.61 52.8733 1188.61 53.38C1188.61 53.8867 1188.52 54.36 1188.33 54.8C1188.16 55.24 1187.91 55.62 1187.59 55.94C1187.28 56.26 1186.91 56.5133 1186.47 56.7C1186.04 56.8733 1185.58 56.96 1185.09 56.96ZM1185.09 55.4C1185.66 55.4 1186.11 55.2067 1186.43 54.82C1186.76 54.4333 1186.93 53.9533 1186.93 53.38C1186.93 52.8067 1186.76 52.3267 1186.43 51.94C1186.11 51.5533 1185.66 51.36 1185.09 51.36C1184.52 51.36 1184.06 51.5533 1183.73 51.94C1183.41 52.3267 1183.25 52.8067 1183.25 53.38C1183.25 53.9533 1183.41 54.4333 1183.73 54.82C1184.06 55.2067 1184.52 55.4 1185.09 55.4ZM1199.94 52H1193.74L1193.38 56.94H1193.52C1193.68 56.66 1193.85 56.4133 1194.02 56.2C1194.2 55.9733 1194.4 55.78 1194.62 55.62C1194.85 55.46 1195.11 55.34 1195.4 55.26C1195.7 55.1667 1196.04 55.12 1196.44 55.12C1197.04 55.12 1197.6 55.22 1198.1 55.42C1198.62 55.62 1199.07 55.9067 1199.44 56.28C1199.83 56.6533 1200.13 57.1133 1200.34 57.66C1200.56 58.1933 1200.66 58.8 1200.66 59.48C1200.66 60.1733 1200.55 60.8133 1200.32 61.4C1200.11 61.9867 1199.79 62.4933 1199.36 62.92C1198.94 63.3333 1198.41 63.66 1197.78 63.9C1197.17 64.1267 1196.47 64.24 1195.68 64.24C1195.06 64.24 1194.5 64.1667 1194.02 64.02C1193.54 63.8867 1193.12 63.7067 1192.74 63.48C1192.38 63.24 1192.06 62.9733 1191.78 62.68C1191.52 62.3733 1191.28 62.06 1191.06 61.74L1192.7 60.44C1192.88 60.72 1193.06 60.9733 1193.24 61.2C1193.43 61.4267 1193.64 61.6267 1193.88 61.8C1194.12 61.9733 1194.39 62.1067 1194.68 62.2C1194.99 62.2933 1195.34 62.34 1195.72 62.34C1196.55 62.34 1197.18 62.1133 1197.62 61.66C1198.08 61.2067 1198.3 60.58 1198.3 59.78V59.54C1198.3 58.74 1198.08 58.1133 1197.62 57.66C1197.18 57.2067 1196.55 56.98 1195.72 56.98C1195.12 56.98 1194.64 57.0933 1194.28 57.32C1193.92 57.5467 1193.62 57.8 1193.36 58.08L1191.5 57.82L1192.02 50.04H1199.94V52ZM1207.78 64.24C1206.91 64.24 1206.16 64.08 1205.52 63.76C1204.88 63.4267 1204.35 62.9533 1203.94 62.34C1203.52 61.7267 1203.22 60.9733 1203.02 60.08C1202.82 59.1867 1202.72 58.1667 1202.72 57.02C1202.72 55.8867 1202.82 54.8733 1203.02 53.98C1203.22 53.0733 1203.52 52.3133 1203.94 51.7C1204.35 51.0867 1204.88 50.62 1205.52 50.3C1206.16 49.9667 1206.91 49.8 1207.78 49.8C1209.51 49.8 1210.78 50.4333 1211.6 51.7C1212.42 52.9667 1212.84 54.74 1212.84 57.02C1212.84 59.3 1212.42 61.0733 1211.6 62.34C1210.78 63.6067 1209.51 64.24 1207.78 64.24ZM1207.78 62.32C1208.26 62.32 1208.66 62.2267 1209 62.04C1209.34 61.84 1209.62 61.56 1209.84 61.2C1210.05 60.84 1210.2 60.4133 1210.3 59.92C1210.39 59.4133 1210.44 58.8533 1210.44 58.24V55.8C1210.44 55.1867 1210.39 54.6333 1210.3 54.14C1210.2 53.6333 1210.05 53.2 1209.84 52.84C1209.62 52.48 1209.34 52.2067 1209 52.02C1208.66 51.82 1208.26 51.72 1207.78 51.72C1207.3 51.72 1206.88 51.82 1206.54 52.02C1206.2 52.2067 1205.93 52.48 1205.72 52.84C1205.5 53.2 1205.35 53.6333 1205.26 54.14C1205.16 54.6333 1205.12 55.1867 1205.12 55.8V58.24C1205.12 58.8533 1205.16 59.4133 1205.26 59.92C1205.35 60.4133 1205.5 60.84 1205.72 61.2C1205.93 61.56 1206.2 61.84 1206.54 62.04C1206.88 62.2267 1207.3 62.32 1207.78 62.32ZM1216.67 64.24C1216.17 64.24 1215.81 64.1133 1215.57 63.86C1215.33 63.5933 1215.21 63.2667 1215.21 62.88V62.58C1215.21 62.1933 1215.33 61.8733 1215.57 61.62C1215.81 61.3533 1216.17 61.22 1216.67 61.22C1217.16 61.22 1217.53 61.3533 1217.77 61.62C1218.01 61.8733 1218.13 62.1933 1218.13 62.58V62.88C1218.13 63.2667 1218.01 63.5933 1217.77 63.86C1217.53 64.1133 1217.16 64.24 1216.67 64.24ZM1225.57 64.24C1224.7 64.24 1223.95 64.08 1223.31 63.76C1222.67 63.4267 1222.14 62.9533 1221.73 62.34C1221.32 61.7267 1221.01 60.9733 1220.81 60.08C1220.61 59.1867 1220.51 58.1667 1220.51 57.02C1220.51 55.8867 1220.61 54.8733 1220.81 53.98C1221.01 53.0733 1221.32 52.3133 1221.73 51.7C1222.14 51.0867 1222.67 50.62 1223.31 50.3C1223.95 49.9667 1224.7 49.8 1225.57 49.8C1227.3 49.8 1228.58 50.4333 1229.39 51.7C1230.22 52.9667 1230.63 54.74 1230.63 57.02C1230.63 59.3 1230.22 61.0733 1229.39 62.34C1228.58 63.6067 1227.3 64.24 1225.57 64.24ZM1225.57 62.32C1226.05 62.32 1226.46 62.2267 1226.79 62.04C1227.14 61.84 1227.42 61.56 1227.63 61.2C1227.84 60.84 1228 60.4133 1228.09 59.92C1228.18 59.4133 1228.23 58.8533 1228.23 58.24V55.8C1228.23 55.1867 1228.18 54.6333 1228.09 54.14C1228 53.6333 1227.84 53.2 1227.63 52.84C1227.42 52.48 1227.14 52.2067 1226.79 52.02C1226.46 51.82 1226.05 51.72 1225.57 51.72C1225.09 51.72 1224.68 51.82 1224.33 52.02C1224 52.2067 1223.72 52.48 1223.51 52.84C1223.3 53.2 1223.14 53.6333 1223.05 54.14C1222.96 54.6333 1222.91 55.1867 1222.91 55.8V58.24C1222.91 58.8533 1222.96 59.4133 1223.05 59.92C1223.14 60.4133 1223.3 60.84 1223.51 61.2C1223.72 61.56 1224 61.84 1224.33 62.04C1224.68 62.2267 1225.09 62.32 1225.57 62.32ZM1242.38 64H1232.9V61.84L1237.36 57.86C1238.07 57.22 1238.61 56.6133 1238.98 56.04C1239.37 55.4533 1239.56 54.84 1239.56 54.2V53.94C1239.56 53.26 1239.35 52.7267 1238.94 52.34C1238.54 51.9533 1237.99 51.76 1237.3 51.76C1236.91 51.76 1236.57 51.82 1236.28 51.94C1236 52.0467 1235.75 52.2 1235.54 52.4C1235.33 52.6 1235.15 52.8333 1235 53.1C1234.87 53.3667 1234.76 53.6533 1234.68 53.96L1232.7 53.2C1232.85 52.76 1233.05 52.34 1233.3 51.94C1233.55 51.5267 1233.87 51.16 1234.26 50.84C1234.65 50.52 1235.1 50.2667 1235.62 50.08C1236.15 49.8933 1236.77 49.8 1237.48 49.8C1238.19 49.8 1238.82 49.9067 1239.38 50.12C1239.94 50.32 1240.41 50.6067 1240.78 50.98C1241.17 51.34 1241.46 51.7733 1241.66 52.28C1241.86 52.7867 1241.96 53.34 1241.96 53.94C1241.96 54.5 1241.87 55.02 1241.7 55.5C1241.53 55.98 1241.29 56.4333 1240.98 56.86C1240.67 57.2867 1240.31 57.6933 1239.9 58.08C1239.5 58.4667 1239.07 58.86 1238.62 59.26L1235.34 62.08H1242.38V64ZM1249.55 64.24C1248.69 64.24 1247.93 64.08 1247.29 63.76C1246.65 63.4267 1246.13 62.9533 1245.71 62.34C1245.3 61.7267 1244.99 60.9733 1244.79 60.08C1244.59 59.1867 1244.49 58.1667 1244.49 57.02C1244.49 55.8867 1244.59 54.8733 1244.79 53.98C1244.99 53.0733 1245.3 52.3133 1245.71 51.7C1246.13 51.0867 1246.65 50.62 1247.29 50.3C1247.93 49.9667 1248.69 49.8 1249.55 49.8C1251.29 49.8 1252.56 50.4333 1253.37 51.7C1254.2 52.9667 1254.61 54.74 1254.61 57.02C1254.61 59.3 1254.2 61.0733 1253.37 62.34C1252.56 63.6067 1251.29 64.24 1249.55 64.24ZM1249.55 62.32C1250.03 62.32 1250.44 62.2267 1250.77 62.04C1251.12 61.84 1251.4 61.56 1251.61 61.2C1251.83 60.84 1251.98 60.4133 1252.07 59.92C1252.17 59.4133 1252.21 58.8533 1252.21 58.24V55.8C1252.21 55.1867 1252.17 54.6333 1252.07 54.14C1251.98 53.6333 1251.83 53.2 1251.61 52.84C1251.4 52.48 1251.12 52.2067 1250.77 52.02C1250.44 51.82 1250.03 51.72 1249.55 51.72C1249.07 51.72 1248.66 51.82 1248.31 52.02C1247.98 52.2067 1247.71 52.48 1247.49 52.84C1247.28 53.2 1247.13 53.6333 1247.03 54.14C1246.94 54.6333 1246.89 55.1867 1246.89 55.8V58.24C1246.89 58.8533 1246.94 59.4133 1247.03 59.92C1247.13 60.4133 1247.28 60.84 1247.49 61.2C1247.71 61.56 1247.98 61.84 1248.31 62.04C1248.66 62.2267 1249.07 62.32 1249.55 62.32ZM1261.54 64.24C1260.73 64.24 1260.01 64.14 1259.38 63.94C1258.77 63.7267 1258.25 63.44 1257.82 63.08C1257.41 62.72 1257.09 62.2933 1256.86 61.8C1256.65 61.3067 1256.54 60.7733 1256.54 60.2C1256.54 59.2667 1256.8 58.52 1257.3 57.96C1257.82 57.3867 1258.5 56.9867 1259.34 56.76V56.6C1258.62 56.3467 1258.04 55.9467 1257.6 55.4C1257.18 54.8533 1256.96 54.18 1256.96 53.38C1256.96 52.8467 1257.06 52.36 1257.26 51.92C1257.48 51.48 1257.78 51.1067 1258.16 50.8C1258.55 50.48 1259.03 50.2333 1259.6 50.06C1260.18 49.8867 1260.82 49.8 1261.54 49.8C1262.26 49.8 1262.91 49.8867 1263.48 50.06C1264.06 50.2333 1264.54 50.48 1264.92 50.8C1265.31 51.1067 1265.6 51.48 1265.8 51.92C1266.02 52.36 1266.12 52.8467 1266.12 53.38C1266.12 54.18 1265.9 54.8533 1265.46 55.4C1265.04 55.9467 1264.46 56.3467 1263.74 56.6V56.76C1264.58 56.9867 1265.26 57.3867 1265.76 57.96C1266.28 58.52 1266.54 59.2667 1266.54 60.2C1266.54 60.7733 1266.43 61.3067 1266.2 61.8C1265.99 62.2933 1265.67 62.72 1265.24 63.08C1264.83 63.44 1264.31 63.7267 1263.68 63.94C1263.07 64.14 1262.36 64.24 1261.54 64.24ZM1261.54 62.42C1262.38 62.42 1263.03 62.2267 1263.48 61.84C1263.95 61.4533 1264.18 60.9133 1264.18 60.22V59.82C1264.18 59.1267 1263.95 58.5867 1263.48 58.2C1263.03 57.8133 1262.38 57.62 1261.54 57.62C1260.7 57.62 1260.05 57.8133 1259.58 58.2C1259.13 58.5867 1258.9 59.1267 1258.9 59.82V60.22C1258.9 60.9133 1259.13 61.4533 1259.58 61.84C1260.05 62.2267 1260.7 62.42 1261.54 62.42ZM1261.54 55.88C1262.32 55.88 1262.9 55.7133 1263.3 55.38C1263.72 55.0467 1263.92 54.56 1263.92 53.92V53.58C1263.92 52.94 1263.72 52.4533 1263.3 52.12C1262.9 51.7867 1262.32 51.62 1261.54 51.62C1260.77 51.62 1260.18 51.7867 1259.76 52.12C1259.36 52.4533 1259.16 52.94 1259.16 53.58V53.92C1259.16 54.56 1259.36 55.0467 1259.76 55.38C1260.18 55.7133 1260.77 55.88 1261.54 55.88ZM1268.48 56.72L1269.66 50.04H1271.66L1270.48 56.72H1268.48Z" fill="#C9C9C9"/>
<rect y="96" width="96" height="11" transform="rotate(-90 0 96)" fill="#2D2D2D"/>
<rect y="85" width="96" height="11" fill="#2D2D2D"/>
<path d="M38.0505 64H28.5705V61.84L33.0305 57.86C33.7371 57.22 34.2771 56.6133 34.6505 56.04C35.0371 55.4533 35.2305 54.84 35.2305 54.2V53.94C35.2305 53.26 35.0238 52.7267 34.6105 52.34C34.2105 51.9533 33.6638 51.76 32.9705 51.76C32.5838 51.76 32.2438 51.82 31.9505 51.94C31.6705 52.0467 31.4238 52.2 31.2105 52.4C30.9971 52.6 30.8171 52.8333 30.6705 53.1C30.5371 53.3667 30.4305 53.6533 30.3505 53.96L28.3705 53.2C28.5171 52.76 28.7171 52.34 28.9705 51.94C29.2238 51.5267 29.5438 51.16 29.9305 50.84C30.3171 50.52 30.7705 50.2667 31.2905 50.08C31.8238 49.8933 32.4438 49.8 33.1505 49.8C33.8571 49.8 34.4905 49.9067 35.0505 50.12C35.6105 50.32 36.0771 50.6067 36.4505 50.98C36.8371 51.34 37.1305 51.7733 37.3305 52.28C37.5305 52.7867 37.6305 53.34 37.6305 53.94C37.6305 54.5 37.5438 55.02 37.3705 55.5C37.1971 55.98 36.9571 56.4333 36.6505 56.86C36.3438 57.2867 35.9838 57.6933 35.5705 58.08C35.1705 58.4667 34.7438 58.86 34.2905 59.26L31.0105 62.08H38.0505V64ZM46.4027 64V61.28H39.9227V59.34L45.5827 50.04H48.5427V59.5H50.4427V61.28H48.5427V64H46.4027ZM41.8427 59.5H46.4027V52.1H46.2627L41.8427 59.5ZM54.1148 64.24C53.6215 64.24 53.2548 64.1133 53.0148 63.86C52.7748 63.5933 52.6548 63.2667 52.6548 62.88V62.58C52.6548 62.1933 52.7748 61.8733 53.0148 61.62C53.2548 61.3533 53.6215 61.22 54.1148 61.22C54.6082 61.22 54.9748 61.3533 55.2148 61.62C55.4548 61.8733 55.5748 62.1933 55.5748 62.58V62.88C55.5748 63.2667 55.4548 63.5933 55.2148 63.86C54.9748 64.1133 54.6082 64.24 54.1148 64.24ZM63.0156 64.24C62.149 64.24 61.3956 64.08 60.7556 63.76C60.1156 63.4267 59.589 62.9533 59.1756 62.34C58.7623 61.7267 58.4556 60.9733 58.2556 60.08C58.0556 59.1867 57.9556 58.1667 57.9556 57.02C57.9556 55.8867 58.0556 54.8733 58.2556 53.98C58.4556 53.0733 58.7623 52.3133 59.1756 51.7C59.589 51.0867 60.1156 50.62 60.7556 50.3C61.3956 49.9667 62.149 49.8 63.0156 49.8C64.749 49.8 66.0223 50.4333 66.8356 51.7C67.6623 52.9667 68.0756 54.74 68.0756 57.02C68.0756 59.3 67.6623 61.0733 66.8356 62.34C66.0223 63.6067 64.749 64.24 63.0156 64.24ZM63.0156 62.32C63.4956 62.32 63.9023 62.2267 64.2356 62.04C64.5823 61.84 64.8623 61.56 65.0756 61.2C65.289 60.84 65.4423 60.4133 65.5356 59.92C65.629 59.4133 65.6756 58.8533 65.6756 58.24V55.8C65.6756 55.1867 65.629 54.6333 65.5356 54.14C65.4423 53.6333 65.289 53.2 65.0756 52.84C64.8623 52.48 64.5823 52.2067 64.2356 52.02C63.9023 51.82 63.4956 51.72 63.0156 51.72C62.5356 51.72 62.1223 51.82 61.7756 52.02C61.4423 52.2067 61.169 52.48 60.9556 52.84C60.7423 53.2 60.589 53.6333 60.4956 54.14C60.4023 54.6333 60.3556 55.1867 60.3556 55.8V58.24C60.3556 58.8533 60.4023 59.4133 60.4956 59.92C60.589 60.4133 60.7423 60.84 60.9556 61.2C61.169 61.56 61.4423 61.84 61.7756 62.04C62.1223 62.2267 62.5356 62.32 63.0156 62.32ZM75.0478 64.24C74.2745 64.24 73.5811 64.1133 72.9678 63.86C72.3678 63.6067 71.8545 63.2467 71.4278 62.78C71.0145 62.3 70.6945 61.7267 70.4678 61.06C70.2411 60.3933 70.1278 59.64 70.1278 58.8C70.1278 57.7867 70.2811 56.8333 70.5878 55.94C70.8945 55.0467 71.2878 54.2267 71.7678 53.48C72.2478 52.7333 72.7811 52.0733 73.3678 51.5C73.9678 50.9133 74.5545 50.4267 75.1278 50.04H78.1278C77.3411 50.6133 76.6345 51.1667 76.0078 51.7C75.3811 52.2333 74.8345 52.78 74.3678 53.34C73.9011 53.9 73.5078 54.4933 73.1878 55.12C72.8811 55.7467 72.6411 56.4333 72.4678 57.18L72.6078 57.22C72.7545 56.94 72.9211 56.68 73.1078 56.44C73.3078 56.1867 73.5345 55.9667 73.7878 55.78C74.0545 55.5933 74.3545 55.4467 74.6878 55.34C75.0211 55.2333 75.4078 55.18 75.8478 55.18C76.4345 55.18 76.9745 55.28 77.4678 55.48C77.9745 55.68 78.4078 55.9733 78.7678 56.36C79.1411 56.7333 79.4278 57.1867 79.6278 57.72C79.8411 58.2533 79.9478 58.8467 79.9478 59.5C79.9478 60.2067 79.8278 60.8533 79.5878 61.44C79.3611 62.0133 79.0345 62.5067 78.6078 62.92C78.1811 63.3333 77.6611 63.66 77.0478 63.9C76.4478 64.1267 75.7811 64.24 75.0478 64.24ZM75.0478 62.4C75.8611 62.4 76.4945 62.1867 76.9478 61.76C77.4011 61.32 77.6278 60.68 77.6278 59.84V59.56C77.6278 58.72 77.4011 58.0867 76.9478 57.66C76.4945 57.22 75.8611 57 75.0478 57C74.2345 57 73.6011 57.22 73.1478 57.66C72.6945 58.0867 72.4678 58.72 72.4678 59.56V59.84C72.4678 60.68 72.6945 61.32 73.1478 61.76C73.6011 62.1867 74.2345 62.4 75.0478 62.4ZM83.9 64.24C83.4067 64.24 83.04 64.1133 82.8 63.86C82.56 63.5933 82.44 63.2667 82.44 62.88V62.58C82.44 62.1933 82.56 61.8733 82.8 61.62C83.04 61.3533 83.4067 61.22 83.9 61.22C84.3933 61.22 84.76 61.3533 85 61.62C85.24 61.8733 85.36 62.1933 85.36 62.58V62.88C85.36 63.2667 85.24 63.5933 85 63.86C84.76 64.1133 84.3933 64.24 83.9 64.24ZM97.6208 64H88.1408V61.84L92.6008 57.86C93.3074 57.22 93.8474 56.6133 94.2208 56.04C94.6074 55.4533 94.8008 54.84 94.8008 54.2V53.94C94.8008 53.26 94.5941 52.7267 94.1808 52.34C93.7808 51.9533 93.2341 51.76 92.5408 51.76C92.1541 51.76 91.8141 51.82 91.5208 51.94C91.2408 52.0467 90.9941 52.2 90.7808 52.4C90.5674 52.6 90.3874 52.8333 90.2408 53.1C90.1074 53.3667 90.0008 53.6533 89.9208 53.96L87.9408 53.2C88.0874 52.76 88.2874 52.34 88.5408 51.94C88.7941 51.5267 89.1141 51.16 89.5008 50.84C89.8874 50.52 90.3408 50.2667 90.8608 50.08C91.3941 49.8933 92.0141 49.8 92.7208 49.8C93.4274 49.8 94.0608 49.9067 94.6208 50.12C95.1808 50.32 95.6474 50.6067 96.0208 50.98C96.4074 51.34 96.7008 51.7733 96.9008 52.28C97.1008 52.7867 97.2008 53.34 97.2008 53.94C97.2008 54.5 97.1141 55.02 96.9408 55.5C96.7674 55.98 96.5274 56.4333 96.2208 56.86C95.9141 57.2867 95.5541 57.6933 95.1408 58.08C94.7408 58.4667 94.3141 58.86 93.8608 59.26L90.5808 62.08H97.6208V64ZM104.793 64.24C103.926 64.24 103.173 64.08 102.533 63.76C101.893 63.4267 101.366 62.9533 100.953 62.34C100.54 61.7267 100.233 60.9733 100.033 60.08C99.833 59.1867 99.733 58.1667 99.733 57.02C99.733 55.8867 99.833 54.8733 100.033 53.98C100.233 53.0733 100.54 52.3133 100.953 51.7C101.366 51.0867 101.893 50.62 102.533 50.3C103.173 49.9667 103.926 49.8 104.793 49.8C106.526 49.8 107.8 50.4333 108.613 51.7C109.44 52.9667 109.853 54.74 109.853 57.02C109.853 59.3 109.44 61.0733 108.613 62.34C107.8 63.6067 106.526 64.24 104.793 64.24ZM104.793 62.32C105.273 62.32 105.68 62.2267 106.013 62.04C106.36 61.84 106.64 61.56 106.853 61.2C107.066 60.84 107.22 60.4133 107.313 59.92C107.406 59.4133 107.453 58.8533 107.453 58.24V55.8C107.453 55.1867 107.406 54.6333 107.313 54.14C107.22 53.6333 107.066 53.2 106.853 52.84C106.64 52.48 106.36 52.2067 106.013 52.02C105.68 51.82 105.273 51.72 104.793 51.72C104.313 51.72 103.9 51.82 103.553 52.02C103.22 52.2067 102.946 52.48 102.733 52.84C102.52 53.2 102.366 53.6333 102.273 54.14C102.18 54.6333 102.133 55.1867 102.133 55.8V58.24C102.133 58.8533 102.18 59.4133 102.273 59.92C102.366 60.4133 102.52 60.84 102.733 61.2C102.946 61.56 103.22 61.84 103.553 62.04C103.9 62.2267 104.313 62.32 104.793 62.32ZM121.605 64H112.125V61.84L116.585 57.86C117.292 57.22 117.832 56.6133 118.205 56.04C118.592 55.4533 118.785 54.84 118.785 54.2V53.94C118.785 53.26 118.578 52.7267 118.165 52.34C117.765 51.9533 117.218 51.76 116.525 51.76C116.138 51.76 115.798 51.82 115.505 51.94C115.225 52.0467 114.978 52.2 114.765 52.4C114.552 52.6 114.372 52.8333 114.225 53.1C114.092 53.3667 113.985 53.6533 113.905 53.96L111.925 53.2C112.072 52.76 112.272 52.34 112.525 51.94C112.778 51.5267 113.098 51.16 113.485 50.84C113.872 50.52 114.325 50.2667 114.845 50.08C115.378 49.8933 115.998 49.8 116.705 49.8C117.412 49.8 118.045 49.9067 118.605 50.12C119.165 50.32 119.632 50.6067 120.005 50.98C120.392 51.34 120.685 51.7733 120.885 52.28C121.085 52.7867 121.185 53.34 121.185 53.94C121.185 54.5 121.098 55.02 120.925 55.5C120.752 55.98 120.512 56.4333 120.205 56.86C119.898 57.2867 119.538 57.6933 119.125 58.08C118.725 58.4667 118.298 58.86 117.845 59.26L114.565 62.08H121.605V64ZM128.017 55.78C128.884 55.78 129.524 55.6 129.937 55.24C130.351 54.8667 130.557 54.3933 130.557 53.82V53.68C130.557 53.04 130.357 52.5533 129.957 52.22C129.557 51.8733 129.017 51.7 128.337 51.7C127.671 51.7 127.104 51.8533 126.637 52.16C126.171 52.4533 125.777 52.8667 125.457 53.4L123.957 52.1C124.171 51.7933 124.411 51.5 124.677 51.22C124.944 50.94 125.257 50.7 125.617 50.5C125.977 50.2867 126.384 50.12 126.837 50C127.291 49.8667 127.811 49.8 128.397 49.8C129.051 49.8 129.657 49.88 130.217 50.04C130.777 50.2 131.257 50.44 131.657 50.76C132.057 51.0667 132.371 51.4467 132.597 51.9C132.824 52.34 132.937 52.84 132.937 53.4C132.937 53.84 132.864 54.24 132.717 54.6C132.584 54.96 132.391 55.28 132.137 55.56C131.897 55.8267 131.611 56.0467 131.277 56.22C130.957 56.3933 130.617 56.52 130.257 56.6V56.7C130.657 56.78 131.031 56.9133 131.377 57.1C131.737 57.2733 132.051 57.5067 132.317 57.8C132.584 58.08 132.791 58.42 132.937 58.82C133.097 59.2067 133.177 59.6533 133.177 60.16C133.177 60.7733 133.057 61.3333 132.817 61.84C132.577 62.3333 132.237 62.76 131.797 63.12C131.371 63.48 130.851 63.76 130.237 63.96C129.624 64.1467 128.944 64.24 128.197 64.24C127.544 64.24 126.971 64.1667 126.477 64.02C125.984 63.8867 125.544 63.7067 125.157 63.48C124.784 63.24 124.451 62.9733 124.157 62.68C123.877 62.3733 123.631 62.06 123.417 61.74L125.077 60.44C125.251 60.72 125.431 60.98 125.617 61.22C125.817 61.4467 126.037 61.6467 126.277 61.82C126.531 61.98 126.811 62.1067 127.117 62.2C127.437 62.2933 127.797 62.34 128.197 62.34C129.051 62.34 129.704 62.14 130.157 61.74C130.611 61.3267 130.837 60.76 130.837 60.04V59.9C130.837 59.18 130.597 58.6333 130.117 58.26C129.637 57.8867 128.957 57.7 128.077 57.7H126.597V55.78H128.017Z" fill="#FA6232"/>
<path d="M573.333 52.6444C573.393 52.6546 573.446 52.6597 573.493 52.6597C573.552 52.6597 573.611 52.6597 573.67 52.6597H573.989C574.308 52.6597 574.61 52.6241 574.893 52.5528C575.189 52.4713 575.443 52.3593 575.656 52.2167C575.88 52.0639 576.057 51.8755 576.187 51.6514C576.317 51.4273 576.382 51.1727 576.382 50.8875C576.382 50.3069 576.17 49.8741 575.744 49.5889C575.319 49.2935 574.787 49.1458 574.149 49.1458C573.747 49.1458 573.393 49.212 573.085 49.3444C572.79 49.4667 572.542 49.6347 572.341 49.8486C572.152 50.0625 572.01 50.312 571.915 50.5972C571.821 50.8824 571.774 51.1829 571.774 51.4986H570.267C570.291 50.9792 570.385 50.5056 570.551 50.0778C570.728 49.65 570.976 49.2833 571.295 48.9778C571.614 48.6722 572.01 48.4329 572.483 48.2597C572.967 48.0866 573.523 48 574.149 48C574.692 48 575.195 48.0611 575.656 48.1833C576.128 48.2954 576.536 48.4685 576.879 48.7028C577.221 48.937 577.487 49.2375 577.676 49.6042C577.877 49.9708 577.978 50.4037 577.978 50.9028C577.978 51.3917 577.812 51.8245 577.481 52.2014C577.15 52.5782 576.737 52.8634 576.24 53.0569V53.0875C577.009 53.2301 577.576 53.5407 577.942 54.0194C578.32 54.4981 578.509 55.0634 578.509 55.7153C578.509 56.2551 578.391 56.7338 578.155 57.1514C577.93 57.5588 577.623 57.9 577.233 58.175C576.843 58.45 576.382 58.6588 575.851 58.8014C575.331 58.9338 574.775 59 574.184 59C573.546 59 572.967 58.9236 572.447 58.7708C571.927 58.6181 571.484 58.394 571.118 58.0986C570.751 57.7931 570.468 57.4213 570.267 56.9833C570.078 56.5454 569.989 56.0463 570.001 55.4861H571.508C571.531 56.1889 571.768 56.7644 572.217 57.2125C572.666 57.6505 573.322 57.8694 574.184 57.8694C574.551 57.8694 574.899 57.8236 575.23 57.7319C575.561 57.6301 575.851 57.4926 576.099 57.3194C576.347 57.1361 576.542 56.9171 576.684 56.6625C576.837 56.3977 576.914 56.1023 576.914 55.7764C576.914 55.4403 576.843 55.1449 576.701 54.8903C576.56 54.6255 576.37 54.4065 576.134 54.2333C575.898 54.05 575.614 53.9176 575.283 53.8361C574.964 53.7444 574.616 53.6986 574.237 53.6986C573.918 53.6986 573.617 53.7139 573.333 53.7444V52.6444Z" fill="#C9C9C9"/>
<path d="M581.145 57.1361H583.112V58.8319H581.145V57.1361Z" fill="#C9C9C9"/>
<path d="M586.432 57.1361H588.4V58.8319H586.432V57.1361Z" fill="#C9C9C9"/>
<path d="M591.72 57.1361H593.688V58.8319H591.72V57.1361Z" fill="#C9C9C9"/>
<path d="M596.317 51.8347C596.282 51.2847 596.347 50.7755 596.512 50.3069C596.677 49.8384 596.931 49.4361 597.274 49.1C597.629 48.7537 598.066 48.4838 598.586 48.2903C599.106 48.0968 599.697 48 600.358 48C600.902 48 601.41 48.0713 601.883 48.2139C602.367 48.3463 602.787 48.5449 603.141 48.8097C603.496 49.0644 603.774 49.3852 603.974 49.7722C604.187 50.1593 604.294 50.6074 604.294 51.1167C604.294 51.5954 604.205 52.0181 604.028 52.3847C603.862 52.7514 603.638 53.0824 603.354 53.3778C603.07 53.663 602.745 53.9227 602.379 54.1569C602.013 54.3912 601.635 54.6153 601.245 54.8292C600.855 55.0329 600.465 55.2366 600.075 55.4403C599.685 55.6338 599.324 55.8426 598.994 56.0667C598.675 56.2907 598.397 56.5352 598.16 56.8C597.936 57.0546 597.788 57.35 597.717 57.6861H604.169V58.8319H595.962C596.022 58.1903 596.152 57.6454 596.352 57.1972C596.565 56.7389 596.831 56.3417 597.15 56.0056C597.469 55.6694 597.83 55.3741 598.231 55.1194C598.633 54.8648 599.053 54.6255 599.49 54.4014C600.022 54.1162 600.488 53.8565 600.89 53.6222C601.292 53.3778 601.623 53.1333 601.883 52.8889C602.155 52.6444 602.356 52.3796 602.486 52.0944C602.627 51.8093 602.698 51.4782 602.698 51.1014C602.698 50.806 602.633 50.5412 602.503 50.3069C602.373 50.0625 602.196 49.8537 601.971 49.6806C601.759 49.5074 601.505 49.375 601.209 49.2833C600.914 49.1917 600.601 49.1458 600.27 49.1458C599.833 49.1458 599.454 49.2273 599.135 49.3903C598.828 49.5431 598.574 49.7468 598.373 50.0014C598.172 50.256 598.025 50.5463 597.93 50.8722C597.847 51.188 597.812 51.5088 597.824 51.8347H596.317Z" fill="#C9C9C9"/>
<path d="M607.212 57.1361H609.18V58.8319H607.212V57.1361Z" fill="#C9C9C9"/>
<path d="M612.5 57.1361H614.468V58.8319H612.5V57.1361Z" fill="#C9C9C9"/>
<path d="M617.788 57.1361H619.756V58.8319H617.788V57.1361Z" fill="#C9C9C9"/>
<path d="M627.915 58.8319H626.409V51.0708H623.147V50.0319C623.572 50.0319 623.986 50.0065 624.388 49.9556C624.79 49.8944 625.15 49.7875 625.469 49.6347C625.8 49.4819 626.078 49.2731 626.302 49.0083C626.527 48.7435 626.68 48.4074 626.763 48H627.915V58.8319Z" fill="#C9C9C9"/>
<path d="M633.28 57.1361H635.248V58.8319H633.28V57.1361Z" fill="#C9C9C9"/>
<path d="M638.568 57.1361H640.536V58.8319H638.568V57.1361Z" fill="#C9C9C9"/>
<path d="M643.856 57.1361H645.823V58.8319H643.856V57.1361Z" fill="#C9C9C9"/>
<path d="M654.432 57.1361H656.399V58.8319H654.432V57.1361Z" fill="#C9C9C9"/>
<path d="M659.72 57.1361H661.687V58.8319H659.72V57.1361Z" fill="#C9C9C9"/>
<path d="M665.008 57.1361H666.975V58.8319H665.008V57.1361Z" fill="#C9C9C9"/>
<path d="M675.135 58.8319H673.628V51.0708H670.366V50.0319C670.792 50.0319 671.205 50.0065 671.607 49.9556C672.009 49.8944 672.369 49.7875 672.689 49.6347C673.019 49.4819 673.297 49.2731 673.522 49.0083C673.746 48.7435 673.9 48.4074 673.983 48H675.135V58.8319Z" fill="#C9C9C9"/>
<path d="M680.5 57.1361H682.467V58.8319H680.5V57.1361Z" fill="#C9C9C9"/>
<path d="M685.788 57.1361H687.755V58.8319H685.788V57.1361Z" fill="#C9C9C9"/>
<path d="M691.075 57.1361H693.043V58.8319H691.075V57.1361Z" fill="#C9C9C9"/>
<path d="M695.672 51.8347C695.637 51.2847 695.702 50.7755 695.867 50.3069C696.032 49.8384 696.287 49.4361 696.629 49.1C696.984 48.7537 697.421 48.4838 697.941 48.2903C698.461 48.0968 699.052 48 699.714 48C700.257 48 700.765 48.0713 701.238 48.2139C701.722 48.3463 702.142 48.5449 702.496 48.8097C702.851 49.0644 703.129 49.3852 703.33 49.7722C703.542 50.1593 703.649 50.6074 703.649 51.1167C703.649 51.5954 703.56 52.0181 703.383 52.3847C703.217 52.7514 702.993 53.0824 702.709 53.3778C702.426 53.663 702.101 53.9227 701.734 54.1569C701.368 54.3912 700.99 54.6153 700.6 54.8292C700.21 55.0329 699.82 55.2366 699.43 55.4403C699.04 55.6338 698.68 55.8426 698.349 56.0667C698.03 56.2907 697.752 56.5352 697.516 56.8C697.291 57.0546 697.143 57.35 697.072 57.6861H703.525V58.8319H695.318C695.377 58.1903 695.507 57.6454 695.708 57.1972C695.92 56.7389 696.186 56.3417 696.505 56.0056C696.824 55.6694 697.185 55.3741 697.586 55.1194C697.988 54.8648 698.408 54.6255 698.845 54.4014C699.377 54.1162 699.844 53.8565 700.245 53.6222C700.647 53.3778 700.978 53.1333 701.238 52.8889C701.51 52.6444 701.711 52.3796 701.841 52.0944C701.982 51.8093 702.053 51.4782 702.053 51.1014C702.053 50.806 701.988 50.5412 701.858 50.3069C701.728 50.0625 701.551 49.8537 701.327 49.6806C701.114 49.5074 700.86 49.375 700.564 49.2833C700.269 49.1917 699.956 49.1458 699.625 49.1458C699.188 49.1458 698.81 49.2273 698.49 49.3903C698.183 49.5431 697.929 49.7468 697.728 50.0014C697.527 50.256 697.38 50.5463 697.285 50.8722C697.202 51.188 697.167 51.5088 697.179 51.8347H695.672Z" fill="#C9C9C9"/>
<path d="M706.567 57.1361H708.535V58.8319H706.567V57.1361Z" fill="#C9C9C9"/>
<path d="M711.855 57.1361H713.823V58.8319H711.855V57.1361Z" fill="#C9C9C9"/>
<path d="M717.143 57.1361H719.111V58.8319H717.143V57.1361Z" fill="#C9C9C9"/>
<path d="M724.824 52.6444C724.883 52.6546 724.936 52.6597 724.984 52.6597C725.043 52.6597 725.102 52.6597 725.161 52.6597H725.48C725.799 52.6597 726.1 52.6241 726.384 52.5528C726.679 52.4713 726.933 52.3593 727.146 52.2167C727.371 52.0639 727.548 51.8755 727.678 51.6514C727.808 51.4273 727.873 51.1727 727.873 50.8875C727.873 50.3069 727.66 49.8741 727.235 49.5889C726.809 49.2935 726.278 49.1458 725.639 49.1458C725.238 49.1458 724.883 49.212 724.576 49.3444C724.281 49.4667 724.032 49.6347 723.831 49.8486C723.642 50.0625 723.501 50.312 723.406 50.5972C723.312 50.8824 723.264 51.1829 723.264 51.4986H721.758C721.781 50.9792 721.876 50.5056 722.041 50.0778C722.218 49.65 722.467 49.2833 722.786 48.9778C723.105 48.6722 723.501 48.4329 723.973 48.2597C724.458 48.0866 725.013 48 725.639 48C726.183 48 726.685 48.0611 727.146 48.1833C727.619 48.2954 728.027 48.4685 728.369 48.7028C728.712 48.937 728.978 49.2375 729.167 49.6042C729.368 49.9708 729.468 50.4037 729.468 50.9028C729.468 51.3917 729.303 51.8245 728.972 52.2014C728.641 52.5782 728.227 52.8634 727.731 53.0569V53.0875C728.499 53.2301 729.066 53.5407 729.433 54.0194C729.811 54.4981 730 55.0634 730 55.7153C730 56.2551 729.882 56.7338 729.646 57.1514C729.421 57.5588 729.114 57.9 728.724 58.175C728.334 58.45 727.873 58.6588 727.341 58.8014C726.821 58.9338 726.266 59 725.675 59C725.037 59 724.458 58.9236 723.938 58.7708C723.418 58.6181 722.975 58.394 722.608 58.0986C722.242 57.7931 721.958 57.4213 721.758 56.9833C721.568 56.5454 721.48 56.0463 721.492 55.4861H722.998C723.022 56.1889 723.258 56.7644 723.707 57.2125C724.156 57.6505 724.812 57.8694 725.675 57.8694C726.041 57.8694 726.39 57.8236 726.721 57.7319C727.052 57.6301 727.341 57.4926 727.589 57.3194C727.837 57.1361 728.032 56.9171 728.174 56.6625C728.328 56.3977 728.405 56.1023 728.405 55.7764C728.405 55.4403 728.334 55.1449 728.192 54.8903C728.05 54.6255 727.861 54.4065 727.625 54.2333C727.388 54.05 727.105 53.9176 726.774 53.8361C726.455 53.7444 726.106 53.6986 725.728 53.6986C725.409 53.6986 725.108 53.7139 724.824 53.7444V52.6444Z" fill="#C9C9C9"/>
<path d="M650 57L645 37L655 37L650 57Z" fill="#C9C9C9"/>
</svg>
