<svg width="744" height="220" viewBox="0 0 744 220" fill="none" xmlns="http://www.w3.org/2000/svg">
<path d="M306.128 115.46H323.936C315.244 163.796 279.204 181.604 245.284 181.604C196.1 181.604 164.512 146.412 164.512 92.14C164.512 64.58 172.78 41.472 188.256 25.572C202.672 10.944 222.812 2.88799 245.284 2.88799C285.564 2.88799 313.972 25.996 322.876 64.792H305.068C295.952 32.356 270.088 20.272 245.072 20.272C214.12 20.272 181.896 40.836 181.896 92.14C181.896 145.352 214.12 164.22 245.072 164.22C277.508 164.22 299.344 146.836 306.128 115.46ZM427.091 128.816H351.407L333.811 178H315.579L379.815 6.492H399.107L463.343 178H444.687L427.091 128.816ZM389.355 22.604L357.555 112.068H421.155L389.355 22.604ZM481.257 48.892C481.257 99.772 583.865 61.612 583.865 130.936C583.865 153.196 567.965 181.604 521.749 181.604C480.621 181.604 459.633 152.136 459.633 127.12H477.017C477.017 145.14 494.189 164.22 523.445 164.22C555.033 164.22 566.693 146.836 566.693 128.816C566.693 80.48 463.873 118.428 463.873 48.256C463.873 23.028 484.437 3.09999 520.901 3.09999C555.033 3.09999 576.233 24.088 576.233 53.556H558.849C558.849 34.688 544.645 20.484 520.901 20.484C497.581 20.484 481.257 30.236 481.257 48.892ZM743.747 23.24H671.879V178H654.495V23.24H582.839V6.492H743.747V23.24Z" fill="white"/>
<path d="M64.0065 66.2913L19.4641 7H41.0719L74.8105 54.6723L110.065 7H130.157L85.4248 66.2913L133 129H111.013L74.6209 78.5938L37.0915 129H17L64.0065 66.2913Z" fill="white"/>
<path d="M273 93.5L228 116L228 71L273 93.5Z" fill="#FA6232"/>
<path d="M19 178.269V135.731H37.0236C40.9087 135.731 43.9126 136.889 46.0354 139.205C48.1582 141.521 49.2196 144.629 49.2196 148.529C49.2196 152.429 48.1582 155.537 46.0354 157.853C43.9126 160.169 40.9087 161.327 37.0236 161.327H25.7889V178.269H19ZM25.7889 155.294H36.6031C38.3253 155.294 39.6671 154.847 40.6283 153.953C41.5896 153.018 42.0702 151.698 42.0702 149.992V147.066C42.0702 145.36 41.5896 144.06 40.6283 143.166C39.6671 142.232 38.3253 141.765 36.6031 141.765H25.7889V155.294Z" fill="#C9C9C9"/>
<path d="M72.8878 179C70.1642 179 67.6809 178.533 65.438 177.598C63.2351 176.623 61.3326 175.222 59.7305 173.393C58.1685 171.524 56.9469 169.229 56.0657 166.507C55.2246 163.744 54.8041 160.575 54.8041 157C54.8041 153.425 55.2246 150.276 56.0657 147.554C56.9469 144.791 58.1685 142.496 59.7305 140.668C61.3326 138.799 63.2351 137.397 65.438 136.463C67.6809 135.488 70.1642 135 72.8878 135C75.6113 135 78.0745 135.488 80.2774 136.463C82.5204 137.397 84.4229 138.799 85.9849 140.668C87.587 142.496 88.8086 144.791 89.6497 147.554C90.5309 150.276 90.9714 153.425 90.9714 157C90.9714 160.575 90.5309 163.744 89.6497 166.507C88.8086 169.229 87.587 171.524 85.9849 173.393C84.4229 175.222 82.5204 176.623 80.2774 177.598C78.0745 178.533 75.6113 179 72.8878 179ZM72.8878 172.845C74.4899 172.845 75.9518 172.56 77.2735 171.992C78.6353 171.423 79.7768 170.61 80.698 169.554C81.6592 168.457 82.4002 167.137 82.9209 165.593C83.4416 164.049 83.7019 162.302 83.7019 160.352V153.648C83.7019 151.698 83.4416 149.951 82.9209 148.407C82.4002 146.863 81.6592 145.563 80.698 144.507C79.7768 143.41 78.6353 142.577 77.2735 142.008C75.9518 141.44 74.4899 141.155 72.8878 141.155C71.2456 141.155 69.7637 141.44 68.4419 142.008C67.1202 142.577 65.9787 143.41 65.0174 144.507C64.0962 145.563 63.3753 146.863 62.8546 148.407C62.3339 149.951 62.0736 151.698 62.0736 153.648V160.352C62.0736 162.302 62.3339 164.049 62.8546 165.593C63.3753 167.137 64.0962 168.457 65.0174 169.554C65.9787 170.61 67.1202 171.423 68.4419 171.992C69.7637 172.56 71.2456 172.845 72.8878 172.845Z" fill="#C9C9C9"/>
<path d="M99.4374 135.731H114.277C116.96 135.731 119.383 136.178 121.546 137.072C123.749 137.966 125.612 139.307 127.134 141.094C128.696 142.841 129.897 145.055 130.738 147.737C131.579 150.378 132 153.465 132 157C132 160.535 131.579 163.643 130.738 166.324C129.897 168.965 128.696 171.179 127.134 172.967C125.612 174.714 123.749 176.034 121.546 176.928C119.383 177.822 116.96 178.269 114.277 178.269H99.4374V135.731ZM114.277 172.175C117.401 172.175 119.924 171.179 121.847 169.188C123.769 167.198 124.73 164.272 124.73 160.413V153.587C124.73 149.728 123.769 146.802 121.847 144.812C119.924 142.821 117.401 141.825 114.277 141.825H106.226V172.175H114.277Z" fill="#C9C9C9"/>
<rect y="150" width="150" height="15" fill="white"/>
</svg>
