<svg width="248" height="73" viewBox="0 0 248 73" fill="none" xmlns="http://www.w3.org/2000/svg">
<path d="M102.58 38.35H108.46C105.59 54.31 93.69 60.19 82.49 60.19C66.25 60.19 55.82 48.57 55.82 30.65C55.82 21.55 58.55 13.92 63.66 8.67C68.42 3.84 75.07 1.18 82.49 1.18C95.79 1.18 105.17 8.81 108.11 21.62H102.23C99.22 10.91 90.68 6.92 82.42 6.92C72.2 6.92 61.56 13.71 61.56 30.65C61.56 48.22 72.2 54.45 82.42 54.45C93.13 54.45 100.34 48.71 102.58 38.35ZM142.52 42.76H117.53L111.72 59H105.7L126.91 2.37H133.28L154.49 59H148.33L142.52 42.76ZM130.06 7.69L119.56 37.23H140.56L130.06 7.69ZM160.405 16.37C160.405 33.17 194.285 20.57 194.285 43.46C194.285 50.81 189.035 60.19 173.775 60.19C160.195 60.19 153.265 50.46 153.265 42.2H159.005C159.005 48.15 164.675 54.45 174.335 54.45C184.765 54.45 188.615 48.71 188.615 42.76C188.615 26.8 154.665 39.33 154.665 16.16C154.665 7.83 161.455 1.25 173.495 1.25C184.765 1.25 191.765 8.18 191.765 17.91H186.025C186.025 11.68 181.335 6.99 173.495 6.99C165.795 6.99 160.405 10.21 160.405 16.37ZM247.077 7.9H223.347V59H217.607V7.9H193.947V2.37H247.077V7.9Z" fill="#2D2D2D"/>
<path d="M46 0L29.7874 18.7284L45.6018 37H39.9132L27 22.0173L14.0299 37H8.34132L24.1557 18.7284L8 0H13.6317L27 15.4395L40.3114 0H46Z" fill="#2D2D2D"/>
<path d="M4 58.7008V41.2992H11.1775C12.7247 41.2992 13.921 41.7729 14.7663 42.7202C15.6117 43.6676 16.0343 44.9391 16.0343 46.5346C16.0343 48.1302 15.6117 49.4017 14.7663 50.349C13.921 51.2964 12.7247 51.7701 11.1775 51.7701H6.70354V58.7008H4ZM6.70354 49.3019H11.0101C11.6959 49.3019 12.2302 49.1191 12.613 48.7535C12.9959 48.3712 13.1873 47.831 13.1873 47.133V45.9363C13.1873 45.2382 12.9959 44.7064 12.613 44.3407C12.2302 43.9584 11.6959 43.7673 11.0101 43.7673H6.70354V49.3019Z" fill="#C9C9C9"/>
<path d="M25.4597 59C24.3751 59 23.3862 58.8089 22.493 58.4266C21.6158 58.0277 20.8581 57.4543 20.2201 56.7064C19.5981 55.9418 19.1116 55.0028 18.7607 53.8892C18.4257 52.759 18.2583 51.4626 18.2583 50C18.2583 48.5374 18.4257 47.2493 18.7607 46.1357C19.1116 45.0055 19.5981 44.0665 20.2201 43.3186C20.8581 42.554 21.6158 41.9806 22.493 41.5983C23.3862 41.1994 24.3751 41 25.4597 41C26.5443 41 27.5253 41.1994 28.4025 41.5983C29.2957 41.9806 30.0533 42.554 30.6754 43.3186C31.3134 44.0665 31.7999 45.0055 32.1348 46.1357C32.4857 47.2493 32.6612 48.5374 32.6612 50C32.6612 51.4626 32.4857 52.759 32.1348 53.8892C31.7999 55.0028 31.3134 55.9418 30.6754 56.7064C30.0533 57.4543 29.2957 58.0277 28.4025 58.4266C27.5253 58.8089 26.5443 59 25.4597 59ZM25.4597 56.482C26.0977 56.482 26.6799 56.3657 27.2063 56.133C27.7486 55.9003 28.2031 55.5679 28.57 55.1357C28.9528 54.687 29.2479 54.1468 29.4552 53.5152C29.6626 52.8837 29.7662 52.169 29.7662 51.3712V48.6288C29.7662 47.831 29.6626 47.1163 29.4552 46.4848C29.2479 45.8532 28.9528 45.3213 28.57 44.8892C28.2031 44.4404 27.7486 44.0997 27.2063 43.867C26.6799 43.6343 26.0977 43.518 25.4597 43.518C24.8058 43.518 24.2156 43.6343 23.6893 43.867C23.1629 44.0997 22.7083 44.4404 22.3255 44.8892C21.9587 45.3213 21.6716 45.8532 21.4642 46.4848C21.2569 47.1163 21.1532 47.831 21.1532 48.6288V51.3712C21.1532 52.169 21.2569 52.8837 21.4642 53.5152C21.6716 54.1468 21.9587 54.687 22.3255 55.1357C22.7083 55.5679 23.1629 55.9003 23.6893 56.133C24.2156 56.3657 24.8058 56.482 25.4597 56.482Z" fill="#C9C9C9"/>
<path d="M36.0326 41.2992H41.9421C43.0107 41.2992 43.9757 41.482 44.837 41.8476C45.7143 42.2133 46.456 42.7618 47.0621 43.4931C47.6841 44.2078 48.1626 45.1136 48.4976 46.2105C48.8325 47.2909 49 48.554 49 50C49 51.446 48.8325 52.7175 48.4976 53.8144C48.1626 54.8947 47.6841 55.8006 47.0621 56.5319C46.456 57.2465 45.7143 57.7867 44.837 58.1524C43.9757 58.518 43.0107 58.7008 41.9421 58.7008H36.0326V41.2992ZM41.9421 56.2078C43.1862 56.2078 44.191 55.8006 44.9567 54.9862C45.7223 54.1717 46.1051 52.9751 46.1051 51.3961V48.6039C46.1051 47.0249 45.7223 45.8283 44.9567 45.0139C44.191 44.1994 43.1862 43.7922 41.9421 43.7922H38.7361V56.2078H41.9421Z" fill="#C9C9C9"/>
<rect y="47" width="54" height="6" fill="#2D2D2D"/>
<path d="M92.8008 30.8L74.8008 39.8L74.8008 21.8L92.8008 30.8Z" fill="#FA6232"/>
</svg>
