<svg width="320" height="94" viewBox="0 0 320 94" fill="none" xmlns="http://www.w3.org/2000/svg">
<rect width="320" height="94" rx="10" fill="#2D2D2D"/>
<rect x="70" y="20" width="54" height="54" rx="27" fill="#FA6232"/>
<path d="M154.776 66H148.674V28.308H164.928C168.312 28.308 170.976 29.334 172.92 31.386C174.864 33.402 175.836 36.156 175.836 39.648C175.836 42.348 175.206 44.598 173.946 46.398C172.722 48.162 170.904 49.404 168.492 50.124L176.646 66H169.842L162.282 50.772H154.776V66ZM164.496 45.642C166.044 45.642 167.25 45.246 168.114 44.454C168.978 43.626 169.41 42.456 169.41 40.944V38.352C169.41 36.84 168.978 35.688 168.114 34.896C167.25 34.068 166.044 33.654 164.496 33.654H154.776V45.642H164.496ZM186.219 66V28.308H210.357V33.708H192.321V44.184H208.683V49.584H192.321V60.6H210.357V66H186.219ZM234.537 66.648C229.605 66.648 225.735 64.992 222.927 61.68C220.119 58.332 218.715 53.49 218.715 47.154C218.715 43.986 219.075 41.196 219.795 38.784C220.515 36.372 221.559 34.338 222.927 32.682C224.295 31.026 225.951 29.784 227.895 28.956C229.875 28.092 232.089 27.66 234.537 27.66C237.813 27.66 240.549 28.38 242.745 29.82C244.977 31.26 246.723 33.384 247.983 36.192L242.853 39C242.205 37.2 241.197 35.778 239.829 34.734C238.497 33.654 236.733 33.114 234.537 33.114C231.621 33.114 229.335 34.104 227.679 36.084C226.023 38.064 225.195 40.8 225.195 44.292V50.016C225.195 53.508 226.023 56.244 227.679 58.224C229.335 60.204 231.621 61.194 234.537 61.194C236.805 61.194 238.641 60.618 240.045 59.466C241.485 58.278 242.547 56.766 243.231 54.93L248.145 57.9C246.885 60.636 245.121 62.778 242.853 64.326C240.585 65.874 237.813 66.648 234.537 66.648Z" fill="white"/>
</svg>
