<svg width="160" height="22" viewBox="0 0 160 22" fill="none" xmlns="http://www.w3.org/2000/svg">
<path d="M3.33347 15.6444C3.39255 15.6546 3.44573 15.6597 3.493 15.6597C3.55208 15.6597 3.61117 15.6597 3.67025 15.6597H3.98932C4.30838 15.6597 4.60971 15.6241 4.89332 15.5528C5.18875 15.4713 5.44282 15.3593 5.65553 15.2167C5.88005 15.0639 6.05731 14.8755 6.1873 14.6514C6.31729 14.4273 6.38228 14.1727 6.38228 13.8875C6.38228 13.3069 6.16957 12.8741 5.74416 12.5889C5.31874 12.2935 4.78697 12.1458 4.14885 12.1458C3.74706 12.1458 3.39255 12.212 3.08531 12.3444C2.78988 12.4667 2.54172 12.6347 2.34083 12.8486C2.15176 13.0625 2.00995 13.312 1.91541 13.5972C1.82088 13.8824 1.77361 14.1829 1.77361 14.4986H0.266928C0.290562 13.9792 0.385099 13.5056 0.550538 13.0778C0.727795 12.65 0.975954 12.2833 1.29502 11.9778C1.61408 11.6722 2.00995 11.4329 2.48263 11.2597C2.96714 11.0866 3.52254 11 4.14885 11C4.69243 11 5.19466 11.0611 5.65553 11.1833C6.12821 11.2954 6.5359 11.4685 6.8786 11.7028C7.22129 11.937 7.48718 12.2375 7.67625 12.6042C7.87714 12.9708 7.97759 13.4037 7.97759 13.9028C7.97759 14.3917 7.81215 14.8245 7.48127 15.2014C7.15039 15.5782 6.73679 15.8634 6.24047 16.0569V16.0875C7.00859 16.2301 7.57581 16.5407 7.94214 17.0194C8.32028 17.4981 8.50936 18.0634 8.50936 18.7153C8.50936 19.2551 8.39119 19.7338 8.15485 20.1514C7.93032 20.5588 7.62308 20.9 7.23311 21.175C6.84315 21.45 6.38228 21.6588 5.85051 21.8014C5.33056 21.9338 4.77515 22 4.1843 22C3.54617 22 2.96714 21.9236 2.44718 21.7708C1.92723 21.6181 1.48409 21.394 1.11776 21.0986C0.751429 20.7931 0.467818 20.4213 0.266928 19.9833C0.0778539 19.5454 -0.0107744 19.0463 0.00104269 18.4861H1.50772C1.53136 19.1889 1.7677 19.7644 2.21675 20.2125C2.6658 20.6505 3.32165 20.8694 4.1843 20.8694C4.55063 20.8694 4.89923 20.8236 5.23011 20.7319C5.56099 20.6301 5.85051 20.4926 6.09867 20.3194C6.34683 20.1361 6.54181 19.9171 6.68362 19.6625C6.83724 19.3977 6.91405 19.1023 6.91405 18.7764C6.91405 18.4403 6.84315 18.1449 6.70134 17.8903C6.55954 17.6255 6.37046 17.4065 6.13412 17.2333C5.89778 17.05 5.61417 16.9176 5.28329 16.8361C4.96423 16.7444 4.61562 16.6986 4.23747 16.6986C3.91841 16.6986 3.61708 16.7139 3.33347 16.7444V15.6444Z" fill="#C9C9C9"/>
<path d="M11.1445 20.1361H13.1121V21.8319H11.1445V20.1361Z" fill="#C9C9C9"/>
<path d="M16.4324 20.1361H18.4V21.8319H16.4324V20.1361Z" fill="#C9C9C9"/>
<path d="M21.7204 20.1361H23.6879V21.8319H21.7204V20.1361Z" fill="#C9C9C9"/>
<path d="M26.317 14.8347C26.2815 14.2847 26.3465 13.7755 26.512 13.3069C26.6774 12.8384 26.9315 12.4361 27.2742 12.1C27.6287 11.7537 28.0659 11.4838 28.5859 11.2903C29.1058 11.0968 29.6967 11 30.3584 11C30.902 11 31.4102 11.0713 31.8829 11.2139C32.3674 11.3463 32.7869 11.5449 33.1414 11.8097C33.4959 12.0644 33.7736 12.3852 33.9745 12.7722C34.1872 13.1593 34.2935 13.6074 34.2935 14.1167C34.2935 14.5954 34.2049 15.0181 34.0277 15.3847C33.8622 15.7514 33.6377 16.0824 33.3541 16.3778C33.0705 16.663 32.7455 16.9227 32.3792 17.1569C32.0128 17.3912 31.6347 17.6153 31.2447 17.8292C30.8548 18.0329 30.4648 18.2366 30.0748 18.4403C29.6849 18.6338 29.3244 18.8426 28.9936 19.0667C28.6745 19.2907 28.3968 19.5352 28.1605 19.8C27.9359 20.0546 27.7882 20.35 27.7173 20.6861H34.1695V21.8319H25.9625C26.0216 21.1903 26.1516 20.6454 26.3524 20.1972C26.5652 19.7389 26.831 19.3417 27.1501 19.0056C27.4692 18.6694 27.8296 18.3741 28.2314 18.1194C28.6331 17.8648 29.0527 17.6255 29.4899 17.4014C30.0217 17.1162 30.4884 16.8565 30.8902 16.6222C31.292 16.3778 31.6229 16.1333 31.8829 15.8889C32.1546 15.6444 32.3555 15.3796 32.4855 15.0944C32.6273 14.8093 32.6982 14.4782 32.6982 14.1014C32.6982 13.806 32.6332 13.5412 32.5032 13.3069C32.3733 13.0625 32.196 12.8537 31.9715 12.6806C31.7588 12.5074 31.5047 12.375 31.2093 12.2833C30.9138 12.1917 30.6007 12.1458 30.2698 12.1458C29.8326 12.1458 29.4544 12.2273 29.1354 12.3903C28.8281 12.5431 28.5741 12.7468 28.3732 13.0014C28.1723 13.256 28.0246 13.5463 27.93 13.8722C27.8473 14.188 27.8119 14.5088 27.8237 14.8347H26.317Z" fill="#C9C9C9"/>
<path d="M37.2123 20.1361H39.1799V21.8319H37.2123V20.1361Z" fill="#C9C9C9"/>
<path d="M42.5002 20.1361H44.4678V21.8319H42.5002V20.1361Z" fill="#C9C9C9"/>
<path d="M47.7882 20.1361H49.7557V21.8319H47.7882V20.1361Z" fill="#C9C9C9"/>
<path d="M57.9152 21.8319H56.4085V14.0708H53.147V13.0319C53.5724 13.0319 53.986 13.0065 54.3878 12.9556C54.7896 12.8944 55.15 12.7875 55.4691 12.6347C55.7999 12.4819 56.0776 12.2731 56.3022 12.0083C56.5267 11.7435 56.6803 11.4074 56.763 11H57.9152V21.8319Z" fill="#C9C9C9"/>
<path d="M63.2801 20.1361H65.2477V21.8319H63.2801V20.1361Z" fill="#C9C9C9"/>
<path d="M68.568 20.1361H70.5356V21.8319H68.568V20.1361Z" fill="#C9C9C9"/>
<path d="M73.8559 20.1361H75.8235V21.8319H73.8559V20.1361Z" fill="#C9C9C9"/>
<path d="M84.4318 20.1361H86.3994V21.8319H84.4318V20.1361Z" fill="#C9C9C9"/>
<path d="M89.7197 20.1361H91.6873V21.8319H89.7197V20.1361Z" fill="#C9C9C9"/>
<path d="M95.0077 20.1361H96.9752V21.8319H95.0077V20.1361Z" fill="#C9C9C9"/>
<path d="M105.135 21.8319H103.628V14.0708H100.366V13.0319C100.792 13.0319 101.205 13.0065 101.607 12.9556C102.009 12.8944 102.369 12.7875 102.689 12.6347C103.019 12.4819 103.297 12.2731 103.522 12.0083C103.746 11.7435 103.9 11.4074 103.983 11H105.135V21.8319Z" fill="#C9C9C9"/>
<path d="M110.5 20.1361H112.467V21.8319H110.5V20.1361Z" fill="#C9C9C9"/>
<path d="M115.788 20.1361H117.755V21.8319H115.788V20.1361Z" fill="#C9C9C9"/>
<path d="M121.075 20.1361H123.043V21.8319H121.075V20.1361Z" fill="#C9C9C9"/>
<path d="M125.672 14.8347C125.637 14.2847 125.702 13.7755 125.867 13.3069C126.032 12.8384 126.287 12.4361 126.629 12.1C126.984 11.7537 127.421 11.4838 127.941 11.2903C128.461 11.0968 129.052 11 129.714 11C130.257 11 130.765 11.0713 131.238 11.2139C131.722 11.3463 132.142 11.5449 132.496 11.8097C132.851 12.0644 133.129 12.3852 133.33 12.7722C133.542 13.1593 133.649 13.6074 133.649 14.1167C133.649 14.5954 133.56 15.0181 133.383 15.3847C133.217 15.7514 132.993 16.0824 132.709 16.3778C132.426 16.663 132.101 16.9227 131.734 17.1569C131.368 17.3912 130.99 17.6153 130.6 17.8292C130.21 18.0329 129.82 18.2366 129.43 18.4403C129.04 18.6338 128.68 18.8426 128.349 19.0667C128.03 19.2907 127.752 19.5352 127.516 19.8C127.291 20.0546 127.143 20.35 127.072 20.6861H133.525V21.8319H125.318C125.377 21.1903 125.507 20.6454 125.708 20.1972C125.92 19.7389 126.186 19.3417 126.505 19.0056C126.824 18.6694 127.185 18.3741 127.586 18.1194C127.988 17.8648 128.408 17.6255 128.845 17.4014C129.377 17.1162 129.844 16.8565 130.245 16.6222C130.647 16.3778 130.978 16.1333 131.238 15.8889C131.51 15.6444 131.711 15.3796 131.841 15.0944C131.982 14.8093 132.053 14.4782 132.053 14.1014C132.053 13.806 131.988 13.5412 131.858 13.3069C131.728 13.0625 131.551 12.8537 131.327 12.6806C131.114 12.5074 130.86 12.375 130.564 12.2833C130.269 12.1917 129.956 12.1458 129.625 12.1458C129.188 12.1458 128.81 12.2273 128.49 12.3903C128.183 12.5431 127.929 12.7468 127.728 13.0014C127.527 13.256 127.38 13.5463 127.285 13.8722C127.202 14.188 127.167 14.5088 127.179 14.8347H125.672Z" fill="#C9C9C9"/>
<path d="M136.567 20.1361H138.535V21.8319H136.567V20.1361Z" fill="#C9C9C9"/>
<path d="M141.855 20.1361H143.823V21.8319H141.855V20.1361Z" fill="#C9C9C9"/>
<path d="M147.143 20.1361H149.111V21.8319H147.143V20.1361Z" fill="#C9C9C9"/>
<path d="M154.824 15.6444C154.883 15.6546 154.936 15.6597 154.984 15.6597C155.043 15.6597 155.102 15.6597 155.161 15.6597H155.48C155.799 15.6597 156.1 15.6241 156.384 15.5528C156.679 15.4713 156.933 15.3593 157.146 15.2167C157.371 15.0639 157.548 14.8755 157.678 14.6514C157.808 14.4273 157.873 14.1727 157.873 13.8875C157.873 13.3069 157.66 12.8741 157.235 12.5889C156.809 12.2935 156.278 12.1458 155.639 12.1458C155.238 12.1458 154.883 12.212 154.576 12.3444C154.281 12.4667 154.032 12.6347 153.831 12.8486C153.642 13.0625 153.501 13.312 153.406 13.5972C153.312 13.8824 153.264 14.1829 153.264 14.4986H151.758C151.781 13.9792 151.876 13.5056 152.041 13.0778C152.218 12.65 152.467 12.2833 152.786 11.9778C153.105 11.6722 153.501 11.4329 153.973 11.2597C154.458 11.0866 155.013 11 155.639 11C156.183 11 156.685 11.0611 157.146 11.1833C157.619 11.2954 158.027 11.4685 158.369 11.7028C158.712 11.937 158.978 12.2375 159.167 12.6042C159.368 12.9708 159.468 13.4037 159.468 13.9028C159.468 14.3917 159.303 14.8245 158.972 15.2014C158.641 15.5782 158.227 15.8634 157.731 16.0569V16.0875C158.499 16.2301 159.066 16.5407 159.433 17.0194C159.811 17.4981 160 18.0634 160 18.7153C160 19.2551 159.882 19.7338 159.646 20.1514C159.421 20.5588 159.114 20.9 158.724 21.175C158.334 21.45 157.873 21.6588 157.341 21.8014C156.821 21.9338 156.266 22 155.675 22C155.037 22 154.458 21.9236 153.938 21.7708C153.418 21.6181 152.975 21.394 152.608 21.0986C152.242 20.7931 151.958 20.4213 151.758 19.9833C151.568 19.5454 151.48 19.0463 151.492 18.4861H152.998C153.022 19.1889 153.258 19.7644 153.707 20.2125C154.156 20.6505 154.812 20.8694 155.675 20.8694C156.041 20.8694 156.39 20.8236 156.721 20.7319C157.052 20.6301 157.341 20.4926 157.589 20.3194C157.837 20.1361 158.032 19.9171 158.174 19.6625C158.328 19.3977 158.405 19.1023 158.405 18.7764C158.405 18.4403 158.334 18.1449 158.192 17.8903C158.05 17.6255 157.861 17.4065 157.625 17.2333C157.388 17.05 157.105 16.9176 156.774 16.8361C156.455 16.7444 156.106 16.6986 155.728 16.6986C155.409 16.6986 155.108 16.7139 154.824 16.7444V15.6444Z" fill="#C9C9C9"/>
<path d="M80 20L75 0L85 1.05185e-06L80 20Z" fill="#C9C9C9"/>
</svg>
