<svg width="640" height="55" viewBox="0 0 640 55" fill="none" xmlns="http://www.w3.org/2000/svg">
<rect x="321.516" y="19.5557" width="3.03318" height="15.8889" rx="1.51659" fill="#FA5632"/>
<rect x="327.582" y="24.4443" width="3.03318" height="6.11111" rx="1.51659" fill="#FA5632"/>
<rect x="333.648" y="22.6108" width="3.03318" height="9.77778" rx="1.51659" fill="#FA5632"/>
<rect x="339.715" y="19.5557" width="3.03318" height="15.8889" rx="1.51659" fill="#FA5632"/>
<rect x="345.781" y="16.5" width="3.03318" height="21.3889" rx="1.51659" fill="#FA5632"/>
<rect x="351.848" y="20.167" width="3.03318" height="14.0556" rx="1.51659" fill="#FA5632"/>
<rect x="357.914" y="11.6108" width="3.03318" height="31.1667" rx="1.51659" fill="#FA5632"/>
<rect x="363.98" y="5.50049" width="3.03318" height="44" rx="1.51659" fill="#FA5632"/>
<rect x="370.047" y="17.1113" width="3.03318" height="20.1667" rx="1.51659" fill="#FA5632"/>
<rect x="376.113" y="19.5557" width="3.03318" height="15.8889" rx="1.51659" fill="#FA5632"/>
<rect x="382.18" y="25.0552" width="3.03318" height="4.88889" rx="1.51659" fill="#FA5632"/>
<rect x="388.246" y="25.0552" width="3.03318" height="4.88889" rx="1.51659" fill="#FA5632"/>
<rect x="394.312" y="25.0552" width="3.03318" height="4.88889" rx="1.51659" fill="#FA5632"/>
<rect x="400.379" y="23.8335" width="3.03318" height="6.72222" rx="1.51659" fill="#FA5632"/>
<rect x="406.445" y="23.2227" width="3.03318" height="8.55556" rx="1.51659" fill="#FA5632"/>
<rect x="412.512" y="17.1113" width="3.03318" height="20.7778" rx="1.51659" fill="#FA5632"/>
<rect x="418.578" y="12.2227" width="3.03318" height="30.5556" rx="1.51659" fill="#FA5632"/>
<rect x="424.645" y="16.5" width="3.03318" height="22" rx="1.51659" fill="#FA5632"/>
<rect x="430.709" y="23.8335" width="3.03318" height="7.33333" rx="1.51659" fill="#FA5632"/>
<rect x="436.775" y="21.9995" width="3.03318" height="11" rx="1.51659" fill="#FA5632"/>
<rect x="442.842" y="16.5" width="3.03318" height="21.3889" rx="1.51659" fill="#FA5632"/>
<rect x="448.908" y="21.3887" width="3.03318" height="11.6111" rx="1.51659" fill="#FA5632"/>
<rect x="454.975" y="21.9995" width="3.03318" height="10.3889" rx="1.51659" fill="#FA5632"/>
<rect x="461.041" y="15.2773" width="3.03318" height="23.8333" rx="1.51659" fill="#FA5632"/>
<rect x="467.107" width="3.03318" height="55" rx="1.51659" fill="#FA5632"/>
<rect x="473.174" y="13.4443" width="3.03318" height="28.1111" rx="1.51659" fill="#FA5632"/>
<rect x="479.24" y="19.5557" width="3.03318" height="15.8889" rx="1.51659" fill="#FA5632"/>
<rect x="485.307" y="23.2227" width="3.03318" height="8.55556" rx="1.51659" fill="#FA5632"/>
<rect x="491.373" y="21.3887" width="3.03318" height="11.6111" rx="1.51659" fill="#FA5632"/>
<rect x="497.439" y="23.8335" width="3.03318" height="6.72222" rx="1.51659" fill="#FA5632"/>
<rect x="503.506" y="23.8335" width="3.03318" height="6.72222" rx="1.51659" fill="#FA5632"/>
<rect x="509.572" y="17.7222" width="3.03318" height="19.5556" rx="1.51659" fill="#FA5632"/>
<rect x="515.639" y="19.5557" width="3.03318" height="15.8889" rx="1.51659" fill="#FA5632"/>
<rect x="521.705" y="21.9995" width="3.03318" height="11" rx="1.51659" fill="#FA5632"/>
<rect x="527.771" y="15.2773" width="3.03318" height="23.8333" rx="1.51659" fill="#FA5632"/>
<rect x="533.838" y="13.4443" width="3.03318" height="28.1111" rx="1.51659" fill="#FA5632"/>
<rect x="539.904" y="16.5" width="3.03318" height="22" rx="1.51659" fill="#FA5632"/>
<rect x="545.971" y="19.5557" width="3.03318" height="15.8889" rx="1.51659" fill="#FA5632"/>
<rect x="552.037" y="21.9995" width="3.03318" height="10.3889" rx="1.51659" fill="#FA5632"/>
<rect x="558.104" y="11.6108" width="3.03318" height="31.1667" rx="1.51659" fill="#FA5632"/>
<rect x="564.17" y="17.7222" width="3.03318" height="18.9444" rx="1.51659" fill="#FA5632"/>
<rect x="570.236" y="14.6665" width="3.03318" height="25.6667" rx="1.51659" fill="#FA5632"/>
<rect x="576.303" y="22.6108" width="3.03318" height="9.16667" rx="1.51659" fill="#FA5632"/>
<rect x="582.369" y="21.3887" width="3.03318" height="11.6111" rx="1.51659" fill="#FA5632"/>
<rect x="588.436" y="16.5" width="3.03318" height="22" rx="1.51659" fill="#FA5632"/>
<rect x="594.502" y="21.9995" width="3.03318" height="10.3889" rx="1.51659" fill="#FA5632"/>
<rect x="600.568" y="9.77783" width="3.03318" height="35.4444" rx="1.51659" fill="#FA5632"/>
<rect x="606.635" y="15.2773" width="3.03318" height="24.4444" rx="1.51659" fill="#FA5632"/>
<rect x="612.701" y="25.0552" width="3.03318" height="4.88889" rx="1.51659" fill="#FA5632"/>
<rect x="618.768" y="25.0552" width="3.03318" height="4.88889" rx="1.51659" fill="#FA5632"/>
<rect x="624.834" y="24.4443" width="3.03318" height="5.5" rx="1.51659" fill="#FA5632"/>
<rect x="630.9" y="21.3887" width="3.03318" height="12.2222" rx="1.51659" fill="#FA5632"/>
<rect x="636.967" y="25.6665" width="3.03318" height="3.66667" rx="1.51659" fill="#FA5632"/>
<rect y="19.5557" width="3.03318" height="15.8889" rx="1.51659" fill="#FA5632"/>
<rect x="6.06641" y="24.4443" width="3.03318" height="6.11111" rx="1.51659" fill="#FA5632"/>
<rect x="12.1328" y="22.6108" width="3.03318" height="9.77778" rx="1.51659" fill="#FA5632"/>
<rect x="18.1992" y="19.5557" width="3.03318" height="15.8889" rx="1.51659" fill="#FA5632"/>
<rect x="24.2656" y="16.5" width="3.03318" height="21.3889" rx="1.51659" fill="#FA5632"/>
<rect x="30.332" y="20.167" width="3.03318" height="14.0556" rx="1.51659" fill="#FA5632"/>
<rect x="36.3984" y="11.6108" width="3.03318" height="31.1667" rx="1.51659" fill="#FA5632"/>
<rect x="42.4648" y="5.50049" width="3.03318" height="44" rx="1.51659" fill="#FA5632"/>
<rect x="48.5312" y="17.1113" width="3.03318" height="20.1667" rx="1.51659" fill="#FA5632"/>
<rect x="54.5977" y="19.5557" width="3.03318" height="15.8889" rx="1.51659" fill="#FA5632"/>
<rect x="60.6641" y="25.0552" width="3.03318" height="4.88889" rx="1.51659" fill="#FA5632"/>
<rect x="66.7305" y="25.0552" width="3.03318" height="4.88889" rx="1.51659" fill="#FA5632"/>
<rect x="72.7969" y="25.0552" width="3.03318" height="4.88889" rx="1.51659" fill="#FA5632"/>
<rect x="78.8633" y="23.8335" width="3.03318" height="6.72222" rx="1.51659" fill="#FA5632"/>
<rect x="84.9297" y="23.2227" width="3.03318" height="8.55556" rx="1.51659" fill="#FA5632"/>
<rect x="90.9961" y="17.1113" width="3.03318" height="20.7778" rx="1.51659" fill="#FA5632"/>
<rect x="97.0625" y="12.2227" width="3.03318" height="30.5556" rx="1.51659" fill="#FA5632"/>
<rect x="103.129" y="16.5" width="3.03318" height="22" rx="1.51659" fill="#FA5632"/>
<rect x="109.193" y="23.8335" width="3.03318" height="7.33333" rx="1.51659" fill="#FA5632"/>
<rect x="115.26" y="21.9995" width="3.03318" height="11" rx="1.51659" fill="#FA5632"/>
<rect x="121.326" y="16.5" width="3.03318" height="21.3889" rx="1.51659" fill="#FA5632"/>
<rect x="127.393" y="21.3887" width="3.03318" height="11.6111" rx="1.51659" fill="#FA5632"/>
<rect x="133.459" y="21.9995" width="3.03318" height="10.3889" rx="1.51659" fill="#FA5632"/>
<rect x="139.525" y="15.2773" width="3.03318" height="23.8333" rx="1.51659" fill="#FA5632"/>
<rect x="145.592" width="3.03318" height="55" rx="1.51659" fill="#FA5632"/>
<rect x="151.658" y="13.4443" width="3.03318" height="28.1111" rx="1.51659" fill="#FA5632"/>
<rect x="157.725" y="19.5557" width="3.03318" height="15.8889" rx="1.51659" fill="#FA5632"/>
<rect x="163.791" y="23.2227" width="3.03318" height="8.55556" rx="1.51659" fill="#FA5632"/>
<rect x="169.857" y="21.3887" width="3.03318" height="11.6111" rx="1.51659" fill="#FA5632"/>
<rect x="175.924" y="23.8335" width="3.03318" height="6.72222" rx="1.51659" fill="#FA5632"/>
<rect x="181.99" y="23.8335" width="3.03318" height="6.72222" rx="1.51659" fill="#FA5632"/>
<rect x="188.057" y="17.7222" width="3.03318" height="19.5556" rx="1.51659" fill="#FA5632"/>
<rect x="194.123" y="19.5557" width="3.03318" height="15.8889" rx="1.51659" fill="#FA5632"/>
<rect x="200.189" y="21.9995" width="3.03318" height="11" rx="1.51659" fill="#FA5632"/>
<rect x="206.256" y="15.2773" width="3.03318" height="23.8333" rx="1.51659" fill="#FA5632"/>
<rect x="212.322" y="13.4443" width="3.03318" height="28.1111" rx="1.51659" fill="#FA5632"/>
<rect x="218.389" y="16.5" width="3.03318" height="22" rx="1.51659" fill="#FA5632"/>
<rect x="224.455" y="19.5557" width="3.03318" height="15.8889" rx="1.51659" fill="#FA5632"/>
<rect x="230.521" y="21.9995" width="3.03318" height="10.3889" rx="1.51659" fill="#FA5632"/>
<rect x="236.588" y="11.6108" width="3.03318" height="31.1667" rx="1.51659" fill="#FA5632"/>
<rect x="242.654" y="17.7222" width="3.03318" height="18.9444" rx="1.51659" fill="#FA5632"/>
<rect x="248.721" y="14.6665" width="3.03318" height="25.6667" rx="1.51659" fill="#FA5632"/>
<rect x="254.787" y="22.6108" width="3.03318" height="9.16667" rx="1.51659" fill="#FA5632"/>
<rect x="260.854" y="21.3887" width="3.03318" height="11.6111" rx="1.51659" fill="#FA5632"/>
<rect x="266.92" y="16.5" width="3.03318" height="22" rx="1.51659" fill="#FA5632"/>
<rect x="272.986" y="21.9995" width="3.03318" height="10.3889" rx="1.51659" fill="#FA5632"/>
<rect x="279.053" y="9.77783" width="3.03318" height="35.4444" rx="1.51659" fill="#FA5632"/>
<rect x="285.119" y="15.2773" width="3.03318" height="24.4444" rx="1.51659" fill="#FA5632"/>
<rect x="291.186" y="25.0552" width="3.03318" height="4.88889" rx="1.51659" fill="#FA5632"/>
<rect x="297.252" y="25.0552" width="3.03318" height="4.88889" rx="1.51659" fill="#FA5632"/>
<rect x="303.318" y="24.4443" width="3.03318" height="5.5" rx="1.51659" fill="#FA5632"/>
<rect x="309.385" y="21.3887" width="3.03318" height="12.2222" rx="1.51659" fill="#FA5632"/>
<rect x="315.451" y="25.6665" width="3.03318" height="3.66667" rx="1.51659" fill="#FA5632"/>
</svg>
