<svg width="210" height="55" viewBox="0 0 210 55" fill="none" xmlns="http://www.w3.org/2000/svg">
<rect y="21.0225" width="2" height="14.527" rx="1" fill="#FA6232"/>
<rect x="4" y="25.4922" width="2" height="5.5873" rx="1" fill="#FA6232"/>
<rect x="8" y="23.8154" width="2" height="8.93968" rx="1" fill="#FA6232"/>
<rect x="12" y="21.0225" width="2" height="14.527" rx="1" fill="#FA6232"/>
<rect x="16" y="18.2285" width="2" height="19.5556" rx="1" fill="#FA6232"/>
<rect x="20" y="21.5811" width="2" height="12.8508" rx="1" fill="#FA6232"/>
<rect x="24" y="18.8569" width="2" height="22" rx="1" fill="#FA6232"/>
<rect x="28" width="2" height="55" rx="1" fill="#FA6232"/>
<rect x="32" y="18.7871" width="2" height="18.4381" rx="1" fill="#FA6232"/>
<rect x="36" y="21.0225" width="2" height="14.527" rx="1" fill="#FA6232"/>
<rect x="40" y="26.0508" width="2" height="4.46984" rx="1" fill="#FA6232"/>
<rect x="44" y="26.0508" width="2" height="4.46984" rx="1" fill="#FA6232"/>
<rect x="48" y="26.0508" width="2" height="4.46984" rx="1" fill="#FA6232"/>
<rect x="52" y="24.9336" width="2" height="6.14603" rx="1" fill="#FA6232"/>
<rect x="56" y="24.375" width="2" height="7.82222" rx="1" fill="#FA6232"/>
<rect x="60" y="18.7871" width="2" height="18.9968" rx="1" fill="#FA6232"/>
<rect x="64" y="14.3179" width="2" height="27.9365" rx="1" fill="#FA6232"/>
<rect x="68" y="18.2285" width="2" height="20.1143" rx="1" fill="#FA6232"/>
<rect x="72" y="24.9336" width="2" height="6.70476" rx="1" fill="#FA6232"/>
<rect x="76" y="23.2568" width="2" height="10.0571" rx="1" fill="#FA6232"/>
<rect x="80" y="18.2285" width="2" height="19.5556" rx="1" fill="#FA6232"/>
<rect x="84" y="22.6982" width="2" height="10.6159" rx="1" fill="#FA6232"/>
<rect x="88" y="23.2568" width="2" height="9.49841" rx="1" fill="#FA6232"/>
<rect x="92" y="12.5713" width="2" height="29.8571" rx="1" fill="#FA6232"/>
<rect x="96" y="26.7144" width="2" height="6.28571" rx="1" fill="#FA6232"/>
<rect x="100" y="15.4351" width="2" height="25.7016" rx="1" fill="#FA6232"/>
<rect x="104" y="21.0225" width="2" height="14.527" rx="1" fill="#FA6232"/>
<rect x="108" y="24.375" width="2" height="7.82222" rx="1" fill="#FA6232"/>
<rect x="112" y="22.6982" width="2" height="10.6159" rx="1" fill="#FA6232"/>
<rect x="116" y="24.9336" width="2" height="6.14603" rx="1" fill="#FA6232"/>
<rect x="120" y="20.4287" width="2" height="15.7143" rx="1" fill="#FA6232"/>
<rect x="124" y="14.1431" width="2" height="28.2857" rx="1" fill="#FA6232"/>
<rect x="128" y="22" width="2" height="12.5714" rx="1" fill="#FA6232"/>
<rect x="132" y="1.57129" width="2" height="53.4286" rx="1" fill="#FA6232"/>
<rect x="136" y="17.2856" width="2" height="25.1429" rx="1" fill="#FA6232"/>
<rect x="140" y="7.85693" width="2" height="40.8571" rx="1" fill="#FA6232"/>
<rect x="144" y="18.2285" width="2" height="20.1143" rx="1" fill="#FA6232"/>
<rect x="148" y="21.0225" width="2" height="14.527" rx="1" fill="#FA6232"/>
<rect x="152" y="23.2568" width="2" height="9.49841" rx="1" fill="#FA6232"/>
<rect x="156" y="13.7583" width="2" height="28.4952" rx="1" fill="#FA6232"/>
<rect x="160" y="19.3457" width="2" height="17.3206" rx="1" fill="#FA6232"/>
<rect x="164" y="18.8569" width="2" height="18.8571" rx="1" fill="#FA6232"/>
<rect x="168" y="23.8154" width="2" height="8.38095" rx="1" fill="#FA6232"/>
<rect x="172" y="22.6982" width="2" height="10.6159" rx="1" fill="#FA6232"/>
<rect x="176" y="23.5713" width="2" height="9.42857" rx="1" fill="#FA6232"/>
<rect x="180" y="25.1431" width="2" height="6.28571" rx="1" fill="#FA6232"/>
<rect x="184" y="6.28564" width="2" height="44" rx="1" fill="#FA6232"/>
<rect x="188" y="17.1108" width="2" height="22.3492" rx="1" fill="#FA6232"/>
<rect x="192" y="26.0508" width="2" height="4.46984" rx="1" fill="#FA6232"/>
<rect x="196" y="26.0508" width="2" height="4.46984" rx="1" fill="#FA6232"/>
<rect x="200" y="25.4922" width="2" height="5.02857" rx="1" fill="#FA6232"/>
<rect x="204" y="22.6982" width="2" height="11.1746" rx="1" fill="#FA6232"/>
<rect x="208" y="26.6094" width="2" height="3.35238" rx="1" fill="#FA6232"/>
</svg>
