<svg width="50" height="50" viewBox="0 0 50 50" fill="none" xmlns="http://www.w3.org/2000/svg">
<path fill-rule="evenodd" clip-rule="evenodd" d="M41.2012 9.22909C41.716 9.01241 42.2795 8.93768 42.833 9.01267C43.3866 9.08767 43.9099 9.30965 44.3485 9.65552C44.7871 10.0014 45.125 10.4585 45.327 10.9793C45.529 11.5 45.5877 12.0654 45.497 12.6166L40.772 41.277C40.3137 44.0416 37.2804 45.627 34.745 44.2499C32.6241 43.0978 29.4741 41.3228 26.6408 39.4708C25.2241 38.5437 20.8845 35.5749 21.4179 33.4624C21.8762 31.6562 29.1679 24.8687 33.3345 20.8333C34.9699 19.2478 34.2241 18.3333 32.2929 19.7916C27.495 23.4124 19.797 28.9187 17.2512 30.4687C15.0054 31.8353 13.8345 32.0687 12.4345 31.8353C9.88037 31.4103 7.51162 30.752 5.57828 29.9499C2.96578 28.8666 3.09287 25.2749 5.5762 24.2291L41.2012 9.22909Z" fill="#303030"/>
</svg>
