<svg width="208" height="235" viewBox="0 0 208 235" fill="none" xmlns="http://www.w3.org/2000/svg">
<rect x="4" width="200" height="201" rx="10" fill="#EAED62"/>
<g clip-path="url(#clip0_211_631)">
<path d="M168.051 172.879C172.799 183.825 174.91 193.028 174.327 200.231L174.269 200.969L35.8789 201.707L35.9372 200.839C36.9864 184.926 54.2407 168.76 57.7317 165.644C56.9026 164.517 56.6306 163.105 57.5568 161.208C59.3444 157.522 66.0479 153.131 69.0078 151.324C67.1878 150.314 67.0712 148.436 66.9676 146.758C66.9287 146.059 66.8834 145.333 66.7409 144.621C65.9572 140.877 68.4378 139.193 70.6205 137.703C71.2487 137.282 71.8576 136.861 72.3951 136.415C72.3951 136.408 72.3951 136.402 72.4081 136.402C73.2695 135.676 73.9625 134.854 74.2346 133.746C75.6012 128.28 84.3837 129.504 84.7529 129.556L84.6622 130.21C86.2814 133.196 88.7944 135.598 91.6248 137.438C97.0847 140.994 103.853 142.723 110.323 141.544C111.884 141.259 113.419 140.812 114.87 140.178C116.444 139.498 117.901 138.591 119.3 137.613C120.013 137.114 120.706 136.602 121.399 136.084C122.105 135.56 122.772 135.022 123.322 134.323C124.449 132.885 125.453 131.337 126.509 129.841L126.282 129.277C126.418 129.225 129.65 127.936 132.008 128.973C132.966 129.394 133.646 130.119 134.028 131.136C134.495 132.354 135.162 132.315 137.021 132.01C138.62 131.751 140.615 131.427 142.714 132.561C146.878 134.802 150.48 140.255 149.294 145.495C149.113 146.298 148.945 146.913 148.737 147.373C150.434 148.325 154.618 150.638 157.779 151.939C159.916 152.82 161.225 154.543 161.354 156.661C161.399 157.484 161.257 158.28 160.972 158.967C161.827 160.405 165.02 165.891 168.051 172.879ZM172.76 199.356C173.53 184.764 162.63 165.036 159.955 160.437C159.793 160.58 159.625 160.709 159.443 160.806C159.022 161.046 158.323 161.48 157.436 162.037C154.294 163.993 149.042 167.264 145.991 168.015C142.843 168.792 138.886 172.4 138.07 173.17C137.934 173.902 137.623 174.608 137.124 175.211C133.199 179.906 124.015 191.474 121.463 199.635L172.76 199.356ZM158.653 159.394C159.249 159.064 159.813 158.047 159.735 156.765C159.683 155.897 159.275 154.31 157.157 153.436C153.349 151.868 148.284 148.98 147.319 148.429C147.014 148.448 146.658 148.416 146.224 148.332C145.045 148.118 143.083 147.749 139.158 148.869C132.727 150.709 127.442 158.028 124.372 162.989C127.059 163.442 134.015 165.055 137.39 169.926C137.642 170.295 137.817 170.69 137.947 171.098C139.624 169.641 142.798 167.134 145.602 166.441C148.407 165.754 153.524 162.568 156.581 160.664C157.481 160.1 158.2 159.653 158.653 159.394ZM147.72 145.139C148.485 141.745 146.878 138.241 144.482 135.877C143.536 137.729 140.44 142.704 133.666 144.549C126.347 146.544 123.005 154.291 121.004 158.921L120.822 159.342L120.097 159.025C119.203 161.149 117.571 162.775 115.751 164.213C114.838 164.925 113.899 165.586 112.836 166.059C111.8 166.525 110.712 166.849 109.598 167.056C107.24 167.49 104.786 167.49 102.409 167.212C100.051 166.933 97.7259 166.331 95.6145 165.223C94.6171 164.699 93.6779 164.064 92.8295 163.332C92.0587 162.659 91.424 161.875 90.7504 161.117L90.31 161.525C90.2776 161.493 86.7931 157.782 78.8396 149.381C73.7164 143.979 72.2786 140.618 71.9806 138.74C71.8317 138.843 71.6827 138.947 71.5337 139.044C69.1956 140.631 67.7901 141.738 68.3212 144.297C68.4961 145.119 68.5414 145.935 68.5868 146.661C68.6969 148.533 68.8135 149.537 70.0959 150.055C71.2228 150.508 74.118 152.283 77.1815 154.155C79.8046 155.754 82.5054 157.412 83.4381 157.807C85.2905 158.604 86.3138 160.094 87.3047 161.532C87.9654 162.49 88.6519 163.488 89.5975 164.31C89.9667 164.634 90.3294 164.984 90.7051 165.34C92.8359 167.38 95.2518 169.686 101.975 170.45C110.058 171.363 118.886 169.168 120.855 165.754L121.081 165.359C123.53 161.098 130.032 149.796 138.711 147.315C142.999 146.091 145.292 146.512 146.522 146.745C146.768 146.79 147.066 146.855 147.202 146.842C147.325 146.667 147.5 146.097 147.72 145.139ZM143.206 134.789C142.798 134.484 142.377 134.212 141.95 133.986C140.33 133.111 138.782 133.364 137.286 133.61C135.499 133.902 133.471 134.232 132.513 131.706C132.293 131.11 131.911 130.696 131.36 130.456C129.929 129.828 127.642 130.475 126.885 130.78L126.794 130.553C126.263 131.311 125.725 132.062 125.194 132.82C124.598 133.662 124.041 134.562 123.329 135.313C122.681 135.994 121.884 136.531 121.127 137.088C120.298 137.703 119.456 138.306 118.588 138.876C115.777 140.709 112.681 141.907 109.345 142.347C106.049 142.788 102.661 142.509 99.4488 141.654C96.1845 140.786 93.0691 139.297 90.3229 137.334C87.9913 135.67 85.9187 133.61 84.4485 131.149C83.6713 131.052 76.767 130.3 75.8084 134.135C75.4457 135.598 74.5778 136.661 73.5739 137.529C73.4703 137.963 73.1141 140.987 80.0119 148.267C87.9783 156.668 91.4564 160.385 91.4888 160.418L91.2232 160.67C91.9486 161.493 92.6416 162.335 93.4901 163.047C94.4033 163.798 95.4202 164.427 96.4824 164.932C98.5938 165.936 100.919 166.454 103.238 166.648C105.472 166.836 107.771 166.804 109.967 166.324C111.062 166.078 112.137 165.722 113.128 165.204C114.132 164.679 115.025 163.986 115.893 163.267C117.422 162.011 118.743 160.58 119.501 158.766L119.339 158.695L119.52 158.28C121.632 153.384 125.168 145.191 133.238 142.989C139.916 141.169 142.694 135.877 143.206 134.789ZM135.881 174.174C136.677 173.216 136.749 171.849 136.056 170.852C132.74 166.059 125.155 164.731 123.458 164.485C123.089 165.12 122.759 165.69 122.487 166.163L122.254 166.564C122.046 166.927 121.768 167.283 121.425 167.639H121.457C118.478 178.695 114.397 196.027 115.051 199.667L119.773 199.641C122.208 191.157 131.82 179.032 135.881 174.174ZM119.365 169.213C116.36 171.007 111.573 172.296 105.984 172.296C104.624 172.296 103.225 172.218 101.787 172.056C95.6987 171.37 92.7906 169.414 90.7116 167.562L89.5975 168.287C90.4719 172.056 95.3295 193.119 95.5173 199.771L113.432 199.674C112.888 194.473 117.649 175.742 119.365 169.213ZM88.8721 199.803L93.8981 199.777C93.7168 193.644 89.2802 174.123 88.1532 169.233L77.5118 176.176C79.6103 179.421 88.1985 193.08 88.8721 199.803ZM76.3395 175.003L89.4939 166.422C89.1701 166.111 88.8527 165.813 88.5353 165.534C87.4343 164.569 86.6894 163.494 85.9705 162.451C85.0314 161.091 84.2218 159.912 82.7969 159.297C81.7606 158.85 79.131 157.244 76.3395 155.534C74.3382 154.316 72.149 152.976 70.7176 152.179C68.6645 153.403 60.8017 158.235 59.0076 161.914C57.764 164.472 59.4998 165.554 62.6735 167.238C63.645 167.756 64.6554 168.293 65.5427 168.922C68.4313 170.975 74.6815 174.168 76.3395 175.003ZM37.6276 200.082L87.2465 199.816C86.4628 193.061 76.9872 178.332 75.8408 176.564C74.5778 175.936 67.7772 172.503 64.6035 170.243C63.8004 169.673 62.8419 169.161 61.9092 168.669C60.8859 168.125 59.7783 167.529 58.8716 166.804C57.4337 168.093 53.159 172.069 48.8325 177.4C44.1627 183.164 38.515 191.694 37.6276 200.082Z" fill="#2D2D2D"/>
<path d="M159.955 160.437C162.629 165.036 173.53 184.764 172.759 199.356L121.463 199.635C124.015 191.474 133.199 179.906 137.124 175.211C137.623 174.608 137.933 173.902 138.069 173.17C138.885 172.4 142.843 168.792 145.991 168.015C149.041 167.264 154.294 163.993 157.435 162.037C158.322 161.48 159.022 161.046 159.443 160.806C159.624 160.709 159.793 160.58 159.955 160.437Z" fill="#5375CD"/>
<path d="M159.734 156.765C159.812 158.047 159.249 159.064 158.653 159.394C158.199 159.653 157.481 160.1 156.58 160.664C153.523 162.568 148.407 165.754 145.602 166.441C142.798 167.134 139.624 169.64 137.946 171.098C137.817 170.69 137.642 170.295 137.389 169.925C134.015 165.055 127.059 163.442 124.371 162.989C127.441 158.028 132.726 150.709 139.158 148.869C143.083 147.749 145.045 148.118 146.224 148.332C146.658 148.416 147.014 148.448 147.318 148.429C148.283 148.979 153.348 151.868 157.157 153.435C159.275 154.31 159.683 155.897 159.734 156.765Z" fill="#BED2E9"/>
<path d="M144.482 135.877C146.878 138.241 148.484 141.745 147.72 145.139C147.5 146.097 147.325 146.667 147.202 146.842C147.066 146.855 146.768 146.79 146.522 146.745C145.291 146.512 142.999 146.091 138.711 147.315C130.032 149.796 123.529 161.098 121.081 165.359L120.854 165.754C118.885 169.168 110.058 171.363 101.974 170.45C95.2515 169.686 92.8357 167.38 90.7048 165.34C90.3292 164.984 89.9664 164.634 89.5973 164.31C88.6517 163.488 87.9651 162.49 87.3045 161.532C86.3135 160.094 85.2902 158.604 83.4378 157.807C82.5052 157.412 79.8043 155.754 77.1812 154.155C74.1177 152.283 71.2226 150.508 70.0956 150.055C68.8132 149.537 68.6966 148.533 68.5865 146.661C68.5412 145.935 68.4958 145.119 68.321 144.297C67.7899 141.738 69.1953 140.631 71.5335 139.044C71.6824 138.947 71.8314 138.843 71.9804 138.74C72.2783 140.618 73.7161 143.979 78.8393 149.381C86.7928 157.782 90.2773 161.493 90.3097 161.525L90.7501 161.117C91.4237 161.875 92.0585 162.659 92.8292 163.332C93.6777 164.064 94.6168 164.699 95.6142 165.223C97.7257 166.331 100.051 166.933 102.408 167.212C104.785 167.49 107.24 167.49 109.598 167.056C110.712 166.849 111.8 166.525 112.836 166.059C113.898 165.586 114.837 164.925 115.751 164.213C117.571 162.775 119.203 161.149 120.097 159.025L120.822 159.342L121.003 158.921C123.005 154.291 126.347 146.544 133.665 144.549C140.44 142.704 143.536 137.729 144.482 135.877Z" fill="#DDDDDD"/>
<path d="M141.949 133.986C142.377 134.213 142.798 134.485 143.206 134.789C142.694 135.877 139.916 141.169 133.238 142.989C125.168 145.191 121.632 153.384 119.52 158.28L119.339 158.695L119.501 158.766C118.743 160.58 117.422 162.011 115.893 163.268C115.025 163.987 114.131 164.68 113.127 165.204C112.137 165.722 111.061 166.079 109.967 166.325C107.771 166.804 105.472 166.836 103.237 166.648C100.919 166.454 98.5935 165.936 96.4821 164.932C95.4199 164.427 94.403 163.799 93.4898 163.047C92.6413 162.335 91.9483 161.493 91.2229 160.67L91.4884 160.418C91.4561 160.385 87.978 156.668 80.0115 148.267C73.1137 140.987 73.47 137.963 73.5736 137.529C74.5775 136.661 75.4454 135.599 75.8081 134.135C76.7667 130.301 83.6709 131.052 84.4482 131.149C85.9184 133.61 87.991 135.67 90.3226 137.334C93.0688 139.297 96.1841 140.787 99.4484 141.655C102.661 142.509 106.048 142.788 109.345 142.348C112.681 141.907 115.776 140.709 118.587 138.876C119.455 138.306 120.297 137.704 121.126 137.088C121.884 136.531 122.681 135.994 123.328 135.314C124.041 134.562 124.598 133.662 125.194 132.82C125.725 132.062 126.262 131.311 126.794 130.553L126.884 130.78C127.642 130.476 129.928 129.828 131.36 130.456C131.91 130.696 132.292 131.11 132.513 131.706C133.471 134.232 135.498 133.902 137.286 133.61C138.782 133.364 140.33 133.112 141.949 133.986Z" fill="#C6C6C6"/>
<path d="M136.057 170.852C136.75 171.849 136.678 173.216 135.882 174.174C131.821 179.032 122.209 191.156 119.774 199.641L115.052 199.667C114.398 196.027 118.479 178.695 121.458 167.646H121.425C121.769 167.283 122.047 166.927 122.254 166.564L122.488 166.162C122.76 165.69 123.09 165.12 123.459 164.485C125.156 164.731 132.74 166.059 136.057 170.852Z" fill="#BED2E9"/>
<path d="M114.028 177.51C113.763 177.581 111.561 178.171 108.892 178.883C106.055 179.634 103.698 180.263 103.646 180.275C102.959 180.437 102.389 180.418 102.001 180.23C101.781 180.12 101.586 179.919 101.47 179.699C101.301 179.369 101.288 178.941 101.424 178.449C101.509 178.138 101.664 177.788 101.839 177.484C101.865 177.452 101.878 177.419 101.878 177.419C101.878 177.419 101.573 177.75 101.47 177.866C100.777 178.65 100.382 179.207 100.122 179.777C99.8245 180.437 99.7468 181.04 99.8958 181.5C99.9476 181.649 100.025 181.785 100.135 181.927C100.174 181.979 100.297 182.102 100.349 182.141C100.621 182.361 100.971 182.478 101.392 182.491C101.865 182.51 102.448 182.4 103.102 182.167C103.354 182.076 103.497 182.024 104.041 181.791C107.344 180.379 113.601 177.698 114.028 177.51ZM105.984 172.296C111.573 172.296 116.36 171.007 119.365 169.213C117.649 175.742 112.888 194.473 113.432 199.674L95.5175 199.771C95.3296 193.119 90.472 172.056 89.5977 168.287L90.7117 167.562C92.7907 169.414 95.6988 171.37 101.787 172.056C103.225 172.218 104.624 172.296 105.984 172.296Z" fill="#DDDDDD"/>
<path d="M108.892 178.883C111.561 178.17 113.763 177.581 114.028 177.51C113.601 177.697 107.344 180.379 104.041 181.791C103.497 182.024 103.355 182.076 103.102 182.166C102.448 182.4 101.865 182.51 101.392 182.49C100.971 182.477 100.621 182.361 100.349 182.141C100.297 182.102 100.174 181.979 100.136 181.927C100.025 181.784 99.9477 181.648 99.8959 181.499C99.7469 181.039 99.8247 180.437 100.123 179.777C100.382 179.207 100.777 178.65 101.47 177.866C101.573 177.749 101.878 177.419 101.878 177.419C101.878 177.419 101.865 177.451 101.839 177.484C101.664 177.788 101.509 178.138 101.424 178.449C101.288 178.941 101.301 179.368 101.47 179.699C101.586 179.919 101.781 180.12 102.001 180.23C102.389 180.418 102.959 180.437 103.646 180.275C103.698 180.262 106.055 179.634 108.892 178.883Z" fill="#2D2D2D"/>
<path d="M93.898 199.777L88.872 199.803C88.1985 193.08 79.6102 179.42 77.5117 176.176L88.1531 169.232C89.2801 174.122 93.7167 193.644 93.898 199.777Z" fill="#BED2E9"/>
<path d="M89.4944 166.422L76.34 175.003C74.682 174.168 68.4318 170.975 65.5432 168.922C64.6559 168.293 63.6455 167.756 62.674 167.238C59.5003 165.554 57.7645 164.472 59.0081 161.914C60.8022 158.235 68.665 153.403 70.7182 152.179C72.1495 152.976 74.3387 154.317 76.34 155.534C79.1315 157.244 81.7611 158.85 82.7974 159.297C84.2223 159.913 85.0319 161.091 85.971 162.451C86.69 163.494 87.4348 164.569 88.5358 165.534C88.8532 165.813 89.1706 166.111 89.4944 166.422Z" fill="#BED2E9"/>
<path d="M87.2458 199.816L37.627 200.082C38.5143 191.694 44.1621 183.164 48.8318 177.4C53.1583 172.069 57.433 168.093 58.8709 166.804C59.7776 167.529 60.8852 168.125 61.9085 168.669C62.8412 169.161 63.7997 169.673 64.6028 170.243C67.7765 172.503 74.5771 175.936 75.8401 176.564C76.9865 178.332 86.4621 193.061 87.2458 199.816Z" fill="#5375CD"/>
</g>
<path d="M139.169 109.989C139.208 110.255 139.228 110.52 139.228 110.792C139.228 114.458 135.963 117.431 131.941 117.431C131.455 117.431 130.976 117.373 130.51 117.288V110.604C130.587 110.572 130.665 110.533 130.73 110.475C130.775 110.443 131.157 110.132 131.786 109.873C131.747 111.032 132.213 112.483 133.994 113.59C134.13 113.668 134.273 113.707 134.422 113.707C134.694 113.707 134.959 113.571 135.108 113.325C135.348 112.943 135.225 112.444 134.849 112.211C133.321 111.265 133.327 110.119 133.457 109.523C134.474 109.503 135.711 109.821 137.058 110.902C137.207 111.025 137.388 111.084 137.563 111.084C137.803 111.084 138.036 110.98 138.198 110.779C138.36 110.579 138.411 110.326 138.36 110.099L139.169 109.989Z" fill="#F2B8AC"/>
<path d="M139.169 109.989L138.36 110.099C138.321 109.924 138.224 109.762 138.075 109.639C135.044 107.204 132.155 107.767 130.51 108.681V104.302C130.983 104.212 131.455 104.153 131.941 104.153C135.665 104.153 138.742 106.705 139.169 109.989Z" fill="#F2B8AC"/>
<path d="M131.942 102.534C136.851 102.534 140.848 106.239 140.848 110.792C140.848 115.345 136.851 119.05 131.942 119.05C131.463 119.05 130.983 119.011 130.511 118.94V119.536C130.511 126.524 127.596 132.839 122.926 137.347H123.03V153.332C123.03 162.088 115.905 169.213 107.149 169.213H103.612C94.8558 169.213 87.7313 162.088 87.7313 153.332V136.544C87.2909 136.077 86.8634 135.605 86.4618 135.106C82.9125 130.715 80.963 125.19 80.963 119.536V118.933C80.4708 119.011 79.9785 119.05 79.4798 119.05C74.5704 119.05 70.5742 115.345 70.5742 110.792C70.5742 106.239 74.5704 102.534 79.4798 102.534C79.9785 102.534 80.4708 102.579 80.963 102.657V96.2191C80.963 82.5595 92.0772 71.4453 105.737 71.4453C119.396 71.4453 130.511 82.5595 130.511 96.2191V102.644C130.983 102.579 131.463 102.534 131.942 102.534ZM139.228 110.792C139.228 110.52 139.209 110.254 139.17 109.989C138.743 106.705 135.666 104.153 131.942 104.153C131.456 104.153 130.983 104.211 130.511 104.302V108.68C132.156 107.767 135.044 107.204 138.075 109.639C138.224 109.762 138.322 109.924 138.36 110.099C138.412 110.326 138.36 110.578 138.199 110.779C138.037 110.98 137.803 111.083 137.564 111.083C137.389 111.083 137.208 111.025 137.059 110.902C135.711 109.82 134.474 109.503 133.458 109.522C133.328 110.118 133.322 111.265 134.85 112.21C135.226 112.443 135.349 112.942 135.109 113.324C134.96 113.57 134.695 113.706 134.423 113.706C134.274 113.706 134.131 113.668 133.995 113.59C132.214 112.482 131.748 111.032 131.787 109.872C131.158 110.131 130.776 110.442 130.731 110.475C130.666 110.533 130.588 110.572 130.511 110.604V117.288C130.977 117.372 131.456 117.431 131.942 117.431C135.964 117.431 139.228 114.458 139.228 110.792ZM128.891 119.536V96.2191C128.891 83.4533 118.503 73.0645 105.737 73.0645C92.971 73.0645 82.5822 83.4533 82.5822 96.2191V119.536C82.5822 124.821 84.4022 129.983 87.7183 134.083C92.142 139.555 98.7095 142.69 105.737 142.69C118.503 142.69 128.891 132.308 128.891 119.536ZM121.411 153.332V138.707C117.136 142.204 111.676 144.309 105.737 144.309C99.7976 144.309 93.8389 142.094 89.3505 138.124V153.332C89.3505 161.194 95.7496 167.593 103.612 167.593H107.149C115.012 167.593 121.411 161.194 121.411 153.332ZM80.963 117.282V110.28C80.678 110.118 80.2182 109.892 79.6288 109.723C79.7195 110.908 79.292 112.437 77.4267 113.59C77.2971 113.668 77.1482 113.706 77.0057 113.706C76.7337 113.706 76.4681 113.57 76.3127 113.324C76.0795 112.942 76.1961 112.443 76.5782 112.21C78.1197 111.258 78.1003 110.092 77.9578 109.503C76.8891 109.529 75.6456 109.872 74.3631 110.902C74.2142 111.025 74.0393 111.083 73.858 111.083C73.6248 111.083 73.3852 110.98 73.2297 110.779C73.0678 110.578 73.016 110.326 73.0678 110.099C73.1066 109.924 73.2038 109.762 73.3528 109.639C76.1767 107.366 79.1042 107.696 80.963 108.473V104.309C80.4773 104.218 79.9785 104.153 79.4798 104.153C75.7621 104.153 72.6857 106.705 72.2517 109.989C72.2129 110.254 72.1934 110.52 72.1934 110.792C72.1934 114.458 75.4642 117.431 79.4798 117.431C79.985 117.431 80.4773 117.372 80.963 117.282Z" fill="#2D2D2D"/>
<path d="M128.891 96.2195V119.536C128.891 132.308 118.502 142.691 105.737 142.691C98.7093 142.691 92.1418 139.556 87.7181 134.083C84.402 129.983 82.582 124.821 82.582 119.536V96.2195C82.582 83.4537 92.9644 73.0649 105.737 73.0649C118.509 73.0649 128.891 83.4537 128.891 96.2195Z" fill="#F2B8AC"/>
<path d="M121.412 138.707V153.332C121.412 161.195 115.013 167.594 107.15 167.594H103.613C95.7506 167.594 89.3516 161.195 89.3516 153.332V138.125C93.84 142.095 99.6238 144.31 105.738 144.31C111.852 144.31 117.137 142.205 121.412 138.707Z" fill="#F2B8AC"/>
<path d="M80.963 110.281V117.282C80.4772 117.373 79.985 117.431 79.4798 117.431C75.4641 117.431 72.1934 114.458 72.1934 110.792C72.1934 110.52 72.2128 110.255 72.2517 109.989L73.0677 110.099C73.0159 110.326 73.0677 110.579 73.2296 110.779C73.3851 110.98 73.6247 111.084 73.8579 111.084C74.0392 111.084 74.2141 111.025 74.3631 110.902C75.6455 109.873 76.889 109.529 77.9577 109.503C78.1002 110.093 78.1196 111.259 76.5782 112.211C76.196 112.444 76.0794 112.943 76.3126 113.325C76.4681 113.571 76.7336 113.707 77.0056 113.707C77.1481 113.707 77.2971 113.668 77.4266 113.59C79.2919 112.437 79.7194 110.909 79.6287 109.724C80.2181 109.892 80.678 110.119 80.963 110.281Z" fill="#F2B8AC"/>
<path d="M80.9633 104.309V108.473C79.1044 107.696 76.1769 107.366 73.353 109.639C73.204 109.762 73.1069 109.924 73.068 110.099L72.252 109.989C72.6859 106.705 75.7624 104.153 79.4801 104.153C79.9788 104.153 80.4775 104.218 80.9633 104.309Z" fill="#F2B8AC"/>
<g opacity="0.6">
<path d="M117.232 141.078C117.038 141.194 116.831 141.305 116.597 141.389C112.174 143.027 106.079 144.109 101.383 143.215C97.2123 142.425 91.571 140.067 88.5723 136.855L89.2523 151.745C89.2523 151.745 107.446 152.147 119.57 140.113C118.832 140.508 118.042 140.825 117.226 141.078H117.232Z" fill="#2D2D2D"/>
</g>
<g clip-path="url(#clip1_211_631)">
<path d="M105.521 120.365C105.074 120.365 104.711 120.002 104.711 119.555V102.016C104.711 101.569 105.074 101.207 105.521 101.207C105.967 101.207 106.33 101.569 106.33 102.016V119.555C106.33 120.002 105.967 120.365 105.521 120.365Z" fill="#2D2D2D"/>
<g opacity="0.1">
<path d="M103.072 119.497L104.711 102.016L105.52 120.358H103.862C103.396 120.358 103.027 119.957 103.072 119.491V119.497Z" fill="#2D2D2D"/>
</g>
</g>
<path d="M131.212 120.838C130.234 118.389 129.826 104.542 129.826 104.542C129.826 104.542 127.656 113.486 126.147 118.875C124.638 124.27 119.081 124.51 116.017 122.301C112.953 120.099 107.319 121.446 107.319 121.446L105.842 122.301L104.404 121.446C104.404 121.446 98.7693 120.099 95.7057 122.301C92.6422 124.504 87.0851 124.27 85.576 118.875C84.0669 113.48 81.8972 104.542 81.8972 104.542C81.8972 104.542 81.4956 118.383 80.5112 120.838C79.5332 123.286 79.8959 126.278 79.8959 126.278C79.8959 126.278 80.8739 133.208 82.5902 135.534C84.3066 137.859 86.2626 141.622 87.4931 142.742C88.6136 143.772 93.536 146.965 96.8068 147.529C97.3897 147.632 97.9726 147.742 98.5361 147.93C100.065 148.435 103.29 149.336 105.835 148.889L106.133 148.915C108.679 149.368 111.645 148.435 113.174 147.93C113.737 147.742 114.32 147.632 114.903 147.529C118.174 146.965 123.096 143.772 124.217 142.742C125.441 141.622 127.403 137.859 129.12 135.534C130.836 133.208 131.814 126.278 131.814 126.278C131.814 126.278 132.183 123.286 131.199 120.838H131.212ZM105.868 127.697C103.348 127.697 101.82 126.278 101.82 126.278H109.955C109.955 126.278 108.387 127.697 105.868 127.697Z" fill="#2D2D2D"/>
<path d="M85.1088 105.501C84.9987 105.501 84.8821 105.488 84.772 105.455L80.4843 104.309C79.7913 104.121 79.3833 103.415 79.5711 102.722C79.7589 102.029 80.4649 101.621 81.1579 101.809L85.4456 102.955C86.1386 103.143 86.5466 103.849 86.3588 104.542C86.2033 105.119 85.6787 105.501 85.1088 105.501Z" fill="#2D2D2D"/>
<path d="M126.438 105.501C125.868 105.501 125.343 105.119 125.188 104.542C125 103.849 125.415 103.143 126.101 102.955L130.382 101.809C131.069 101.621 131.781 102.036 131.969 102.722C132.157 103.415 131.742 104.121 131.056 104.309L126.775 105.455C126.665 105.488 126.548 105.501 126.438 105.501Z" fill="#2D2D2D"/>
<path d="M94.1238 115.702C98.96 115.702 102.88 111.781 102.88 106.945C102.88 102.109 98.96 98.1885 94.1238 98.1885C89.2877 98.1885 85.3672 102.109 85.3672 106.945C85.3672 111.781 89.2877 115.702 94.1238 115.702Z" fill="#2D2D2D"/>
<path d="M94.1248 98.9981C98.5161 98.9981 102.072 102.554 102.072 106.945C102.072 111.336 98.5161 114.892 94.1248 114.892C89.7336 114.892 86.1778 111.336 86.1778 106.945C86.1778 102.554 89.7336 98.9981 94.1248 98.9981ZM94.1248 97.3789C88.8527 97.3789 84.5586 101.673 84.5586 106.945C84.5586 112.217 88.8527 116.511 94.1248 116.511C99.397 116.511 103.691 112.217 103.691 106.945C103.691 101.673 99.397 97.3789 94.1248 97.3789Z" fill="#2D2D2D"/>
<path d="M89.1433 113.143L91.9931 110.339C92.1486 110.19 92.3817 110.151 92.576 110.248L93.716 110.811C93.9038 110.902 94.1305 110.87 94.2859 110.727L101.501 103.998C101.501 103.998 100.827 101.828 99.1241 100.779L93.4245 106.096C93.2691 106.239 93.0424 106.271 92.8545 106.18L91.7146 105.617C91.5203 105.52 91.2872 105.559 91.1317 105.708L86.7793 109.995C86.7793 109.995 87.6472 112.191 89.1433 113.143Z" fill="#2D2D2D"/>
<path d="M117.261 115.702C122.097 115.702 126.017 111.781 126.017 106.945C126.017 102.109 122.097 98.1885 117.261 98.1885C112.424 98.1885 108.504 102.109 108.504 106.945C108.504 111.781 112.424 115.702 117.261 115.702Z" fill="#2D2D2D"/>
<path d="M117.26 98.9981C121.651 98.9981 125.207 102.554 125.207 106.945C125.207 111.336 121.651 114.892 117.26 114.892C112.868 114.892 109.313 111.336 109.313 106.945C109.313 102.554 112.868 98.9981 117.26 98.9981ZM117.26 97.3789C111.987 97.3789 107.693 101.673 107.693 106.945C107.693 112.217 111.987 116.511 117.26 116.511C122.532 116.511 126.826 112.217 126.826 106.945C126.826 101.673 122.532 97.3789 117.26 97.3789Z" fill="#2D2D2D"/>
<path d="M112.286 113.143L115.136 110.339C115.291 110.19 115.524 110.151 115.719 110.248L116.859 110.811C117.046 110.902 117.273 110.87 117.428 110.727L124.644 103.998C124.644 103.998 123.97 101.828 122.267 100.779L116.567 106.096C116.412 106.239 116.185 106.271 115.997 106.18L114.857 105.617C114.663 105.52 114.43 105.559 114.274 105.708L109.922 109.995C109.922 109.995 110.79 112.191 112.286 113.143Z" fill="#2D2D2D"/>
<path d="M102.467 106.258C101.994 106.258 101.541 105.999 101.314 105.552C100.991 104.918 101.237 104.134 101.871 103.81C102.033 103.726 105.855 101.809 109.54 103.823C110.168 104.166 110.395 104.956 110.052 105.578C109.708 106.206 108.925 106.44 108.296 106.09C105.803 104.723 103.083 106.09 103.057 106.103C102.869 106.2 102.668 106.245 102.467 106.245V106.258Z" fill="#2D2D2D"/>
<g clip-path="url(#clip2_211_631)">
<path d="M80.3216 85.6622C82.5626 73.5895 93.1522 64.4507 105.879 64.4507C118.606 64.4507 129.332 73.7125 131.475 85.9083V88.1752L79.8164 88.512L80.3216 85.6687V85.6622Z" fill="#F46FCF"/>
<path d="M78.8457 89.3217L79.5258 85.5133C81.8833 72.8382 92.9651 63.6411 105.88 63.6411C118.795 63.6411 130.019 72.9483 132.279 85.7659L132.292 85.9084V88.9784L78.8522 89.3217H78.8457ZM81.1191 85.8047L80.7823 87.6895L130.667 87.3657V85.9731C128.516 73.9651 118.102 65.2538 105.88 65.2538C93.6582 65.2538 83.3341 73.8939 81.1191 85.7983V85.8047Z" fill="#2D2D2D"/>
<path d="M132.376 87.0353C108.114 79.982 86.2741 84.6324 79.1626 86.5495C77.7312 86.9316 76.7402 88.3241 76.7402 89.9174V94.8916C76.7402 97.1391 78.6833 98.8036 80.6976 98.266C88.7353 96.1222 108.107 92.4045 130.265 98.5964C132.149 99.121 134.034 97.7349 134.254 95.6365L134.766 90.7918C134.947 89.0755 133.93 87.4822 132.389 87.0353H132.376Z" fill="#F46FCF"/>
<path d="M131.061 99.5228C130.718 99.5228 130.374 99.4775 130.038 99.3803C107.835 93.1755 88.2751 97.081 80.898 99.05C79.7581 99.3544 78.5534 99.1083 77.5948 98.3764C76.5456 97.5733 75.9238 96.2714 75.9238 94.8919V89.9177C75.9238 87.9552 77.1674 86.2453 78.9485 85.7661C87.0575 83.5834 108.515 79.2569 132.596 86.2583C134.532 86.8218 135.776 88.7648 135.556 90.8827L135.051 95.7274C134.915 97.0163 134.247 98.1562 133.224 98.8557C132.576 99.2961 131.819 99.5228 131.061 99.5228ZM105.05 94.3996C112.66 94.3996 121.346 95.2675 130.478 97.8194C131.113 97.9943 131.76 97.8842 132.317 97.5085C132.946 97.081 133.36 96.3686 133.444 95.5525L133.95 90.7079C134.086 89.3931 133.315 88.1495 132.149 87.8127C108.463 80.9279 87.3489 85.1831 79.3695 87.3334C78.2943 87.6249 77.543 88.6871 77.543 89.9242V94.8984C77.543 95.7727 77.9316 96.5953 78.5793 97.094C79.1428 97.5279 79.8164 97.664 80.477 97.4891C84.9525 96.2973 93.8257 94.3996 105.044 94.3996H105.05Z" fill="#2D2D2D"/>
<path d="M83.9418 97.178C83.5532 97.178 83.21 96.8995 83.1452 96.498C83.1128 96.3101 82.3809 91.8023 82.2449 88.6416C82.2255 88.1947 82.5752 87.819 83.0221 87.7996C83.4561 87.7802 83.8447 88.1299 83.8641 88.5768C83.9937 91.6468 84.7385 96.2 84.745 96.2454C84.8162 96.6858 84.5183 97.1003 84.0778 97.178C84.0325 97.1845 83.9872 97.191 83.9483 97.191L83.9418 97.178Z" fill="#2D2D2D"/>
<path d="M92.1561 93.0392C91.7804 93.0392 91.4501 92.7801 91.3659 92.398C90.8737 90.1117 91.0421 84.9691 91.0486 84.7489C91.0615 84.302 91.4501 83.9393 91.8841 83.9652C92.331 83.9781 92.6807 84.3538 92.6678 84.8007C92.6678 84.8525 92.4994 89.9627 92.9463 92.0547C93.0434 92.4887 92.7649 92.9226 92.3245 93.0133C92.2662 93.0262 92.2079 93.0327 92.1561 93.0327V93.0392Z" fill="#2D2D2D"/>
<path d="M101.521 95.1249C101.074 95.1249 100.711 94.7622 100.711 94.3153V86.4395C100.711 85.9926 101.074 85.6299 101.521 85.6299C101.967 85.6299 102.33 85.9926 102.33 86.4395V94.3153C102.33 94.7622 101.967 95.1249 101.521 95.1249Z" fill="#2D2D2D"/>
<path d="M111.871 95.2933C111.871 95.2933 111.839 95.2933 111.819 95.2933C111.211 95.2545 110.958 92.6163 111.062 87.3787C111.068 86.9318 111.463 86.6015 111.884 86.582C112.331 86.5885 112.687 86.9577 112.674 87.4046C112.623 89.9046 112.584 93.5835 112.642 94.2376C112.668 94.3283 112.681 94.4254 112.674 94.5291C112.648 94.9565 112.292 95.2869 111.865 95.2869L111.871 95.2933ZM111.923 93.6741C111.994 93.6741 112.066 93.6936 112.137 93.713C112.072 93.6936 112.001 93.6741 111.923 93.6741Z" fill="#2D2D2D"/>
<path d="M118.989 90.5131C118.989 90.5131 118.956 90.5131 118.943 90.5131C118.496 90.4872 118.153 90.1051 118.179 89.6582L118.477 84.561C118.503 84.1141 118.885 83.7773 119.332 83.7967C119.779 83.8226 120.122 84.2047 120.096 84.6516L119.798 89.7489C119.772 90.1828 119.416 90.5131 118.989 90.5131Z" fill="#2D2D2D"/>
<path d="M124.048 96.8346C124.048 96.8346 123.983 96.8346 123.95 96.8346C123.504 96.7828 123.186 96.3813 123.238 95.9344C123.238 95.889 123.769 91.3358 123.937 88.4666C123.963 88.0197 124.345 87.6894 124.792 87.7088C125.239 87.7347 125.576 88.1169 125.55 88.5638C125.375 91.4783 124.844 96.0769 124.844 96.1222C124.799 96.5367 124.449 96.8411 124.041 96.8411L124.048 96.8346Z" fill="#2D2D2D"/>
<path d="M129.682 94.1272C129.649 94.1272 129.617 94.1272 129.585 94.1272C129.138 94.0754 128.827 93.6674 128.879 93.227C129.267 89.9886 129.41 86.2061 129.41 86.1672C129.423 85.7203 129.818 85.3512 130.245 85.39C130.692 85.403 131.042 85.7786 131.023 86.2255C131.023 86.2644 130.88 90.1181 130.478 93.4213C130.427 93.8293 130.077 94.1337 129.675 94.1337L129.682 94.1272Z" fill="#2D2D2D"/>
<path d="M103.716 80.8825C103.269 80.8825 102.907 80.5198 102.907 80.0729C102.881 71.1025 104.506 67.5921 104.578 67.4431C104.772 67.0415 105.251 66.8667 105.659 67.061C106.061 67.2553 106.236 67.7345 106.041 68.1361C106.015 68.1944 104.5 71.5688 104.526 80.0664C104.526 80.5133 104.163 80.876 103.716 80.876V80.8825Z" fill="#2D2D2D"/>
<path d="M110.446 84.1986H110.433C109.986 84.1986 109.63 83.8295 109.63 83.3826C109.63 83.3307 109.682 78.0262 108.827 75.0922C108.704 74.6648 108.95 74.2114 109.377 74.0883C109.805 73.9653 110.258 74.2114 110.381 74.6389C111.307 77.806 111.255 83.1753 111.255 83.402C111.255 83.8489 110.886 84.2051 110.446 84.2051V84.1986Z" fill="#2D2D2D"/>
<path d="M121.009 75.6687C120.66 75.6687 120.336 75.442 120.232 75.0922C120.219 75.0598 119.183 71.6336 115.854 67.2035C115.588 66.8472 115.659 66.3421 116.016 66.07C116.372 65.8045 116.884 65.8757 117.149 66.2319C120.666 70.9147 121.741 74.4834 121.786 74.6324C121.91 75.0598 121.67 75.5067 121.236 75.6363C121.158 75.6557 121.081 75.6687 121.009 75.6687Z" fill="#2D2D2D"/>
<path d="M94.7845 84.4378C94.7456 84.4378 94.7067 84.4378 94.6614 84.4313C94.221 84.3666 93.9166 83.9521 93.9813 83.5116L94.8169 77.9286C94.8816 77.4882 95.2961 77.1708 95.7366 77.2486C96.177 77.3133 96.4814 77.7278 96.4166 78.1683L95.5811 83.7513C95.5228 84.1528 95.1731 84.4443 94.7845 84.4443V84.4378Z" fill="#2D2D2D"/>
<path d="M83.4957 86.148C83.4568 86.148 83.4245 86.148 83.3856 86.1415C82.9452 86.0832 82.6343 85.6752 82.6926 85.2283C82.712 85.1052 83.1265 82.1647 85.2444 78.1621C85.4517 77.767 85.9439 77.618 86.339 77.8253C86.7341 78.0325 86.8831 78.5248 86.6758 78.9199C84.6874 82.6699 84.2988 85.4161 84.2923 85.442C84.2405 85.85 83.8908 86.1415 83.4892 86.1415L83.4957 86.148Z" fill="#2D2D2D"/>
<path d="M91.9876 74.7488C91.871 74.7488 91.7544 74.7229 91.6443 74.6711C91.2362 74.4833 91.0614 74.004 91.2492 73.596C93.8723 67.9547 99.5266 64.3989 100.142 64.2564C100.582 64.1528 101.01 64.4248 101.113 64.8588C101.204 65.2603 100.99 65.6554 100.615 65.7979C100.349 65.9469 95.213 68.9132 92.713 74.276C92.5769 74.574 92.2855 74.7424 91.9811 74.7424L91.9876 74.7488Z" fill="#2D2D2D"/>
<path d="M124.753 85.8306C124.753 85.8306 124.72 85.8306 124.701 85.8306C124.254 85.8047 123.917 85.4226 123.943 84.9757L124.138 81.7178C124.157 81.3551 123.891 81.0248 123.529 80.9795L115.789 79.9043C115.582 79.8719 115.387 79.9367 115.232 80.0727C115.076 80.2087 114.992 80.3966 114.992 80.6038C114.992 81.8992 114.992 83.4795 114.992 83.622C114.992 84.0689 114.642 84.4381 114.196 84.4446C113.781 84.4446 113.38 84.0948 113.373 83.6479C113.373 83.499 113.373 81.9121 113.373 80.6038C113.373 79.9302 113.665 79.2955 114.17 78.8551C114.675 78.4147 115.348 78.2139 116.016 78.3046L123.755 79.3797C124.947 79.5481 125.828 80.6168 125.757 81.8215L125.562 85.0793C125.536 85.5068 125.18 85.8371 124.753 85.8371V85.8306Z" fill="#2D2D2D"/>
</g>
<defs>
<clipPath id="clip0_211_631">
<rect width="138.863" height="142.114" fill="white" transform="translate(35.7168 59.7549)"/>
</clipPath>
<clipPath id="clip1_211_631">
<rect width="3.25783" height="19.1584" fill="white" transform="translate(103.074 101.207)"/>
</clipPath>
<clipPath id="clip2_211_631">
<rect width="135.139" height="138.837" fill="white" transform="translate(38.3066 63.6411)"/>
</clipPath>
</defs>
</svg>
