<svg width="208" height="235" viewBox="0 0 208 235" fill="none" xmlns="http://www.w3.org/2000/svg">
<rect x="4" width="200" height="201" rx="10" fill="#998BD0"/>
<g clip-path="url(#clip0_211_630)">
<path d="M126.173 157.283C126.173 158.313 125.978 162.536 122.649 166.098C119.171 169.816 113.472 171.694 105.693 171.694C85.8546 171.694 84.1966 159.88 84.0605 157.827C85.8481 156.603 87.1176 155.515 87.9596 154.712C88.0891 156.059 88.4065 157.374 88.9246 158.624C89.5788 160.223 90.5309 161.629 91.6643 162.924C92.8107 164.233 94.0737 165.47 95.6216 166.292C97.2085 167.141 98.9831 167.685 100.725 168.093C104.249 168.915 107.992 169.038 111.49 168.034C114.378 167.199 117.04 165.554 118.996 163.255C120.033 162.03 120.868 160.638 121.399 159.116C121.678 158.306 121.84 157.477 121.982 156.635C122.112 155.865 122.261 155.055 122.675 154.381C123.42 155.113 124.566 156.124 126.173 157.283Z" fill="#306B15"/>
<path d="M171.089 200.528H38.0234C41.495 189.298 53.8592 168.863 68.024 164.958C74.4619 163.177 79.2094 160.877 82.5644 158.798C83.1797 162.522 86.6189 173.313 105.693 173.313C113.951 173.313 120.065 171.253 123.854 167.179C126.859 163.947 127.585 160.314 127.747 158.358C131.16 160.567 136.115 163.073 142.941 164.958C157.521 168.98 169.548 189.874 171.089 200.528ZM116.004 184.427H114.385C114.385 189.414 110.33 193.469 105.35 193.469C100.369 193.469 96.3082 189.414 96.3082 184.427H94.689C94.689 190.308 99.4689 195.088 105.35 195.088C111.231 195.088 116.004 190.308 116.004 184.427ZM111.464 184.427C111.464 182.646 110.603 181.202 109.54 181.202C108.478 181.202 107.617 182.646 107.617 184.427C107.617 186.208 108.478 187.659 109.54 187.659C110.603 187.659 111.464 186.215 111.464 184.427ZM103.433 184.427C103.433 182.646 102.571 181.202 101.509 181.202C100.447 181.202 99.5855 182.646 99.5855 184.427C99.5855 186.208 100.447 187.659 101.509 187.659C102.571 187.659 103.433 186.215 103.433 184.427Z" fill="#306B15"/>
<path d="M109.539 181.202C110.601 181.202 111.462 182.646 111.462 184.427C111.462 186.208 110.601 187.659 109.539 187.659C108.477 187.659 107.615 186.215 107.615 184.427C107.615 182.64 108.477 181.202 109.539 181.202Z" fill="#306B15"/>
<path d="M116.003 184.427C116.003 190.308 111.223 195.088 105.348 195.088C99.4739 195.088 94.6875 190.308 94.6875 184.427H96.3067C96.3067 189.414 100.361 193.469 105.348 193.469C110.335 193.469 114.383 189.414 114.383 184.427H116.003Z" fill="#306B15"/>
<path d="M101.508 181.202C102.57 181.202 103.431 182.646 103.431 184.427C103.431 186.208 102.57 187.659 101.508 187.659C100.445 187.659 99.584 186.215 99.584 184.427C99.584 182.64 100.445 181.202 101.508 181.202Z" fill="#306B15"/>
<path d="M105.692 173.313C86.6182 173.313 83.179 162.523 82.5637 158.798C79.2087 160.877 74.4612 163.177 68.0233 164.958C53.8585 168.863 41.4943 189.298 38.0227 200.528H171.089C169.547 189.874 157.52 168.98 142.941 164.958C136.114 163.073 131.159 160.567 127.746 158.358C127.584 160.314 126.859 163.947 123.853 167.179C120.064 171.253 113.95 173.313 105.692 173.313ZM84.0599 157.827C84.1959 159.88 85.8539 171.694 105.692 171.694C113.471 171.694 119.171 169.815 122.649 166.098C125.978 162.536 126.172 158.313 126.172 157.283C124.566 156.124 123.419 155.113 122.675 154.381C122.26 155.055 122.111 155.864 121.982 156.635C121.839 157.477 121.677 158.306 121.399 159.116C120.868 160.638 120.032 162.03 118.996 163.254C117.04 165.554 114.378 167.199 111.489 168.034C107.992 169.038 104.248 168.915 100.725 168.093C98.9824 167.685 97.2078 167.141 95.621 166.292C94.073 165.47 92.81 164.232 91.6636 162.924C90.5302 161.629 89.5781 160.223 88.924 158.624C88.4058 157.374 88.0884 156.059 87.9589 154.712C87.1169 155.515 85.8475 156.603 84.0599 157.827ZM88.5548 154.122C88.6584 155.839 89.0794 157.529 89.8242 159.077C90.6533 160.806 91.8774 162.302 93.2246 163.656C94.4681 164.9 95.88 165.819 97.5252 166.441C99.1767 167.069 100.893 167.529 102.635 167.808C106.029 168.358 109.611 168.183 112.823 166.894C115.472 165.832 117.862 163.973 119.443 161.59C120.22 160.418 120.803 159.129 121.12 157.756C121.418 156.447 121.47 155.061 122.215 153.921C122.137 153.837 122.059 153.759 121.995 153.688C122.428 153.151 122.649 152.574 122.688 152.011L122.849 152.212C122.927 152.309 128.795 159.375 143.368 163.397C158.543 167.581 171.691 189.252 172.805 201.26L172.889 202.148H35.8789L36.1639 201.124C39.0655 190.502 51.6564 167.788 67.5958 163.397C82.1881 159.368 87.9006 152.445 87.9589 152.373L88.1985 152.076H88.9045V152.568C88.8333 152.963 88.8268 153.377 88.8851 153.772C88.7944 153.87 88.6843 153.993 88.5548 154.122Z" fill="#2D2D2D"/>
<g clip-path="url(#clip1_211_630)">
<path d="M97.1496 185.316H94.8507C94.7409 185.316 94.6751 185.228 94.6751 185.146C94.6751 185.07 94.73 185.004 94.8507 185.004C94.8507 185.004 95.1675 184.981 95.1675 184.744V181.154C95.1675 180.912 94.8272 180.912 94.8272 180.912C94.7111 180.912 94.6562 180.835 94.6562 180.758C94.6562 180.676 94.7174 180.592 94.8272 180.592H96.9614C97.6671 180.592 98.1767 180.84 98.1767 181.643C98.1767 182.316 97.8725 182.605 97.4836 182.659C97.9039 182.706 98.517 183.19 98.5044 183.917C98.4919 184.578 98.0309 185.316 97.148 185.316H97.1496ZM96.7779 180.988L96.2793 180.982C96.1758 180.982 96.1334 181.023 96.1334 181.123L96.1272 182.546H96.7466C97.1966 182.546 97.3723 182.15 97.3723 181.766C97.3785 181.353 97.2013 180.986 96.7764 180.986L96.7779 180.988ZM96.7905 182.989H96.1334V184.76C96.1334 184.855 96.1883 184.896 96.2604 184.896H96.7952C97.482 184.896 97.6043 184.383 97.5981 183.862C97.5981 183.365 97.3189 182.988 96.7889 182.988L96.7905 182.989Z" fill="#2D2D2D"/>
<path d="M101.841 184.206C101.841 184.65 101.459 185.405 100.328 185.405C99.4403 185.405 98.7598 184.691 98.7598 183.751C98.7598 182.811 99.4529 182.103 100.328 182.103C101.203 182.103 101.604 182.628 101.702 183.283L99.7806 184.11C99.823 184.642 100.108 184.902 100.529 184.902C100.869 184.902 101.154 184.685 101.154 184.447C101.154 184.382 101.106 184.311 101.032 184.311C100.99 184.311 100.96 184.346 100.922 184.346C100.88 184.346 100.844 184.311 100.844 184.223C100.844 184.016 101.026 183.733 101.355 183.733C101.513 183.733 101.676 183.798 101.769 183.94C101.818 184.016 101.843 184.106 101.843 184.206H101.841ZM100.869 183.02C100.801 182.718 100.571 182.607 100.4 182.607C100.09 182.607 99.7806 182.89 99.7618 183.498L100.869 183.02Z" fill="#2D2D2D"/>
<path d="M109.102 181.261C109.102 181.591 108.865 181.958 108.433 181.958C108.177 181.958 107.983 181.792 107.983 181.687C107.983 181.558 108.105 181.64 108.105 181.47C108.105 181.299 107.959 181.198 107.642 181.198C107.12 181.198 106.366 181.541 105.812 182.249L108.128 184.759C108.323 184.973 108.475 185.002 108.549 185.002C108.574 185.002 108.591 184.995 108.591 184.995C108.718 185.002 108.773 185.072 108.779 185.143C108.779 185.231 108.712 185.32 108.591 185.32H106.621C106.505 185.32 106.427 185.244 106.427 185.16C106.427 184.899 106.871 185.094 106.871 184.842C106.871 184.8 106.846 184.747 106.786 184.682L105.278 183.011C105.21 183.146 105.108 183.319 105.077 183.424V184.741C105.077 184.989 105.442 185.002 105.442 185.002C105.539 185.002 105.607 185.084 105.607 185.161C105.607 185.244 105.558 185.321 105.442 185.321H103.771C103.661 185.321 103.606 185.233 103.606 185.151C103.606 185.075 103.654 185.009 103.771 185.009C103.771 185.009 104.111 184.986 104.111 184.749V181.159C104.111 180.923 103.771 180.923 103.758 180.923C103.654 180.923 103.6 180.841 103.6 180.757C103.6 180.681 103.654 180.597 103.775 180.597H105.434C105.55 180.597 105.599 180.662 105.599 180.732C105.599 181.075 105.071 180.751 105.071 181.176V182.386C105.405 181.672 106.062 181.04 106.676 180.703C107.097 180.473 107.496 180.414 107.813 180.414C108.056 180.414 108.883 180.42 109.072 181.058C109.091 181.124 109.102 181.194 109.102 181.265V181.261Z" fill="#2D2D2D"/>
<path d="M110.921 185.317H109.468C109.377 185.317 109.328 185.241 109.328 185.157C109.328 185.081 109.37 185.003 109.468 185.003C109.468 185.003 109.711 184.98 109.711 184.743V182.752C109.711 182.51 109.491 182.51 109.491 182.51C109.375 182.51 109.32 182.434 109.32 182.35C109.32 182.274 109.388 182.19 109.491 182.19L110.677 182.184L110.67 184.735C110.67 184.983 110.92 184.995 110.92 184.995C111.023 184.995 111.066 185.084 111.066 185.166C111.059 185.242 111.011 185.314 110.92 185.314L110.921 185.317ZM110.15 181.869C109.81 181.869 109.535 181.655 109.535 181.39C109.535 181.125 109.808 180.912 110.15 180.912C110.492 180.912 110.758 181.125 110.758 181.39C110.758 181.655 110.484 181.869 110.15 181.869Z" fill="#2D2D2D"/>
<path d="M114.903 185.317H113.45C113.352 185.317 113.304 185.235 113.304 185.151C113.304 185.067 113.346 185.003 113.45 185.003C113.45 185.003 113.693 184.98 113.693 184.743V183.23C113.693 182.923 113.505 182.705 113.145 182.705C112.89 182.705 112.75 182.805 112.604 182.941L112.598 184.736C112.598 184.985 112.848 184.997 112.848 184.997C112.938 184.997 112.993 185.068 112.993 185.145C112.993 185.227 112.945 185.315 112.848 185.315H111.394C111.303 185.315 111.254 185.239 111.254 185.155C111.254 185.072 111.297 185.001 111.394 185.001C111.394 185.001 111.637 184.979 111.637 184.741V182.75C111.637 182.508 111.417 182.508 111.417 182.508C111.301 182.508 111.248 182.432 111.248 182.354C111.248 182.272 111.309 182.188 111.417 182.188L112.597 182.182L112.603 182.501C112.742 182.341 113.011 182.14 113.49 182.14C114.044 182.14 114.652 182.341 114.652 183.043V184.732C114.652 184.986 114.902 184.992 114.902 184.992C114.993 184.992 115.041 185.058 115.054 185.134C115.054 185.216 115.012 185.311 114.902 185.311L114.903 185.317Z" fill="#2D2D2D"/>
<path d="M118.448 181.224C118.448 181.224 118.235 181.224 118.235 181.466V184.744C118.235 184.98 118.478 185.004 118.478 185.004C118.563 185.004 118.618 185.064 118.618 185.14C118.618 185.228 118.569 185.317 118.478 185.317H117.268L117.274 185.116C117.147 185.234 116.86 185.376 116.575 185.376C115.711 185.376 115.176 184.608 115.176 183.716C115.176 182.823 115.626 182.104 116.49 182.104C116.775 182.104 117.043 182.187 117.268 182.322L117.274 181.466C117.274 181.054 116.86 181.348 116.866 181.064C116.866 180.988 116.927 180.904 117.042 180.904H118.447C118.557 180.904 118.618 180.987 118.618 181.064C118.618 181.142 118.575 181.224 118.447 181.224H118.448ZM116.771 182.595C116.302 182.595 116.181 183.085 116.181 183.705C116.181 184.325 116.314 184.822 116.764 184.822C117.153 184.822 117.257 184.278 117.257 183.73C117.257 183.181 117.141 182.596 116.771 182.596V182.595Z" fill="#2D2D2D"/>
</g>
</g>
<path d="M139.169 109.989C139.208 110.255 139.228 110.52 139.228 110.792C139.228 114.458 135.963 117.431 131.941 117.431C131.455 117.431 130.976 117.373 130.51 117.288V110.604C130.587 110.572 130.665 110.533 130.73 110.475C130.775 110.443 131.157 110.132 131.786 109.873C131.747 111.032 132.213 112.483 133.994 113.59C134.13 113.668 134.273 113.707 134.422 113.707C134.694 113.707 134.959 113.571 135.108 113.325C135.348 112.943 135.225 112.444 134.849 112.211C133.321 111.265 133.327 110.119 133.457 109.523C134.474 109.503 135.711 109.821 137.058 110.902C137.207 111.025 137.388 111.084 137.563 111.084C137.803 111.084 138.036 110.98 138.198 110.779C138.36 110.579 138.411 110.326 138.36 110.099L139.169 109.989Z" fill="#FBDCC7"/>
<path d="M139.169 109.989L138.36 110.099C138.321 109.924 138.224 109.762 138.075 109.639C135.044 107.204 132.155 107.767 130.51 108.681V104.302C130.983 104.212 131.455 104.153 131.941 104.153C135.665 104.153 138.742 106.705 139.169 109.989Z" fill="#FBDCC7"/>
<path d="M131.942 102.534C136.851 102.534 140.848 106.239 140.848 110.792C140.848 115.345 136.851 119.05 131.942 119.05C131.463 119.05 130.983 119.011 130.511 118.94V119.536C130.511 126.524 127.596 132.839 122.926 137.347H123.03V153.332C123.03 162.088 115.905 169.213 107.149 169.213H103.612C94.8558 169.213 87.7313 162.088 87.7313 153.332V136.544C87.2909 136.077 86.8634 135.605 86.4618 135.106C82.9125 130.715 80.963 125.19 80.963 119.536V118.933C80.4708 119.011 79.9785 119.05 79.4798 119.05C74.5704 119.05 70.5742 115.345 70.5742 110.792C70.5742 106.239 74.5704 102.534 79.4798 102.534C79.9785 102.534 80.4708 102.579 80.963 102.657V96.2191C80.963 82.5595 92.0772 71.4453 105.737 71.4453C119.396 71.4453 130.511 82.5595 130.511 96.2191V102.644C130.983 102.579 131.463 102.534 131.942 102.534ZM139.228 110.792C139.228 110.52 139.209 110.254 139.17 109.989C138.743 106.705 135.666 104.153 131.942 104.153C131.456 104.153 130.983 104.211 130.511 104.302V108.68C132.156 107.767 135.044 107.204 138.075 109.639C138.224 109.762 138.322 109.924 138.36 110.099C138.412 110.326 138.36 110.578 138.199 110.779C138.037 110.98 137.803 111.083 137.564 111.083C137.389 111.083 137.208 111.025 137.059 110.902C135.711 109.82 134.474 109.503 133.458 109.522C133.328 110.118 133.322 111.265 134.85 112.21C135.226 112.443 135.349 112.942 135.109 113.324C134.96 113.57 134.695 113.706 134.423 113.706C134.274 113.706 134.131 113.668 133.995 113.59C132.214 112.482 131.748 111.032 131.787 109.872C131.158 110.131 130.776 110.442 130.731 110.475C130.666 110.533 130.588 110.572 130.511 110.604V117.288C130.977 117.372 131.456 117.431 131.942 117.431C135.964 117.431 139.228 114.458 139.228 110.792ZM128.891 119.536V96.2191C128.891 83.4533 118.503 73.0645 105.737 73.0645C92.971 73.0645 82.5822 83.4533 82.5822 96.2191V119.536C82.5822 124.821 84.4022 129.983 87.7183 134.083C92.142 139.555 98.7095 142.69 105.737 142.69C118.503 142.69 128.891 132.308 128.891 119.536ZM121.411 153.332V138.707C117.136 142.204 111.676 144.309 105.737 144.309C99.7976 144.309 93.8389 142.094 89.3505 138.124V153.332C89.3505 161.194 95.7496 167.593 103.612 167.593H107.149C115.012 167.593 121.411 161.194 121.411 153.332ZM80.963 117.282V110.28C80.678 110.118 80.2182 109.892 79.6288 109.723C79.7195 110.908 79.292 112.437 77.4267 113.59C77.2971 113.668 77.1482 113.706 77.0057 113.706C76.7337 113.706 76.4681 113.57 76.3127 113.324C76.0795 112.942 76.1961 112.443 76.5782 112.21C78.1197 111.258 78.1003 110.092 77.9578 109.503C76.8891 109.529 75.6456 109.872 74.3631 110.902C74.2142 111.025 74.0393 111.083 73.858 111.083C73.6248 111.083 73.3852 110.98 73.2297 110.779C73.0678 110.578 73.016 110.326 73.0678 110.099C73.1066 109.924 73.2038 109.762 73.3528 109.639C76.1767 107.366 79.1042 107.696 80.963 108.473V104.309C80.4773 104.218 79.9785 104.153 79.4798 104.153C75.7621 104.153 72.6857 106.705 72.2517 109.989C72.2129 110.254 72.1934 110.52 72.1934 110.792C72.1934 114.458 75.4642 117.431 79.4798 117.431C79.985 117.431 80.4773 117.372 80.963 117.282Z" fill="#2D2D2D"/>
<path d="M128.891 96.2195V119.536C128.891 132.308 118.502 142.691 105.737 142.691C98.7093 142.691 92.1418 139.556 87.7181 134.083C84.402 129.983 82.582 124.821 82.582 119.536V96.2195C82.582 83.4537 92.9644 73.0649 105.737 73.0649C118.509 73.0649 128.891 83.4537 128.891 96.2195Z" fill="#FBDCC7"/>
<path d="M121.412 138.707V153.332C121.412 161.195 115.013 167.594 107.15 167.594H103.613C95.7506 167.594 89.3516 161.195 89.3516 153.332V138.125C93.84 142.095 99.6238 144.31 105.738 144.31C111.852 144.31 117.137 142.205 121.412 138.707Z" fill="#FBDCC7"/>
<path d="M80.963 110.281V117.282C80.4772 117.373 79.985 117.431 79.4798 117.431C75.4641 117.431 72.1934 114.458 72.1934 110.792C72.1934 110.52 72.2128 110.255 72.2517 109.989L73.0677 110.099C73.0159 110.326 73.0677 110.579 73.2296 110.779C73.3851 110.98 73.6247 111.084 73.8579 111.084C74.0392 111.084 74.2141 111.025 74.3631 110.902C75.6455 109.873 76.889 109.529 77.9577 109.503C78.1002 110.093 78.1196 111.259 76.5782 112.211C76.196 112.444 76.0794 112.943 76.3126 113.325C76.4681 113.571 76.7336 113.707 77.0056 113.707C77.1481 113.707 77.2971 113.668 77.4266 113.59C79.2919 112.437 79.7194 110.909 79.6287 109.724C80.2181 109.892 80.678 110.119 80.963 110.281Z" fill="#FBDCC7"/>
<path d="M80.9633 104.309V108.473C79.1044 107.696 76.1769 107.366 73.353 109.639C73.204 109.762 73.1069 109.924 73.068 110.099L72.252 109.989C72.6859 106.705 75.7624 104.153 79.4801 104.153C79.9788 104.153 80.4775 104.218 80.9633 104.309Z" fill="#FBDCC7"/>
<g opacity="0.6">
<path d="M117.232 141.078C117.038 141.194 116.831 141.305 116.597 141.389C112.174 143.027 106.079 144.109 101.383 143.215C97.2123 142.425 91.571 140.067 88.5723 136.855L89.2523 151.745C89.2523 151.745 107.446 152.147 119.57 140.113C118.832 140.508 118.042 140.825 117.226 141.078H117.232Z" fill="#2D2D2D"/>
</g>
<g clip-path="url(#clip2_211_630)">
<path d="M105.521 120.365C105.074 120.365 104.711 120.002 104.711 119.555V102.016C104.711 101.569 105.074 101.207 105.521 101.207C105.967 101.207 106.33 101.569 106.33 102.016V119.555C106.33 120.002 105.967 120.365 105.521 120.365Z" fill="#2D2D2D"/>
<g opacity="0.1">
<path d="M103.072 119.497L104.711 102.016L105.52 120.358H103.862C103.396 120.358 103.027 119.957 103.072 119.491V119.497Z" fill="#2D2D2D"/>
</g>
</g>
<path d="M98.5943 127.211C98.2057 127.211 97.8624 126.932 97.7976 126.531C97.7264 126.09 98.0243 125.676 98.4647 125.598L112.655 123.26C113.096 123.189 113.51 123.487 113.588 123.927C113.666 124.368 113.361 124.782 112.921 124.86L98.7303 127.198C98.685 127.204 98.6396 127.211 98.6008 127.211H98.5943Z" fill="#2D2D2D"/>
<path d="M94.4608 111.602C95.9989 111.602 97.2458 109.775 97.2458 107.522C97.2458 105.268 95.9989 103.441 94.4608 103.441C92.9227 103.441 91.6758 105.268 91.6758 107.522C91.6758 109.775 92.9227 111.602 94.4608 111.602Z" fill="#2D2D2D"/>
<path d="M118.457 111.602C119.995 111.602 121.242 109.775 121.242 107.522C121.242 105.268 119.995 103.441 118.457 103.441C116.919 103.441 115.672 105.268 115.672 107.522C115.672 109.775 116.919 111.602 118.457 111.602Z" fill="#2D2D2D"/>
<path d="M89.0139 101.55C88.6771 101.55 88.3597 101.336 88.2496 100.999C88.1071 100.579 88.3338 100.119 88.7548 99.9762C94.6099 97.9943 98.347 99.4515 98.5024 99.5163C98.9169 99.6847 99.1177 100.158 98.9493 100.572C98.7809 100.987 98.3146 101.187 97.9001 101.019C97.8418 100.993 94.4997 99.743 89.273 101.511C89.1888 101.537 89.0981 101.557 89.0139 101.557V101.55Z" fill="#2D2D2D"/>
<path d="M123.075 101.31C123.004 101.31 122.926 101.304 122.855 101.278C117.525 99.7752 114.247 101.22 114.215 101.232C113.807 101.42 113.328 101.232 113.14 100.831C112.952 100.429 113.127 99.9501 113.535 99.7623C113.69 99.691 117.343 98.0394 123.295 99.7169C123.723 99.84 123.976 100.287 123.852 100.714C123.749 101.071 123.425 101.304 123.075 101.304V101.31Z" fill="#2D2D2D"/>
<circle cx="95.3039" cy="105.74" r="0.647681" fill="#2D2D2D"/>
<circle cx="119.267" cy="105.74" r="0.647681" fill="#2D2D2D"/>
<path d="M131.73 116.971C132.527 118.526 134.204 118.603 134.204 118.603L132.378 115.106C132.074 115.637 131.283 116.097 131.737 116.971H131.73Z" fill="#2D2D2D"/>
<path d="M131.613 113.655L132.371 115.106C132.591 114.724 132.539 114.296 131.613 113.655Z" fill="#2D2D2D"/>
<path d="M135.078 60.4094C135.027 60.1633 134.929 59.8654 134.761 59.4897C134.586 59.114 134.418 58.8226 134.249 58.5829C134.554 58.0648 134.826 57.5402 134.923 56.9055C135.163 54.9818 133.79 53.9002 132.131 53.3108C132.572 52.6696 132.999 52.009 132.973 51.2123C132.915 49.2628 131.134 48.7771 130.001 47.3133C129.91 47.1967 129.845 47.0801 129.793 46.9636C130.26 47.2356 130.804 47.3457 131.309 47.0348C132.74 46.2122 133.038 44.47 134.223 44.593C135.473 44.9298 136.037 46.426 136.549 47.5141C136.011 45.4221 134.508 42.5658 132.293 45.0011C131.846 45.4739 131.367 45.9726 130.907 46.1475C130.668 46.2317 130.59 46.1928 130.435 46.0892C130.279 45.9726 130.091 45.733 129.916 45.4739C129.897 45.448 129.878 45.4156 129.858 45.3832C130.104 44.6254 130.409 43.9454 129.586 43.4726C128.666 42.9479 128.155 43.3754 127.481 43.5308C127.358 43.5308 127.235 43.5568 127.105 43.5827C126.775 43.5956 126.387 43.5179 125.901 43.2329C124.12 42.1966 125.842 39.8196 122.513 38.4206C119.184 37.0217 118.472 39.3922 116.866 39.2108C115.259 39.0295 114.191 37.0152 111.93 37.1382C109.67 37.2613 107.235 38.7834 105.039 38.4789C102.837 38.1745 102.837 35.4348 98.4391 36.8338C94.0413 38.2328 97.9663 40.2471 95.11 41.3417C94.3198 41.6461 93.8082 41.808 93.4196 41.9311C92.9532 41.7044 92.3962 41.6396 91.904 41.808C90.8029 42.0412 90.3237 43.2394 89.9869 44.1073C89.9804 44.1202 89.9739 44.1202 89.9674 44.1332C89.8897 44.1915 89.8185 44.2433 89.7472 44.2886C89.7213 44.2886 89.7019 44.2886 89.663 44.2886C89.3975 44.2239 89.0607 44.1073 88.8858 43.913C88.413 43.492 88.4519 42.4039 88.0892 41.7303C87.8366 41.2186 87.3184 40.8754 86.7679 40.7588C86.2562 40.6811 85.7316 40.6098 85.2199 40.8948C83.795 41.7238 84.5658 43.7834 83.8015 44.8327C82.4608 45.2083 81.9621 43.1228 81.01 42.4751C80.4854 42.0671 79.7924 42.3909 79.3779 42.786C78.9439 43.1617 78.5942 43.6021 78.2574 44.0555C78.8014 43.4596 79.3779 42.7536 80.168 42.514C80.4206 42.4557 80.6732 42.514 80.8675 42.6759C81.6512 43.3625 81.8261 44.6967 83.0502 45.299C83.8209 45.6617 84.4816 45.2148 84.6629 44.4376C85.0515 43.0969 84.8443 40.8559 86.8262 41.7951C87.448 42.2161 87.2472 43.071 87.4868 43.7575C87.4998 43.8094 87.5257 43.8612 87.5451 43.9195C87.4026 43.9065 87.2342 43.9195 87.027 43.9583C85.1228 44.3858 86.4894 46.3936 83.7562 47.0024C81.023 47.6112 78.9439 49.619 79.475 51.996C79.6045 52.566 79.7211 53.1295 79.7988 53.6541C79.3325 53.6865 78.8597 53.8614 78.5488 54.2241C77.7716 55.1114 78.1084 56.1412 77.3636 56.7824C77.0721 56.9637 76.6123 57.0609 76.2625 56.899C75.7638 56.7112 75.4788 56.057 75.0643 55.6619C74.6563 55.351 74.3713 55.9858 74.2353 56.2707C74.5138 55.9016 74.8311 55.3769 75.1226 56.0829C75.5242 57.1581 76.4827 57.9547 77.7133 57.4301C78.7107 57.0156 78.8208 55.6166 79.4102 55.0919C79.5398 55.0013 79.7341 54.9948 79.9025 55.0337C79.8701 56.0505 79.5139 56.8472 78.5294 57.2422C76.69 57.9741 75.2392 59.8589 77.0592 61.7501C78.3934 63.1297 78.8208 64.4768 80.317 65.5261C80.2328 65.552 80.1421 65.5585 80.0579 65.5909C78.6719 66.1673 78.2574 67.7865 78.4581 69.1013C78.4841 69.2438 78.5164 69.3927 78.5553 69.5417C77.6162 69.6777 76.6576 70.2347 76.2949 70.9472C76.0488 71.3682 76.0423 71.9511 76.2301 72.4304C75.9516 72.7024 75.7444 73.1039 75.6861 73.4666C75.6278 73.7451 75.6666 74.069 75.8609 74.2827C75.5112 73.797 75.8027 73.1558 76.1265 72.7348C76.1783 72.67 76.2301 72.6117 76.2884 72.5599C76.5151 73.0392 76.949 73.3889 77.519 73.3047C77.8428 73.1622 77.6939 72.7348 77.5579 72.5405C77.2535 72.0871 76.8908 72.0353 76.5604 72.1907C76.3532 71.3487 77.0721 70.5391 77.94 70.3384C78.1926 70.2606 78.497 70.2023 78.7949 70.2023C79.0281 70.6751 79.3973 71.0702 79.9737 71.1415C80.44 71.1868 80.7574 70.6946 80.5437 70.2995C80.3105 69.9109 79.9413 69.6777 79.5268 69.5741C79.2159 68.5378 79.5527 66.9639 80.4919 66.7178C80.7898 66.6271 81.1331 66.6207 81.4763 66.6854C81.5282 66.9251 81.58 67.1712 81.6577 67.4238C81.8326 67.9743 82.1888 68.6803 82.8429 68.9523C83.8987 69.3992 85.1098 68.5378 84.6305 67.3849C85.5891 67.9549 85.058 68.4147 84.2225 69.3539C83.1862 70.5262 82.4155 71.135 83.5878 71.8021C83.2575 71.8928 82.979 72.1065 82.7782 72.4368C82.4219 73.0133 82.8883 73.7192 83.1733 74.0949C83.4194 74.4706 83.7756 74.8073 83.4323 75.17C83.1538 75.4809 82.4155 75.7335 82.0204 75.9278C81.5994 76.1092 81.2432 76.4265 81.0165 76.8281C80.7963 77.288 81.2432 77.7025 81.5346 77.9875C81.3598 77.7673 81.1849 77.5276 81.1201 77.2685C81.0424 77.003 81.2432 76.8152 81.4634 76.6403C81.8585 76.2646 82.4219 76.2258 82.9854 76.0379C83.6137 75.889 84.4557 75.3384 84.2678 74.5677C84.1707 73.9848 83.7238 73.4926 83.6461 73.0262C83.6525 72.9615 83.6525 72.9679 83.672 72.9744C83.6785 72.9744 83.7367 72.9356 83.795 72.9096C84.365 72.9615 84.9414 73.6091 85.7899 73.784C86.0878 73.8488 86.3469 73.9135 86.6254 73.8747C86.5801 74.1273 86.444 74.4187 86.185 74.7814C85.058 76.3618 85.4725 77.7673 83.3935 78.3761C81.3144 78.9849 78.6395 80.3839 78.9957 82.1521C79.3519 83.9202 79.8895 86.5951 78.3999 87.327C76.9167 88.0589 76.2496 89.2442 77.0268 91.375C77.7068 93.2533 76.2107 93.2727 75.7185 94.322C75.4982 94.3673 75.2716 94.4126 75.0578 94.4386C74.6563 94.4774 74.2677 94.5033 73.9114 94.4062C73.7366 94.3544 73.4645 94.2378 73.1342 94.2702C72.7197 94.2961 72.3376 94.6264 72.1951 94.9891C71.8129 96.2456 72.4153 97.5409 73.1018 98.5448C73.5487 99.1472 73.9891 99.4516 73.9632 100.067C73.9956 100.974 73.3544 101.874 73.063 102.748C72.9852 102.988 72.9334 103.26 73.063 103.487C73.1083 103.558 73.1795 103.603 73.2378 103.662C72.9529 103.441 73.05 103.066 73.1795 102.794C73.6847 101.764 74.6433 100.805 74.436 99.5228C74.3454 99.0112 73.9244 98.5448 73.7171 98.1498C73.2637 97.3661 72.9658 96.0513 73.2184 95.4813C73.7625 95.7339 74.3324 95.8505 74.9153 95.8894C74.449 96.8803 74.0993 97.9943 74.4814 99.0824C75.019 100.604 76.8001 100.851 77.7522 102.917C78.3351 104.18 78.0242 104.996 77.7004 105.43C77.3312 105.922 77.0851 106.505 77.0592 107.127C77.0397 107.735 77.1369 108.448 77.5708 109.005C78.1149 109.704 78.9957 110.164 79.6499 110.721C79.3455 110.805 79.0151 110.877 78.6784 110.941C78.3545 111.019 77.9465 111.155 77.7263 111.453C77.0138 112.502 78.5682 113.169 79.2807 113.493C80.3235 114.005 81.4116 114.387 82.2017 115.203C82.4543 115.449 82.6681 115.806 82.6357 115.877C82.5903 116.078 82.1629 116.265 81.9362 116.369L80.8416 116.835C80.4983 116.997 80.0126 117.172 79.7406 117.438C79.3908 117.729 79.2418 118.234 79.3325 118.649C79.5139 119.484 80.0709 120.113 80.6279 120.67C80.1292 120.067 79.6564 119.361 79.5786 118.616C79.4944 117.749 80.3105 117.496 81.0165 117.289L82.1629 116.932C83.4971 116.57 83.7303 115.695 82.8624 114.653C82.0592 113.584 80.7704 113.008 79.6758 112.308C79.9478 112.263 80.2198 112.204 80.4854 112.127C80.4854 112.166 80.4919 112.198 80.4919 112.237C80.4919 113.688 82.0528 113.092 82.5126 110.974C82.9595 110.514 83.2834 109.925 83.3999 109.186C83.4453 108.552 82.9984 108.195 82.5191 108.15C82.4219 107.237 82.4284 106.498 83.3417 105.598C84.9479 104.018 84.65 101.09 84.5917 99.3285C84.5399 97.7029 86.8067 94.4839 91.6644 93.2209C91.1592 93.7779 90.2977 93.9593 89.5788 94.1406C89.2744 94.2119 89.0089 94.2572 88.7498 94.5616C88.5231 94.8531 88.5361 95.287 88.6656 95.5914C88.9765 96.3557 89.5529 96.9775 89.7084 97.7612C89.7602 98.0202 89.7278 98.2469 89.6242 98.5384C89.1449 99.7236 88.2705 100.851 87.9078 102.12C87.72 102.768 87.72 103.532 88.1215 104.083C87.7912 103.487 87.8884 102.787 88.1345 102.204C88.8534 100.352 91.347 98.7974 90.2977 96.5759C90.1617 96.1743 89.9415 95.7792 89.8185 95.3971C91.7874 95.2676 93.5491 94.322 93.5685 92.8453C98.8989 92.0551 101.017 89.8983 103.193 88.9009C105.453 87.8646 107.235 86.2842 107.235 86.2842C107.235 86.2842 108.064 87.625 111.749 88.0524C113.575 88.2662 115.065 91.7183 116.27 91.9968C115.836 92.4502 115.551 93.0137 115.739 93.7067C116.27 95.1704 118.206 95.2676 119.379 95.1575C119.709 95.1445 120.065 95.1316 120.247 95.2093C120.298 95.4619 119.858 95.9347 119.644 96.1938C119.048 96.9645 117.798 97.7871 118.297 99.0759C118.601 99.5747 119.068 99.62 119.521 99.6524C120.467 99.6912 121.309 99.4192 122.164 99.5358C122.3 99.5747 122.319 99.5747 122.313 99.6394C122.241 100.397 121.237 101.103 120.778 101.803C120.24 102.405 120.208 103.532 121.309 103.461C122.086 103.409 123.239 102.93 123.465 103.998C123.614 104.86 122.896 105.669 122.572 106.453C122.442 106.751 122.449 107.101 122.785 107.243C122.475 107.088 122.481 106.744 122.63 106.472C123.148 105.52 124.463 104.037 123.168 103.111C122.468 102.729 121.658 103.195 120.985 102.962C120.752 102.722 120.985 102.411 121.212 102.133C121.814 101.382 122.675 100.909 123.012 99.9244C123.323 98.8298 122.099 98.6226 121.348 98.6679C120.609 98.6485 119.741 98.8104 119.204 98.5772C119.223 98.6161 119.217 98.5578 119.236 98.493C119.618 97.664 120.635 97.1005 121.199 96.265C122.241 94.7106 121.03 93.5901 119.366 93.6937C118.595 93.6937 117.824 93.6613 117.423 93.2986C117.708 93.0266 118.096 92.7999 118.511 92.6056C118.996 92.7546 119.502 92.923 120.059 93.1173C122.921 94.0888 123.932 93.48 125.298 95.6756C126.665 97.8713 129.042 100.488 128.09 103.228C127.138 105.967 127.339 107.489 128.31 108.83C129.282 110.171 127.734 112.606 129.1 114.005C129.1 114.005 129.463 114.141 130.959 113.215C131.089 113.312 131.231 113.416 131.393 113.513C131.471 113.565 131.529 113.61 131.6 113.655L131.27 113.021C131.413 112.93 131.561 112.833 131.717 112.723C133.854 111.259 133.142 110.773 132.313 108.765C131.484 106.757 132.429 104.562 133.44 103.344C134.45 102.127 135.221 100.3 134.036 98.4088C132.844 96.5176 132.727 94.7559 133.44 93.4735C134.152 92.1911 135.402 88.7843 132.967 87.625C132.144 87.2363 131.918 86.7247 131.905 86.1612C132.041 86.362 132.203 86.5887 132.527 86.7894C133.744 87.3724 135.415 86.9384 135.992 88.3698C136.303 89.3672 135.907 90.5266 135.467 91.4592C136.082 90.5136 136.639 89.4449 136.464 88.2467C136.238 86.6793 134.243 86.4073 133.122 85.8697C133.064 85.8309 132.948 85.6107 132.837 85.384C132.617 84.9176 132.41 84.406 132.138 83.9267C132.099 83.5316 131.944 83.1495 131.542 82.8127C129.819 81.3489 130.532 81.3489 128.511 80.617C126.49 79.8852 126.846 77.2685 124.586 76.3553C122.326 75.4421 125.182 75.0794 127.915 75.1377C130.648 75.196 129.878 73.1299 130.946 72.4563C131.03 72.4045 131.108 72.3656 131.186 72.3267C130.875 72.8514 130.966 73.5832 131.516 73.8876C132.332 74.2309 133.2 73.92 133.977 73.4731C134.385 73.6933 134.78 73.9395 135.163 74.1856C135.733 74.5742 136.419 75.1312 136.348 75.8695C136.076 77.0483 134.534 77.2491 133.472 77.2232C135.078 77.5665 137.689 76.6597 136.4 74.639C136.128 74.2503 135.461 73.5962 134.67 73.0262C134.852 72.9032 135.02 72.7801 135.176 72.6635C136.225 71.9705 136.523 70.5909 135.726 69.5288C135.674 69.4575 135.616 69.3992 135.564 69.3344C136.594 68.4601 137.281 67.9031 136.944 66.245C136.795 65.5002 136.4 65.0598 135.927 64.7553C136.328 64.2113 136.717 63.6543 137.028 63.0325C138.11 60.8887 136.6 60.5908 135.059 60.4029L135.078 60.4094ZM76.7807 72.2943C77.111 72.262 77.4737 72.67 77.4542 72.9938C77.4413 73.0327 77.4413 73.0392 77.4219 73.0392C77.1498 73.0392 76.8843 72.819 76.7418 72.5858C76.69 72.5016 76.6641 72.4239 76.6317 72.3397C76.677 72.3203 76.7288 72.3008 76.7807 72.2943ZM83.2186 67.8772C83.2186 67.9031 83.2316 67.9031 83.2186 67.8772V67.8772ZM131.283 54.7875C131.911 54.9106 132.494 55.0984 132.967 55.3899C133.848 55.8886 133.861 56.8731 133.492 57.728C133.479 57.7539 133.466 57.7863 133.453 57.8122C132.695 57.3588 131.989 57.5078 131.374 56.2578C131.108 55.7137 131.128 55.2409 131.277 54.7875H131.283ZM132.093 72.955C132.093 72.955 132.099 72.9744 132.106 72.9809C132.106 72.9938 132.099 72.9809 132.093 72.955ZM132.086 72.8967C132.086 72.8967 132.086 72.8643 132.08 72.8708C132.118 72.8449 132.209 72.8384 132.313 72.8514C132.229 72.8773 132.151 72.8902 132.086 72.8967ZM132.682 71.977C133.045 71.8086 133.485 71.4783 134.107 70.7529C134.185 70.6622 134.256 70.5845 134.334 70.5003C134.476 70.6622 134.58 70.8371 134.612 71.0119C134.495 71.4135 133.958 71.8863 133.42 72.2555C133.168 72.1324 132.922 72.0353 132.682 71.9705V71.977ZM135.92 64.7424C134.897 64.0947 133.537 64.0558 133.576 62.8965C133.621 61.6853 134.819 61.8537 135.072 61.0765C136.374 61.0895 137.585 61.0312 136.821 62.9418C136.587 63.5636 136.257 64.1595 135.914 64.7424H135.92Z" fill="#2D2D2D"/>
<path d="M135.926 54.9496C136.334 55.3641 136.463 55.9599 136.256 56.5105C134.818 60.416 131.314 67.3591 123.963 69.9952C123.782 70.0599 123.607 70.1182 123.432 70.1765C125.09 71.2128 128.29 73.1753 130.388 74.231C132.934 75.5069 133.232 78.1106 133.024 79.5226C133.484 80.1508 133.853 80.7402 134.035 81.2454C134.773 83.2467 133.892 85.5719 133.549 86.3362C133.97 87.4696 134.132 88.5448 134.048 89.5487C133.866 91.6148 132.636 92.5992 132.584 92.6446L131.988 93.1174L131.632 92.4438C124.047 78.0199 110.342 74.7038 108.471 74.3087C108.238 74.4447 107.991 74.5549 107.732 74.6131C107.007 74.788 106.035 74.8981 105.006 74.8981C103.704 74.8981 102.331 74.7297 101.275 74.3476C99.157 74.8074 85.6788 78.2272 78.1851 92.4697L77.8354 93.1433L77.233 92.664C77.1812 92.6251 75.9506 91.6407 75.7693 89.5746C75.6786 88.5707 75.8535 87.4955 76.268 86.3621C75.9312 85.6043 75.0439 83.2726 75.7822 81.2648C75.9701 80.7661 76.3328 80.1767 76.7991 79.5485C76.5854 78.1365 76.8898 75.5329 79.4287 74.2569C81.5725 73.1818 84.8109 71.5172 86.4625 70.6688C85.8602 70.3449 85.2772 70.0081 84.7138 69.6519C81.0867 67.3397 76.0867 66.4135 73.4117 66.0702C72.8159 65.9925 72.3366 65.5586 72.1876 64.9757C72.0386 64.3668 72.2653 63.7515 72.777 63.4018C76.2032 61.0378 82.4598 57.061 85.776 57.061C90.8667 57.061 95.3228 58.5766 97.6868 61.1155C99.6752 63.2528 101.21 65.2347 101.728 65.9148C102.033 65.8889 102.395 65.9472 102.81 66.1803C103.95 66.3746 105.912 66.543 106.638 66.2127C107.214 65.9472 107.817 65.9407 108.393 66.1868C108.51 66.2386 108.626 66.2969 108.736 66.3682C109.883 64.179 113.555 57.89 118.27 56.9833C120.129 56.6206 122.525 56.355 125.058 56.083C128.62 55.6879 132.299 55.2864 134.462 54.5998C134.98 54.4314 135.537 54.5674 135.926 54.956V54.9496ZM135.077 56.096C135.129 55.9729 135.077 55.8628 135.019 55.811C134.941 55.7333 134.877 55.7527 134.851 55.7592C132.571 56.491 128.821 56.8991 125.2 57.3006C122.694 57.5791 120.323 57.8317 118.516 58.1815C114.093 59.0364 110.459 65.7399 109.669 67.2944C109.896 67.6182 110.077 67.9938 110.2 68.3954C110.401 69.0107 110.498 70.0923 110.31 71.1999C111.787 71.3747 116.087 71.5108 123.529 68.8488C130.395 66.3941 133.711 59.8136 135.071 56.1024L135.077 56.096ZM132.811 84.6975C133.057 83.8232 133.232 82.6573 132.862 81.6534C132.189 79.8334 128.866 76.8412 128.27 76.4849C128.024 76.4007 127.849 76.1741 127.849 75.902C127.849 75.5652 128.128 75.2867 128.478 75.2867C128.944 75.2867 130.427 76.5368 131.761 77.994C131.625 77.0873 131.152 75.9862 129.818 75.3126C127.169 73.9849 122.979 71.3553 121.917 70.6752C120.097 71.2452 118.497 71.6532 117.085 71.9253L120.045 72.573C120.382 72.6442 120.595 72.9745 120.518 73.3113C120.453 73.5963 120.2 73.7906 119.909 73.7906C119.863 73.7906 119.812 73.7906 119.773 73.7712L117.752 73.3307L121.172 74.8722C121.483 75.0147 121.625 75.3774 121.483 75.6818C121.379 75.9085 121.152 76.038 120.913 76.038C120.822 76.038 120.738 76.0186 120.647 75.9797L112.855 72.4823C112.499 72.4952 112.162 72.5082 111.865 72.5082C111.029 72.5082 110.414 72.4499 110.006 72.3916C109.915 72.6312 109.818 72.8579 109.695 73.0717C109.649 73.1494 109.591 73.2142 109.546 73.2854C113.153 74.2116 125.129 78.1495 132.318 91.0448C132.538 90.6627 132.759 90.1186 132.823 89.3803C132.934 87.8841 132.37 85.3064 129.009 81.5563C128.782 81.3037 128.808 80.9151 129.073 80.6949C129.332 80.4747 129.728 80.5006 129.961 80.7532C131.191 82.1262 132.143 83.441 132.823 84.6846L132.811 84.6975ZM108.963 71.5237C109.241 70.4615 109.17 69.2827 109.008 68.7646C108.782 68.0716 108.341 67.5016 107.888 67.3073C107.642 67.2037 107.415 67.2102 107.169 67.3203C105.815 67.942 102.816 67.4304 102.48 67.3721L102.363 67.3462L102.259 67.2879C102.065 67.1713 101.942 67.1389 101.858 67.1389C101.787 67.1389 101.754 67.1583 101.735 67.1713C101.204 67.4563 100.66 69.3281 100.66 72.3527C100.66 72.4628 100.692 72.6312 100.964 72.832C101.087 72.9292 101.249 73.0069 101.417 73.0911C101.605 73.0781 101.78 73.1494 101.91 73.2724C103.484 73.7647 106.068 73.7712 107.434 73.4344C107.92 73.3178 108.296 73.0134 108.587 72.4888C108.749 72.2038 108.872 71.8864 108.956 71.5561V71.5431C108.956 71.5431 108.956 71.5431 108.956 71.5302L108.963 71.5237ZM99.8241 73.4408C99.7853 73.3955 99.7529 73.3566 99.7205 73.3048C99.034 73.6481 98.1337 73.81 97.0845 73.81C96.5728 73.81 96.0287 73.7647 95.4653 73.6999L87.7514 77.165C87.6607 77.2039 87.5765 77.2233 87.4858 77.2233C87.2462 77.2233 87.0195 77.0938 86.9159 76.8671C86.7734 76.5627 86.9159 76.1935 87.2268 76.051L88.7229 75.3839L88.6711 75.3968C88.6063 75.4163 88.548 75.4292 88.4897 75.4292C88.2177 75.4292 87.9716 75.2543 87.8874 74.9953C87.7838 74.6714 87.9781 74.3282 88.3084 74.231L92.3111 73.0458C90.8279 72.6248 89.3058 72.0483 87.8421 71.3618C86.7345 71.9317 82.5829 74.0691 80.0181 75.358C78.6839 76.0251 78.224 77.1261 78.075 78.0394C79.4157 76.5821 80.8989 75.3321 81.3653 75.3321C81.7085 75.3321 81.9935 75.6041 81.9935 75.9474C81.9935 76.2194 81.8122 76.4461 81.566 76.5238C80.9766 76.8865 77.654 79.8788 76.9805 81.6988C76.6113 82.6962 76.7797 83.862 77.0258 84.7429C77.7123 83.4993 78.6644 82.1781 79.8885 80.805C80.1217 80.5459 80.5168 80.52 80.7823 80.7467C81.0414 80.9669 81.0673 81.3555 80.8406 81.6081C77.4533 85.3905 76.9027 87.9748 77.0323 89.4709C77.097 90.1834 77.3172 90.7145 77.5375 91.0837C84.4417 78.7065 95.7567 74.5808 99.8371 73.4538L99.8241 73.4408ZM99.4096 72.0483C99.4291 69.9952 99.6752 67.5988 100.621 66.5042C100.044 65.7464 98.6065 63.9135 96.7671 61.938C94.6686 59.6841 90.4587 58.2851 85.7889 58.2851C83.6192 58.2851 79.1437 60.5196 73.5089 64.3992C73.3793 64.4899 73.4053 64.6389 73.4117 64.6842C73.4247 64.7425 73.47 64.8461 73.5801 64.8591C76.3587 65.2218 81.5725 66.1868 85.4003 68.6351C90.7631 72.0548 97.622 73.3955 99.4032 72.0548L99.4096 72.0483Z" fill="#2D2D2D"/>
<path d="M135.02 55.811C135.078 55.8693 135.123 55.9794 135.078 56.096C133.718 59.8072 130.402 66.3876 123.536 68.8423C116.094 71.5108 111.794 71.3748 110.317 71.1934C110.498 70.0924 110.408 69.0043 110.207 68.389C110.084 67.9874 109.896 67.6117 109.676 67.2879C110.466 65.7399 114.106 59.03 118.523 58.175C120.33 57.8253 122.701 57.5662 125.207 57.2942C128.834 56.8926 132.578 56.4846 134.858 55.7527C134.884 55.7527 134.955 55.7203 135.026 55.8045L135.02 55.811Z" fill="#AFC52B"/>
<path d="M132.863 81.6601C133.232 82.6575 133.057 83.8233 132.811 84.7042C132.131 83.4606 131.179 82.1458 129.948 80.7727C129.715 80.5137 129.32 80.4878 129.061 80.7144C128.795 80.9347 128.769 81.3297 128.996 81.5759C132.357 85.3259 132.921 87.9037 132.811 89.3998C132.746 90.1382 132.526 90.6822 132.306 91.0644C125.116 78.1626 113.134 74.2312 109.533 73.305C109.585 73.2337 109.637 73.169 109.682 73.0912C109.805 72.8775 109.909 72.6508 109.993 72.4112C110.401 72.4695 111.016 72.5278 111.852 72.5278C112.156 72.5278 112.487 72.5148 112.843 72.5019L120.634 75.9993C120.725 76.0382 120.809 76.0576 120.9 76.0576C121.14 76.0576 121.366 75.9281 121.47 75.7014C121.612 75.397 121.47 75.0343 121.159 74.8918L117.739 73.3503L119.76 73.7907C119.805 73.8037 119.857 73.8102 119.896 73.8102C120.188 73.8102 120.44 73.6159 120.505 73.3309C120.589 73.0006 120.375 72.6703 120.032 72.5925L117.072 71.9448C118.478 71.6663 120.077 71.2648 121.904 70.6948C122.966 71.3684 127.157 73.998 129.806 75.3322C131.14 75.9993 131.606 77.1069 131.749 78.0136C130.408 76.5563 128.931 75.3063 128.465 75.3063C128.115 75.3063 127.837 75.5848 127.837 75.9216C127.837 76.1936 128.012 76.4203 128.258 76.5045C128.854 76.8607 132.176 79.853 132.85 81.673L132.863 81.6601Z" fill="#AFC52B"/>
<path d="M109.008 68.7645C109.17 69.2826 109.241 70.4614 108.963 71.5236C108.963 71.5236 108.963 71.5279 108.963 71.5366V71.5495C108.872 71.8798 108.756 72.1972 108.594 72.4822C108.296 73.0003 107.92 73.3112 107.441 73.4278C106.074 73.7646 103.49 73.7581 101.916 73.2659C101.793 73.1363 101.612 73.0716 101.424 73.0845C101.255 73.0068 101.1 72.9226 100.97 72.8254C100.698 72.6247 100.666 72.4563 100.666 72.3462C100.666 69.3215 101.204 67.4562 101.741 67.1647C101.761 67.1518 101.799 67.1323 101.864 67.1323C101.948 67.1323 102.071 67.1647 102.266 67.2813L102.369 67.3396L102.486 67.3655C102.823 67.4238 105.822 67.9354 107.175 67.3137C107.421 67.2036 107.648 67.1971 107.894 67.3007C108.348 67.495 108.788 68.065 109.015 68.758L109.008 68.7645Z" fill="#AFC52B"/>
<path d="M99.7217 73.3046C99.7605 73.3564 99.7929 73.3953 99.8253 73.4406C95.7449 74.5676 84.4235 78.6933 77.5257 91.0705C77.3055 90.7013 77.0852 90.1702 77.0205 89.4578C76.8909 87.9552 77.4415 85.3774 80.8288 81.5949C81.0555 81.3359 81.0296 80.9537 80.7705 80.7335C80.505 80.5068 80.1099 80.5327 79.8767 80.7918C78.6526 82.1649 77.7005 83.4862 77.014 84.7297C76.7679 83.8553 76.5995 82.6895 76.9687 81.6856C77.6422 79.8656 80.9648 76.8733 81.5542 76.5106C81.8004 76.4329 81.9817 76.2062 81.9817 75.9342C81.9817 75.5909 81.6967 75.3189 81.3535 75.3189C80.8871 75.3189 79.3975 76.5689 78.0632 78.0262C78.2057 77.113 78.6721 76.0184 80.0063 75.3448C82.5776 74.0559 86.7292 71.9186 87.8303 71.3486C89.294 72.0352 90.8225 72.6116 92.2993 73.0326L88.2966 74.2179C87.9663 74.315 87.7784 74.6583 87.8756 74.9821C87.9598 75.2477 88.2059 75.4161 88.4779 75.4161C88.5362 75.4161 88.5945 75.4031 88.6593 75.3837L88.7111 75.3707L87.215 76.0378C86.9041 76.1803 86.7616 76.5495 86.9041 76.8539C87.0077 77.0806 87.2344 77.2101 87.474 77.2101C87.5647 77.2101 87.6489 77.1907 87.7396 77.1519L95.4535 73.6868C96.0169 73.7515 96.5675 73.7969 97.0727 73.7969C98.1219 73.7969 99.0287 73.6349 99.7087 73.2917L99.7217 73.3046Z" fill="#AFC52B"/>
<path d="M100.622 66.5107C99.676 67.5988 99.4299 70.0017 99.4105 72.0548C97.6294 73.3891 90.7704 72.0548 85.4076 68.6351C81.5798 66.1869 76.366 65.2218 73.5875 64.8591C73.4774 64.8462 73.432 64.749 73.4191 64.6842C73.4061 64.6389 73.3802 64.4964 73.5162 64.3993C79.151 60.5197 83.6265 58.2852 85.7962 58.2852C90.466 58.2852 94.676 59.6841 96.7744 61.9381C98.6138 63.9135 100.052 65.7464 100.628 66.5042L100.622 66.5107Z" fill="#AFC52B"/>
<defs>
<clipPath id="clip0_211_630">
<rect width="137.328" height="142.555" fill="white" transform="translate(35.7168 59.7549)"/>
</clipPath>
<clipPath id="clip1_211_630">
<rect width="23.9642" height="7.77217" fill="white" transform="translate(94.6562 177.633)"/>
</clipPath>
<clipPath id="clip2_211_630">
<rect width="3.25783" height="19.1584" fill="white" transform="translate(103.074 101.207)"/>
</clipPath>
</defs>
</svg>
